<svg xmlns="http://www.w3.org/2000/svg" viewBox="0 0 170 60">
  <title>bCasino-logo</title>
  <g id="Logotype">
    <path d="M157.13,26.44A12.91,12.91,0,1,0,170,39.34,12.89,12.89,0,0,0,157.13,26.44Zm0,21.24a8.34,8.34,0,1,1,8.31-8.34A8.32,8.32,0,0,1,157.13,47.68Z" style="fill: #fff;fill-rule: evenodd"/>
    <path d="M124.23,27h-4.6v24.6h4.6V38a6.48,6.48,0,0,1,13,0V51.59h4.6V38a11.08,11.08,0,0,0-17.55-9V27Z" style="fill: #fff;fill-rule: evenodd"/>
    <rect x="110.31" y="26.99" width="4.55" height="24.6" style="fill: #fff"/>
    <path d="M112.43,23.11a2.7,2.7,0,1,0-2.69-2.7A2.7,2.7,0,0,0,112.43,23.11Z" style="fill: #fff;fill-rule: evenodd"/>
    <path d="M103.48,33.21c-1.8-1.78-5.68-4.36-7.21-1-1.09,2.38,2.28,4.08,3.8,4.88,3.17,1.67,6,3.63,6,7.61a7.45,7.45,0,0,1-7.62,7.54,9.23,9.23,0,0,1-7.65-4L93.53,45c2.24,2.58,6.43,4.58,8.09,1,1.26-2.76-2-4.31-3.89-5.28C94.65,39.09,92,37.12,92,33.26a6.71,6.71,0,0,1,7-6.84c3,0,5.27,1.76,7.35,3.78l-2.86,3Z" style="fill: #fff;fill-rule: evenodd"/>
    <path d="M83.78,27v2.51a12.9,12.9,0,1,0,0,19.7v2.3h4.56V27ZM75.47,47.67a8.33,8.33,0,1,1,8.31-8.33A8.32,8.32,0,0,1,75.47,47.67Z" style="fill: #fff;fill-rule: evenodd"/>
    <path d="M57.61,35.18a8.34,8.34,0,1,0,0,8.33l3.92,2.28a12.9,12.9,0,1,1,0-12.9l-3.92,2.29Z" style="fill: #fff;fill-rule: evenodd"/>
    <path d="M21.16,28.75S31,35.94,31,40.38c0,4.69-5.82,6.28-8.9,3.15.12,2.36-.05,4.53,3,4.53a.54.54,0,0,1,.53.54.54.54,0,0,1-.55.55H17.18a.55.55,0,0,1-.54-.55.54.54,0,0,1,.53-.54c3.08,0,2.91-2.17,3-4.53-3.09,3.13-8.93,1.54-8.9-3.15,0-4.43,9.84-11.64,9.86-11.63Z" style="fill: #ff4040;fill-rule: evenodd"/>
    <path d="M0,0V38.87A21.18,21.18,0,0,0,39.51,49.43c-3.37-1.94-6.65-2.42-9.94.15a13.6,13.6,0,1,1-.37-21.71,9.12,9.12,0,0,0,10.31.43,21.19,21.19,0,0,0-32-5.6V7.53A7.55,7.55,0,0,0,0,0Z" style="fill: #fff;fill-rule: evenodd"/>
  </g>
</svg>
