<svg width="150" height="118" viewBox="0 0 150 118" fill="none" xmlns="http://www.w3.org/2000/svg">
<g clip-path="url(#clip0_2391_8397)">
<path d="M143.752 42.218C143.967 42.3384 144.194 42.4638 144.424 42.591C144.874 42.8384 145.16 42.9961 145.179 43.008" fill="black"/>
<path d="M149.374 43.708V43.5486L148.778 42.9808C148.537 42.7519 148.266 42.5536 147.934 42.3671L144.033 40.2024C142.713 39.4802 139.044 37.4817 138.615 37.2528C138.615 37.2528 134.281 34.9254 134.216 34.8898L134.296 34.4236C134.492 33.2794 134.147 32.1063 133.367 31.2231L134.606 23.9933C135.626 23.4305 136.353 22.4303 136.551 21.2454L138.244 11.361C138.461 10.0947 138.015 8.79618 137.055 7.89096C136.794 7.64347 136.5 7.43497 136.184 7.26884C136.036 7.18747 135.757 7.03491 135.18 6.7213L129.058 3.38693C128.393 3.02642 126.721 2.12064 124.042 0.669588C123.279 0.181382 122.683 0 121.868 0C121.566 0 121.285 0.032208 121.008 0.0983192L99.8868 4.79391C98.3311 5.14142 97.1585 6.37719 96.8992 7.93504L96.318 11.3304L93.0558 9.57256L92.6796 9.37423C92.2661 9.15386 91.8493 8.9623 91.407 8.78601C91.3443 8.76058 91.2833 8.73854 91.224 8.71481C91.1833 8.69955 91.1443 8.6843 91.102 8.66735L91.0223 8.63514L90.9105 8.60124C90.5478 8.47579 90.214 8.37239 89.892 8.28933L89.8073 8.26559C89.6988 8.23678 89.5666 8.20118 89.4192 8.17067C88.9244 8.05539 88.438 7.97233 87.8517 7.90283L87.7399 7.88927H87.7009C87.2806 7.84859 86.8231 7.82655 86.2706 7.81977H86.2452C86.1385 7.81977 85.8182 7.82655 85.8182 7.82655C85.4199 7.83502 85.0132 7.85876 84.6082 7.89774C84.5421 7.90283 84.2337 7.93165 84.1134 7.9469C83.4559 8.03166 82.9407 8.11642 82.4357 8.22661L71.5242 10.649C70.8057 10.81 70.1685 11.1592 69.6652 11.6457C69.2517 11.4983 68.8128 11.422 68.362 11.422C68.0638 11.422 67.7757 11.4559 67.5029 11.5203L56.9523 13.863C56.3066 14.0071 55.722 14.3105 55.2407 14.7326C54.8408 14.5953 54.4171 14.5258 53.9833 14.5258C53.68 14.5258 53.3987 14.558 53.1225 14.6241L33.5362 18.9722C31.9806 19.3197 30.8079 20.5555 30.5486 22.1133L24.9005 55.0672C24.8412 55.4147 24.831 55.7673 24.8683 56.1115C24.1396 56.186 23.4025 56.3115 22.645 56.4912C22.3603 56.5556 22.0858 56.6319 21.8197 56.7064L21.8011 56.7115C20.6267 57.0489 19.4574 57.5049 18.3407 58.0592C17.8238 58.3101 17.2731 58.6084 16.702 58.9474C12.9213 61.1901 9.57957 64.5601 7.29524 68.4353C7.00038 68.937 6.71399 69.4659 6.44285 70.005C6.36829 70.1457 6.29712 70.2999 6.22594 70.4711C6.22594 70.4711 6.07173 70.8051 6.03106 70.8949C5.92091 71.1323 5.80568 71.3764 5.69723 71.6408L5.68875 71.6594C5.63114 71.8035 5.56505 71.968 5.50235 72.1527L5.42948 72.346C5.32272 72.6325 5.21087 72.9291 5.1092 73.241C5.04141 73.4377 4.99227 73.6207 4.9516 73.7682L4.89737 73.9716L4.88551 74.0106C4.80247 74.292 4.71774 74.5819 4.64657 74.9006C4.60251 75.0888 4.56353 75.2769 4.52456 75.4736L4.48897 75.6566C4.43474 75.9262 4.37882 76.2042 4.33476 76.5042L4.32629 76.5703C4.29918 76.7619 4.27037 76.9789 4.24664 77.2382L4.24156 77.2908C4.21445 77.5535 4.18733 77.8112 4.167 78.0688V78.0926C4.14836 78.3468 4.13988 78.5943 4.13988 78.852V79.6233C4.13988 79.8555 4.15513 80.0623 4.17039 80.2454L4.18225 80.4014C4.20428 80.6692 4.23478 80.9371 4.26359 81.2032L4.27037 81.2524C4.29918 81.4626 4.33137 81.6999 4.38391 81.9491C4.43135 82.2169 4.49236 82.4915 4.57031 82.7882C4.62115 82.9916 4.67877 83.2204 4.75672 83.4645C4.83128 83.7086 4.9194 83.9595 5.04141 84.2748C5.12106 84.4952 5.20579 84.7037 5.2956 84.8986C5.41762 85.1766 5.55149 85.436 5.68367 85.6835L5.71926 85.7513C5.81754 85.9445 5.91922 86.1175 6.00395 86.2615C6.13782 86.4836 6.27509 86.6769 6.3971 86.8481L6.51233 87.0125L6.56486 87.0837C6.66823 87.2363 6.78347 87.3888 6.91226 87.5431C7.12069 87.7991 7.3376 88.0228 7.54773 88.2415L7.57993 88.2737L0.54393 100.211C-0.0576552 101.223 -0.16611 102.445 0.249068 103.566C0.587989 104.476 1.25905 105.224 2.13686 105.669L26.4341 117.324L26.5544 117.363C27.8457 117.785 29.237 118 30.691 118C35.2884 118 40.3909 115.771 44.5783 111.98C45.6509 112.557 47.0981 113.333 47.5014 113.552L47.6235 113.62C48.2047 113.938 48.8537 114.106 49.5045 114.106C49.8027 114.106 50.0925 114.072 50.3653 114.008L64.6017 110.846C66.1574 110.499 67.33 109.263 67.5893 107.705L67.8045 106.453C70.9073 105.452 74.0085 103.84 76.8961 101.728C78.567 102.625 83.6304 105.342 83.8982 105.486C84.4845 105.812 85.142 105.985 85.8012 105.985C86.0995 105.985 86.3893 105.951 86.6621 105.886L100.898 102.725C101.663 102.554 102.335 102.169 102.852 101.635C103.222 101.749 103.606 101.808 103.991 101.808C104.289 101.808 104.577 101.774 104.85 101.71L118.087 98.7701C119.641 98.4226 120.815 97.1868 121.074 95.6307L121.185 94.9899C122.806 95.8595 123.403 96.1799 123.63 96.3003C124.27 96.7292 125.014 96.9563 125.796 96.9563C126.089 96.9563 126.379 96.9241 126.655 96.8597L139.33 94.044C140.886 93.6965 142.059 92.4607 142.318 90.9029L149.93 46.4677C150.096 45.4964 149.891 44.5183 149.374 43.7131V43.708Z" fill="white"/>
<path d="M128.717 5.35484C128.717 5.35484 128.7 5.34812 128.693 5.34644C128.707 5.35316 128.719 5.35989 128.732 5.3683C128.72 5.35989 128.714 5.35652 128.717 5.35652V5.35484Z" fill="black"/>
<path d="M147.453 44.3793V44.3725C147.314 44.2403 147.161 44.1369 147.002 44.0471L143.111 41.8874C141.057 40.7652 137.773 38.9785 137.717 38.9514C137.69 38.9379 132.096 35.9323 132.089 35.9323L132.401 34.0999C132.513 33.454 132.262 32.8014 131.784 32.3505C131.637 32.2098 131.471 32.0962 131.288 32.008C131.288 32.0063 131.288 32.0047 131.286 32.003L132.75 23.4577C132.799 23.1729 132.777 22.8813 132.694 22.6101L133.145 22.5135C133.923 22.3406 134.526 21.715 134.658 20.9234L136.351 11.0372C136.463 10.3914 136.212 9.73874 135.735 9.28783C135.602 9.16239 135.457 9.05898 135.297 8.97592C135.294 8.97253 134.896 8.75724 134.264 8.41143L128.144 5.07875C127.477 4.71598 125.783 3.79834 123.064 2.32581C122.545 1.98678 122.301 1.92236 121.871 1.92236C121.725 1.92236 121.586 1.93592 121.447 1.97152L100.309 6.6705C99.531 6.84341 98.9277 7.46892 98.7955 8.26056L97.7618 14.3072C97.672 14.2513 97.5737 14.1885 97.4432 14.119C97.4297 14.119 97.3805 14.0851 97.3669 14.0767L92.1628 11.2729C92.1628 11.2729 91.7951 11.0779 91.7815 11.0711C91.4562 10.8982 91.102 10.7304 90.6987 10.5711C90.5953 10.5287 90.497 10.4948 90.3936 10.4524L90.3242 10.4321C90.0259 10.3287 89.7209 10.2303 89.4006 10.1473L89.3243 10.1269C89.221 10.0998 89.1159 10.071 89.0125 10.0506C88.5414 9.93877 88.1042 9.87096 87.6314 9.81502H87.6111C87.2078 9.77264 86.779 9.7523 86.2503 9.74552C86.1537 9.74552 85.8623 9.7523 85.8623 9.7523C85.5149 9.75908 85.1539 9.77942 84.793 9.81502C84.793 9.81502 84.4744 9.84215 84.3625 9.8574C83.822 9.9269 83.3356 10.0032 82.856 10.1066L71.9462 12.529C71.1683 12.7019 70.5651 13.3274 70.4329 14.119L70.4193 14.2089C70.4193 14.2089 69.572 13.7512 69.5585 13.7512C69.2111 13.4867 68.7959 13.3477 68.3655 13.3477C68.2265 13.3477 68.0808 13.3613 67.9418 13.3969L57.3726 15.743C56.6235 15.9091 56.0474 16.4923 55.8813 17.228C55.861 17.2212 55.195 16.8601 55.1797 16.8533C54.8323 16.5889 54.4172 16.4499 53.9867 16.4499C53.841 16.4499 53.702 16.4634 53.5631 16.499L33.9582 20.8522C33.1804 21.0251 32.5771 21.6506 32.4449 22.4423L26.7951 55.3961C26.6832 56.042 26.934 56.6946 27.4051 57.1455C27.5373 57.271 27.6898 57.3744 27.8491 57.4575C27.8695 57.471 29.5641 58.3745 29.5776 58.3813C28.5846 58.0965 27.5238 57.9575 26.4206 57.9575C25.3174 57.9575 24.221 58.0965 23.0754 58.3678C22.8331 58.4237 22.5823 58.4932 22.3332 58.5627C21.2927 58.8611 20.2302 59.2713 19.1829 59.7917C18.683 60.0341 18.1763 60.3121 17.6832 60.6037C14.172 62.687 11.0759 65.8095 8.95259 69.4134C8.67467 69.8847 8.40353 70.3847 8.15443 70.8848C8.09173 71.0035 8.0358 71.1272 7.98836 71.2459L7.90532 71.4256C7.75958 71.7443 7.60707 72.0579 7.47489 72.3766C7.41897 72.5156 7.36305 72.6546 7.3156 72.8003L7.23256 73.0224C7.12919 73.3004 7.02412 73.5784 6.93431 73.8547C6.87839 74.0141 6.83772 74.1734 6.79535 74.326L6.75299 74.4853C6.66995 74.7701 6.58692 75.0481 6.52422 75.3329C6.48185 75.5058 6.44796 75.6804 6.41237 75.8533L6.39204 75.9652C6.33612 76.2432 6.28019 76.5144 6.23952 76.7907C6.21241 76.9925 6.1836 77.1857 6.16326 77.423C6.13615 77.6943 6.10734 77.957 6.08701 78.2215C6.07345 78.43 6.06667 78.6385 6.06667 78.8538V79.6251C6.06667 79.8336 6.08701 80.0421 6.10056 80.2421C6.1209 80.4913 6.14971 80.7422 6.17682 80.9913C6.20394 81.1931 6.23274 81.3948 6.27341 81.588C6.31578 81.8305 6.37001 82.0746 6.43271 82.3102C6.48185 82.5051 6.5293 82.6984 6.592 82.8933C6.66148 83.1222 6.74451 83.351 6.84111 83.6019C6.90381 83.7748 6.97329 83.9494 7.04954 84.1155C7.14614 84.3376 7.25798 84.5529 7.37491 84.7749L7.42405 84.8648C7.49353 85.0038 7.56979 85.136 7.65282 85.275C7.77822 85.4835 7.92396 85.6785 8.0697 85.8853L8.1324 85.9683C8.21543 86.0938 8.30525 86.2107 8.40353 86.3294C8.55605 86.5176 8.7289 86.6973 8.93056 86.9058L9.00004 86.9753C9.09663 87.0787 9.20169 87.1838 9.29829 87.2804C9.49317 87.4533 9.7016 87.6211 9.96427 87.8144C9.96427 87.8144 10.0202 87.8635 10.027 87.8635C10.1236 87.9466 10.2286 88.0229 10.332 88.0992C10.3879 88.1415 10.4506 88.1754 10.5048 88.2178C10.0117 88.3432 9.58129 88.6619 9.31184 89.1196L2.19789 101.193C1.89286 101.706 1.84371 102.332 2.05215 102.893C2.225 103.357 2.5724 103.734 3.0096 103.956L27.1527 115.535C28.2558 115.896 29.4505 116.076 30.6927 116.076C35.1969 116.076 40.2774 113.64 44.2597 109.628C44.2733 109.634 48.5199 111.911 48.5487 111.933C48.8402 112.092 49.1656 112.182 49.5062 112.182C49.6452 112.182 49.7909 112.169 49.9298 112.133L64.1849 108.968C64.9627 108.795 65.566 108.17 65.6982 107.378L66.115 104.949C69.7652 103.956 73.4154 102.06 76.7877 99.3957C76.7877 99.3957 76.8012 99.4092 76.808 99.416C76.9469 99.5482 77.0995 99.6584 77.2655 99.7415C77.2926 99.7551 84.8099 103.79 84.8303 103.803C85.1285 103.969 85.4623 104.061 85.8013 104.061C85.9402 104.061 86.086 104.047 86.2249 104.012L100.48 100.847C101.258 100.674 101.861 100.048 101.993 99.2567L102.02 99.0906C102.02 99.0906 102.998 99.6178 103.02 99.6245C103.318 99.7907 103.652 99.8822 103.991 99.8822C104.13 99.8822 104.276 99.8686 104.415 99.833L117.67 96.8902C118.448 96.7173 119.051 96.0918 119.183 95.3002L119.746 92.0302C119.746 92.0302 124.625 94.6475 124.638 94.6543C124.972 94.8967 125.374 95.029 125.797 95.029C125.936 95.029 126.082 95.0154 126.228 94.9798L138.914 92.1607C139.691 91.9878 140.295 91.3623 140.427 90.5707L148.041 46.1338C148.153 45.4879 147.937 44.8285 147.458 44.3776L147.453 44.3793Z" fill="black"/>
<path d="M52.343 28.3058L54.0359 18.4197L34.431 22.7796L33.4549 28.4686C33.5498 28.3855 33.6108 28.3364 33.6142 28.333C33.6346 28.3194 33.6634 28.3194 33.6837 28.333C33.7041 28.3397 33.7108 28.3669 33.704 28.3889C33.2041 29.6806 33.1211 30.874 33.1974 31.8606C33.2397 32.2217 33.3499 32.8607 33.6905 33.5134V33.5269C34.5649 35.2763 33.8362 36.7342 34.0159 37.2749C34.0921 37.5173 34.4395 36.2273 34.5564 36.5731C34.8344 37.3648 34.8276 38.6277 34.7361 39.0243C34.5564 39.8092 34.2785 40.5584 33.882 41.2602C33.9786 41.1975 34.0701 41.1484 34.1396 41.1077C34.3887 40.9687 34.5835 40.85 34.6801 40.7822C34.6937 40.7754 34.714 40.7754 34.7293 40.7822C34.7428 40.7958 34.7496 40.8093 34.7428 40.8246C33.8244 42.5638 32.3433 43.8945 30.6453 44.8387L28.7778 55.7301L39.3471 53.384L41.4213 41.3043L50.4569 39.2973L51.9634 30.5079L42.9278 32.5149L43.3023 30.3146L52.3379 28.3075L52.343 28.3058ZM35.0936 36.5324C34.9479 36.5663 34.8022 36.4901 34.775 36.3595C34.7479 36.2273 34.8377 36.0883 34.9767 36.0544C35.1224 36.0205 35.2682 36.0968 35.2953 36.2273C35.3224 36.3595 35.2394 36.4985 35.0936 36.5324Z" fill="#FFF73C"/>
<path d="M34.4343 35.678C34.3581 35.6983 34.3157 35.7678 34.331 35.8373C34.3462 35.9068 34.4208 35.9492 34.497 35.9272C34.5733 35.9068 34.6157 35.8373 34.6004 35.7678C34.5852 35.6983 34.5106 35.6559 34.4343 35.678Z" fill="black"/>
<path d="M52.1328 50.5259L62.8427 48.1984L68.5654 15.5039L57.8572 17.8314L52.1328 50.5259Z" fill="#FFF73C"/>
<path d="M80.0498 31.274L79.7871 31.3299L81.1919 23.0813L81.4546 23.0253C83.6356 22.5388 85.0946 23.9916 84.7015 26.2699C84.3134 28.5482 82.2307 30.7858 80.043 31.2723H80.0498V31.274ZM95.2487 23.9221C96.6671 15.5971 91.3731 10.2896 83.4136 12.0187L72.5325 14.4444L66.8979 47.4288L77.4401 45.081L77.9112 42.3298L78.2501 42.2535L79.7583 41.9196L80.609 44.3725L91.1511 42.0247L88.9922 35.7645C92.1832 32.408 94.5302 28.1837 95.2623 23.917L95.2487 23.9238V23.9221Z" fill="#FFF73C"/>
<path d="M120.229 13.8884L121.915 4.06836L111.681 6.33648L100.866 8.73683L99.1802 18.5569L98.8074 20.7369L97.3076 29.4669L96.9348 31.6452L95.2402 41.472L116.291 36.8036L117.977 26.9835L107.743 29.2533L108.123 27.0666L116.83 25.1426L118.329 16.4125L109.622 18.3433L109.995 16.1565L120.229 13.8884Z" fill="#FFF73C"/>
<path d="M69.0432 92.9336L83.1661 89.7654L90.7155 45.2844L76.5927 48.4544L69.0432 92.9336Z" fill="#FFF73C"/>
<path d="M26.734 77.3095L21.3909 75.5516C20.7572 75.3431 20.6267 74.5227 21.0944 73.7158C21.5621 72.9089 22.4586 72.4292 23.0839 72.6377L29.1167 74.6261L36.1747 62.5379L29.2675 60.2647C23.394 58.3322 15.0955 62.8295 10.7285 70.3153C6.36319 77.7943 7.58161 85.4276 13.4551 87.3516L18.7236 89.0553C19.3574 89.2638 19.4879 90.0842 19.0202 90.8911C18.5525 91.698 17.656 92.1778 17.0307 91.9693L15.8936 91.5946L11.0793 90.0368L4.02124 102.125L10.9285 104.398C16.802 106.331 25.1004 101.833 29.4674 94.3476C33.8327 86.8685 32.6143 79.2352 26.7408 77.3027L26.734 77.3095Z" fill="#FFF73C"/>
<path d="M54.7104 53.345H54.7172L40.2537 56.5591L32.6331 100.996L40.735 99.1957C40.735 99.1957 40.735 99.194 40.735 99.1923C40.6248 96.853 39.7962 94.5747 38.2185 92.8253C38.1676 92.7744 38.1676 92.6965 38.2015 92.6456C38.2439 92.5947 38.3117 92.5693 38.3812 92.5947C38.3981 92.5947 38.7218 92.7236 39.2251 92.988C40.0961 93.4406 41.6229 94.3967 42.8515 95.9325C44.1903 86.1853 51.5025 82.7543 51.8109 82.7713C52.1871 82.7882 51.9905 83.0696 51.9905 83.0696C51.9905 83.0696 50.6162 84.2223 49.1402 87.6788C50.2315 86.4159 51.3839 85.2038 52.5786 84.0342C56.4609 80.2184 60.9143 76.8993 65.9236 74.4921C66.2811 74.3124 67.2725 73.9124 67.647 73.7581C67.6978 73.7412 67.9452 73.6395 68.1927 73.5615C69.4382 73.2716 67.0234 75.0125 67.1013 75.8567C67.7419 75.8822 68.2791 75.1821 68.757 74.8498C68.9756 74.6956 69.1925 74.5379 69.4077 74.3803C70.0483 72.7292 70.5295 71.0459 70.8176 69.3575C72.7461 58.1118 65.5372 50.9396 54.7104 53.3416V53.345ZM52.4091 78.9148C52.2295 79.2471 51.794 79.3674 51.4279 79.1792C51.0619 78.9911 50.9077 78.5554 51.0873 78.2232C51.2669 77.8909 51.7025 77.7706 52.0685 77.9587C52.4345 78.1469 52.5887 78.5826 52.4091 78.9148ZM54.5511 78.769C54.4579 78.9402 54.2274 79.008 54.0393 78.9063C53.8427 78.8046 53.7665 78.5741 53.8597 78.4029C53.9529 78.2317 54.1749 78.1639 54.3715 78.2656C54.568 78.3673 54.6443 78.5978 54.5511 78.769ZM70.455 68.3302C70.2414 68.6286 70.0025 68.9439 69.7381 69.2524C68.6892 70.5068 66.8539 72.3257 64.1239 73.8531C62.2548 74.8939 60.3178 76.0296 59.0045 77.3688C58.9706 77.3942 58.9282 77.4027 58.8859 77.3773L58.8774 77.3858C58.8435 77.3603 58.8266 77.318 58.8435 77.2756C59.4926 75.9449 61.7193 73.0852 63.7494 71.6341C65.3711 70.4814 67.4775 69.5338 68.8688 68.9032C69.5263 68.6048 70.055 68.3658 70.3194 68.2031C70.3533 68.1777 70.4041 68.1861 70.438 68.22C70.4719 68.2455 70.4804 68.2963 70.455 68.3302ZM55.212 68.1878C54.6782 71.2985 51.8295 74.3599 48.847 75.021L48.6301 75.0702L50.5535 63.8109L50.7704 63.7618C53.7529 63.1007 55.7458 65.0772 55.212 68.1878Z" fill="#FFF73C"/>
<path d="M32.589 38.9345C32.7229 38.9345 32.8313 38.826 32.8313 38.6921C32.8313 38.5582 32.7229 38.4497 32.589 38.4497C32.4551 38.4497 32.3467 38.5582 32.3467 38.6921C32.3467 38.826 32.4551 38.9345 32.589 38.9345Z" fill="#FFF73C"/>
<path d="M32.4025 38.0732C32.472 38.0732 32.5279 38.0172 32.5279 37.9477C32.5279 37.8782 32.472 37.8223 32.4025 37.8223C32.333 37.8223 32.2771 37.8782 32.2771 37.9477C32.2771 38.0172 32.333 38.0732 32.4025 38.0732Z" fill="#FFF73C"/>
<path d="M116.545 39.4192L113.554 56.8997L107.995 41.3212L94.7403 44.264L94.3946 46.2778C94.5911 46.5134 94.786 46.7508 94.9792 46.9898C96.1722 48.4679 97.8109 49.58 99.6851 49.9682C99.741 49.9817 99.7817 50.0241 99.7817 50.08C99.7885 50.136 99.7478 50.1834 99.6919 50.1987C99.6851 50.1987 99.4072 50.275 98.9497 50.3445C98.1515 50.4631 96.7009 50.5666 95.1538 50.1428C98.9361 57.1963 95.7706 62.9514 95.5638 63.0904C95.3063 63.2565 95.3063 62.9785 95.3063 62.9785C95.3063 62.9785 95.6604 61.5631 94.9724 58.5847C94.8538 59.9391 94.6742 61.285 94.4522 62.6242C93.7235 66.9842 92.3915 71.3085 90.2462 75.2871C90.0937 75.5718 89.6361 76.3143 89.4616 76.5923C89.4412 76.6347 89.3226 76.8212 89.1972 76.9873C89.1684 77.0212 89.143 77.0466 89.1176 77.0704L87.1484 88.5619C87.1603 88.6042 87.1705 88.6466 87.1823 88.6873L100.38 85.7564L103.371 68.2759L108.929 83.8544L121.608 81.0353L129.229 36.6052L116.543 39.4175L116.545 39.4192ZM93.0507 76.1465C92.5441 77.6806 91.6137 79.3114 90.9969 80.3946C90.6986 80.9082 90.4699 81.3117 90.3716 81.5473C90.358 81.5812 90.3224 81.5964 90.2885 81.5964C90.2546 81.5897 90.2258 81.5625 90.2258 81.5269C90.2191 81.2218 90.2326 80.9014 90.253 80.576C90.3428 79.2503 90.6698 77.1738 91.7374 74.8633C92.4661 73.2732 93.1948 71.6069 93.4168 70.0948C93.4168 70.0609 93.4507 70.0321 93.4863 70.0321H93.493C93.5269 70.0253 93.5693 70.0524 93.5693 70.088C93.7845 71.2746 93.6879 74.2259 93.0491 76.1482L93.0507 76.1465ZM96.0282 67.2808C95.8553 67.3079 95.6943 67.2045 95.674 67.0384C95.6537 66.8723 95.7706 66.7265 95.9451 66.6977C96.118 66.6706 96.279 66.774 96.2993 66.9401C96.3196 67.1062 96.2027 67.252 96.0282 67.2808ZM97.6872 66.379C97.3618 66.4349 97.0483 66.2197 97.0077 65.9145C96.9653 65.6094 97.1958 65.3178 97.5279 65.2687C97.8533 65.2127 98.1668 65.428 98.2074 65.7331C98.2498 66.0383 98.0126 66.3231 97.6872 66.379Z" fill="#FFF73C"/>
</g>
<defs>
<clipPath id="clip0_2391_8397">
<rect width="149.986" height="118" fill="white"/>
</clipPath>
</defs>
</svg>
