<svg xmlns="http://www.w3.org/2000/svg" width="680" height="148" viewBox="0 0 680 148">
  <defs>
    <filter id="instawin-logo-a" width="101.9%" height="110.8%" x="-.9%" y="-5.4%" filterUnits="objectBoundingBox">
      <feGaussianBlur in="SourceGraphic" stdDeviation="2"/>
    </filter>
    <linearGradient id="instawin-logo-b" x1="50%" x2="50%" y1="99.587%" y2="-82.963%">
      <stop offset="0%" stop-color="#F6EB48"/>
      <stop offset="100%" stop-color="#F9AF4D"/>
    </linearGradient>
  </defs>
  <g fill="none" fill-rule="evenodd">
    <path fill="#29275F" d="M675.780391,88.002341 L650.745517,42.2011215 L503.8275,42.2011215 C504.459468,39.5017201 504.791545,36.6834223 504.791545,33.7522867 L504.791545,33.7511507 L504.791545,26.9187761 L504.011903,26.9187761 C502.711995,21.376086 499.803957,16.6107659 495.49794,13.1336158 C490.324813,8.95331125 483.389446,6.83400284 474.882299,6.83400284 C467.627728,6.83400284 461.29593,8.41676309 456.058811,11.5413893 C450.711884,14.7353086 446.608824,19.0916858 443.870043,24.4840516 C441.354287,29.4303667 440.078234,34.9279973 440.078234,40.8235899 L440.08202,41.1829295 C440.090351,41.5305309 440.116856,41.8607144 440.134653,42.1999855 L265.273345,42.1999855 L267.448693,27.515151 L267.448693,20.6812618 L258.154331,22.2647794 L259.521639,27.515151 L214.004408,27.515151 L208.29284,42.1999855 L85.5073731,42.1999855 C86.1389626,39.5009628 86.4710393,36.6834223 86.4710393,33.7522867 L86.4710393,26.9187761 L85.6645132,26.8048022 C84.3513523,21.310958 81.4539165,16.5872896 77.1774346,13.1336158 C72.0039291,8.95331125 65.0689401,6.83400284 56.5614144,6.83400284 C49.3072228,6.83400284 42.9754245,8.41676309 37.7379269,11.5413893 C32.3909992,14.7353086 28.2883181,19.0916858 25.549537,24.4840516 C23.0334026,29.4303667 21.7573494,34.9268614 21.7573494,40.8235899 L21.7615146,41.1829295 C21.7694663,41.5256085 21.782719,41.8648796 21.800137,42.1999855 L8.87072751,42.1999855 L1.25833227,87.5839318 L0.000454380934,88.2514932 L0.000454380934,95.0850038 L14.1468475,95.0850038 L6.92408386,140.747258 L5.78093716,141.142191 L5.78093716,147.97608 L633.823613,147.97608 L679.65361,95.0884116 L679.65361,88.254901 L675.780391,88.002341 Z"/>
    <path fill="#273EA1" d="M650.745062,35.3674973 L503.827424,35.3674973 C504.459771,32.6680959 504.791469,29.8497981 504.791469,26.9186625 C504.791469,18.461876 501.489256,11.1383913 495.497865,6.29999165 C490.324738,2.11968706 483.38937,2.84217094e-14 474.882223,2.84217094e-14 C467.628031,2.84217094e-14 461.295854,1.5831389 456.058735,4.70776513 C450.711808,7.90168444 446.608748,12.2580616 443.869967,17.6504274 C441.354211,22.5967425 440.078158,28.0943731 440.078158,33.9899658 L440.081944,34.3489267 C440.090275,34.6969068 440.11678,35.0270902 440.134577,35.3659827 L265.273269,35.3659827 L267.448618,20.6815269 L214.004332,20.6815269 L208.292764,35.3659827 L85.5072974,35.3659827 C86.1388869,32.6673386 86.4709636,29.8497981 86.4709636,26.9186625 C86.4709636,18.461876 83.1691288,11.1383913 77.1773589,6.29999165 C72.0038533,2.11968706 65.0688643,2.84217094e-14 56.5613386,2.84217094e-14 C49.307147,2.84217094e-14 42.9753487,1.5831389 37.7378512,4.70776513 C32.3909235,7.90168444 28.2882423,12.2580616 25.5494613,17.6504274 C23.0333268,22.5967425 21.7572737,28.0932372 21.7572737,33.9899658 L21.7614389,34.3489267 C21.7693905,34.6919843 21.7826433,35.0308767 21.8000613,35.3659827 L8.87065178,35.3659827 L0,88.2517582 L14.1467717,88.2517582 L5.78086143,141.142078 L633.823916,141.142078 L679.653913,88.2547874 L650.745062,35.3674973 Z"/>
    <path fill="#29275F" d="M303.648978,55.7703761 C306.639562,55.7703761 309.720265,55.9305454 312.894495,56.2470975 C316.065695,56.5659214 319.23841,56.972971 322.41226,57.4708968 C325.583461,57.9699585 328.5305,58.5133224 331.249212,59.1021243 C333.967925,59.6931982 336.369328,60.3486427 338.455694,61.0733803 C337.095202,68.9599187 335.984619,75.6219005 335.123946,81.0604616 C334.261379,86.49978 333.560875,90.829273 333.016376,94.0447755 C332.47339,97.2640644 332.064826,99.7559651 331.793712,101.523128 C331.521462,103.291427 331.338953,104.538324 331.249212,105.263062 C331.158336,105.988936 331.113277,106.441802 331.113277,106.621661 C331.113277,107.349049 331.270417,107.892413 331.589619,108.254025 C331.906171,108.617151 332.381378,108.797388 333.016376,108.797388 L333.901282,108.797388 C334.217456,108.797388 334.556727,108.753086 334.921368,108.661074 L333.15269,130.551633 C331.7017,131.279021 329.686142,131.911747 327.102229,132.45511 C324.519831,132.99961 322.003696,133.27186 319.556098,133.27186 C317.289494,133.27186 315.091426,132.99961 312.962273,132.45511 C310.830848,131.911747 308.883447,131.074928 307.114769,129.940491 C305.347606,128.808703 303.87314,127.424735 302.69705,125.793507 C300.792437,127.334995 298.753024,128.672768 296.577297,129.804555 C294.403084,130.938993 292.135723,131.799666 289.779758,132.388468 C287.421142,132.975755 284.885318,133.27186 282.165091,133.27186 C277.81515,133.27186 273.939281,132.296456 270.54089,130.348676 C267.141742,128.400518 264.466953,125.385322 262.518416,121.306117 C260.567986,117.227291 259.595232,112.196915 259.595232,106.214611 C259.595232,94.6119943 261.339298,85.1396665 264.829701,77.7972492 C268.318968,70.454832 273.349343,64.9481137 279.921585,61.2774731 C286.493448,57.6056965 294.403084,55.7703761 303.648978,55.7703761 Z M250.485917,42.4461096 L248.31019,57.1305655 L261.498596,57.1305655 L257.69202,79.0211243 L244.638413,79.0211243 L240.831837,101.047997 C240.831837,101.591361 240.807603,102.114657 240.76368,102.610689 C240.717106,103.109751 240.695522,103.586472 240.695522,104.039338 C240.695522,105.309712 241.057134,106.329418 241.783386,107.098458 C242.508124,107.86977 243.64029,108.253722 245.182913,108.253722 C246.178764,108.253722 247.266628,108.117786 248.446125,107.845536 C249.621836,107.573665 251.165216,107.302551 253.068315,107.030301 L251.028902,129.463845 C247.582801,130.734976 244.184411,131.686146 240.831837,132.320386 C237.477369,132.953112 233.851031,133.271936 229.953957,133.271936 C226.508614,133.271936 223.360511,132.772495 220.50397,131.775887 C217.648943,130.780035 215.33728,129.011736 213.570117,126.472882 C211.803332,123.93668 210.919561,120.354265 210.919561,115.732453 C210.919561,114.10009 211.007408,112.128834 211.190297,109.816792 C211.372049,107.505508 211.643163,105.309712 212.007425,103.223346 L215.950315,79.0211243 L207.792284,79.0211243 L211.326611,58.7614144 L219.892827,57.1305655 L225.604017,42.4461096 L250.485917,42.4461096 Z M181.822975,55.7704897 C186.898789,55.7704897 191.453958,56.1574708 195.487346,56.9265106 C199.519598,57.6978222 203.077779,58.6732266 206.161133,59.8493159 L199.634708,81.1968895 C197.640354,80.4721519 195.419567,79.8833499 192.973105,79.4282117 C190.525127,78.975724 188.122588,78.6129766 185.767002,78.3418626 C183.408386,78.0696127 181.279611,77.9332984 179.376513,77.9332984 C178.105382,77.9332984 177.064471,78.0241746 176.248857,78.2055483 C175.433622,78.3884367 174.820586,78.6595506 174.413537,79.0211621 C174.005351,79.3842882 173.801258,79.8367759 173.801258,80.3812757 C173.801258,81.0166517 174.321525,81.5357819 175.365465,81.9443461 C176.406376,82.3525317 177.789208,82.6918028 179.512448,82.9640527 C181.232659,83.2363026 183.136136,83.6232837 185.222123,84.1196949 C187.306974,84.6187566 189.39069,85.3222897 191.476677,86.2276437 C193.561528,87.134891 195.465005,88.3348353 197.188245,89.8297486 C198.908456,91.3257978 200.291288,93.2758493 201.33485,95.6772526 C202.376139,98.0794131 202.89792,101.048035 202.89792,104.582362 C202.89792,109.116326 202.262544,113.012264 200.994443,116.275855 C199.724069,119.539067 197.956906,122.281635 195.691817,124.501664 C193.425214,126.723966 190.818582,128.46841 187.874193,129.736511 C184.927154,131.006885 181.776022,131.91186 178.424584,132.454845 C175.06936,132.999724 171.670969,133.271974 168.22714,133.271974 C162.333441,133.271974 157.098594,132.816835 152.523357,131.91186 C147.94509,131.006885 143.525857,129.828524 139.265278,128.376398 L145.928396,107.709638 C148.104123,108.526388 150.595646,109.252262 153.406749,109.884987 C156.215202,110.520363 159.048645,111.019425 161.904808,111.381415 C164.759835,111.744162 167.274455,111.924779 169.450182,111.924779 C170.719041,111.924779 171.761467,111.835039 172.577459,111.65215 C173.394209,111.471912 174.026934,111.200041 174.481694,110.836915 C174.934182,110.47644 175.161372,110.067875 175.161372,109.612737 C175.161372,108.70814 174.638077,108.005743 173.596787,107.505546 C172.554361,107.008756 171.171907,106.532413 169.450182,106.078411 C167.726943,105.625923 165.84732,105.126861 163.807907,104.582362 C161.768873,104.039376 159.729081,103.291541 157.689668,102.338477 C155.650255,101.386928 153.767224,100.118826 152.046635,98.5322794 C150.323396,96.9476259 148.940942,94.952515 147.899652,92.5499758 C146.857226,90.1485725 146.33696,87.1788145 146.33696,83.6433522 C146.33696,79.1120383 147.173778,75.1252243 148.851201,71.6791235 C150.527488,68.2352947 152.907309,65.3352084 155.989526,62.9765927 C159.06985,60.6210062 162.788201,58.8296094 167.139277,57.6058101 C171.489595,56.3831467 176.385171,55.7704897 181.822975,55.7704897 Z M483.624003,57.1303004 L471.796089,131.911557 L443.242412,131.911557 L455.071841,57.1303004 L483.624003,57.1303004 Z M371.996996,57.1303004 L369.005655,107.981585 L369.624225,105.581703 C370.65076,101.59578 371.655107,97.6791843 372.63547,93.8308118 L373.220796,91.5299663 L373.800836,89.2300349 C374.762807,85.3828326 375.701044,81.4657234 376.616651,77.4788453 L377.163308,75.0783473 L377.479678,73.6659654 C378.531113,68.9327387 379.551213,63.9466836 380.53954,58.7091151 L380.835084,57.1303004 L412.650459,57.1303004 L410.06806,107.981585 L411.0569,104.628478 L412.031687,101.274698 L412.031687,101.274698 L412.991244,97.9208341 L413.554037,95.9059425 C414.108691,93.8881731 414.638917,91.8618159 415.144634,89.8272798 L415.642178,87.7900326 L416.12374,85.7510587 C416.597051,83.7119334 417.045634,81.6723991 417.469735,79.6328649 L417.885684,77.5933458 L418.170224,76.1355149 C418.614198,73.8007652 419.004123,71.4552821 419.342075,69.0979668 L419.585826,67.3277445 L419.746995,66.0384031 C420.052318,63.4639092 420.255618,60.9145481 420.358173,58.39032 L420.401061,57.1303004 L447.322374,57.1303004 L447.315415,58.084303 C447.259749,61.9086108 446.870192,65.8324716 446.149367,69.8554087 L445.962261,70.8632068 L445.729195,72.04362 C444.938192,75.9451327 443.930576,79.907553 442.707623,83.9317314 L442.291999,85.2754128 L441.822474,86.7471935 C440.55244,90.6811267 439.138628,94.6884394 437.580456,98.7668051 L436.989373,100.299518 L436.232617,102.223585 C434.702209,106.078049 433.070445,109.970425 431.337483,113.899436 L430.46257,115.866988 L429.446486,118.126249 C427.743982,121.900658 425.996244,125.720052 424.202168,129.586225 L423.120153,131.911557 L390.6251,131.911557 L391.304778,92.7541443 L391.119804,93.6994737 C390.680398,95.9246132 390.186449,98.2854582 389.639384,100.784325 L389.401679,101.863725 L389.032441,103.502765 C388.532951,105.698302 388.004656,107.934368 387.446097,110.210178 L387.021481,111.924476 L386.366811,114.504395 C385.924961,116.221257 385.472201,117.931989 385.007916,119.636829 L384.302768,122.189698 L383.949066,123.457129 C383.247931,125.977191 382.584468,128.408355 381.959796,130.748865 L381.650698,131.911557 L346.980675,131.911557 L344.123755,57.1303004 L371.996996,57.1303004 Z M122.271924,55.7701868 C128.07096,55.7701868 132.605303,57.220798 135.868516,60.1212629 C139.131728,63.0228638 140.762956,67.0111925 140.762956,72.0870062 C140.762956,72.7678676 140.643148,73.9645667 140.405093,75.6799116 L140.355906,76.0298967 L131.275103,131.911557 L103.05994,131.911557 L110.239159,87.0425759 C110.46332,85.4113484 110.57843,84.2784253 110.57843,83.6430493 C110.57843,82.3749478 110.260742,81.4915555 109.626502,80.9921152 C108.991505,80.495704 108.039955,80.2446585 106.771854,80.2446585 C106.045602,80.2446585 105.275426,80.3128157 104.460191,80.4491299 C103.644199,80.5839296 102.828963,80.812256 102.013728,81.1284294 C101.401166,81.3675474 100.814589,81.6179539 100.253836,81.8809269 L99.7016867,82.148136 L91.6803486,131.911557 L62.9903578,131.911557 L74.956101,57.1303004 L100.925865,57.1303004 L99.9739366,63.5207896 C102.420778,61.6176908 104.88996,60.1000585 107.382996,58.9652421 C109.876033,57.8334549 112.368312,57.0182198 114.861349,56.5187794 C117.353629,56.0208536 119.823946,55.7701868 122.271924,55.7701868 Z M65.3034218,57.1299596 L53.4755074,131.911595 L24.9214522,131.911595 L33.2884985,79.0208971 L19.3121196,79.0208971 L22.9835176,57.1299596 L65.3034218,57.1299596 Z M637.781595,56.9949706 L657.835698,94.3863563 L625.953302,131.776985 L604.33878,131.776985 L636.09357,94.5355447 L616.039468,57.1445377 L637.781595,56.9949706 Z M598.177829,56.9949706 L618.231931,94.3859777 L586.349915,131.776606 L564.629749,131.776606 L570.544652,94.3859777 L576.435701,57.1445377 L598.177829,56.9949706 Z M540.592391,55.6350085 L541.116091,55.6390046 C546.491642,55.7215916 550.750675,57.084266 553.888794,59.7264001 L554.188983,59.9860846 L554.481176,60.2528592 C557.454018,63.0404563 558.98608,66.7867646 559.078931,71.4933537 L559.083423,71.9518278 L559.081831,72.0948788 C559.066967,72.7945542 558.948081,73.9437447 558.725935,75.5447333 L558.676753,75.8947184 L549.59595,131.776379 L521.380408,131.776379 L528.560006,86.9073976 L528.603382,86.5878619 C528.78503,85.2319553 528.884465,84.2497809 528.897744,83.641585 L528.899277,83.5078709 L528.895041,83.2593752 C528.858335,82.2047669 528.583067,81.4388525 528.069976,80.9618785 L527.947349,80.8569368 L527.795104,80.7467386 C527.216274,80.3586679 526.410842,80.1465861 525.379267,80.113934 L525.092322,80.1094802 L524.651475,80.117656 C524.2053,80.1340046 523.743122,80.1748626 523.264777,80.240148 L522.781037,80.313573 L522.373073,80.3888999 C521.829162,80.4996202 521.285419,80.651347 520.741845,80.8425095 L520.334196,80.9932511 L519.730189,81.2362325 C519.333387,81.4008154 518.948275,81.5706285 518.57457,81.7459083 L518.022533,82.0129577 L510.000438,131.776379 L481.311204,131.776379 L493.276947,56.9951221 L519.246332,56.9951221 L518.294783,63.3859899 L518.859681,62.953574 C520.9325,61.3931543 523.022128,60.1088446 525.128565,59.0990392 L525.703464,58.8304424 L526.383537,58.5295268 C528.650278,57.5526619 530.915454,56.8376378 533.182196,56.3836011 C535.674096,55.8856753 538.144793,55.6350085 540.592391,55.6350085 Z M300.928373,78.341749 C298.662148,78.341749 296.59888,79.3614556 294.741976,81.4008687 C292.882801,83.4402818 291.387888,86.183228 290.256479,89.6266782 C289.122041,93.071643 288.55558,97.0156695 288.55558,101.45535 C288.55558,103.993825 289.168615,105.898438 290.3909,107.16654 C291.615078,108.436913 292.996396,109.069638 294.537883,109.069638 C295.442859,109.069638 296.327766,108.980277 297.189954,108.797388 C298.051005,108.617151 298.934776,108.413058 299.840888,108.185867 C300.745863,107.960192 301.562613,107.665601 302.288486,107.302475 L306.776255,79.1573628 C305.868251,78.7957513 304.916701,78.5685608 303.919714,78.4765487 C302.921212,78.3887017 301.925739,78.341749 300.928373,78.341749 Z M475.881352,21.7646964 L476.366565,21.7678695 C480.855735,21.827101 484.23928,22.7155785 486.517816,24.4336101 L486.757717,24.6208592 L486.997426,24.8211272 C489.11694,26.6541 490.21407,29.3122167 490.289733,32.7951718 L490.293937,33.1855612 L490.288533,33.7008916 C490.220276,36.9381007 489.505436,39.8435045 488.146237,42.4146 L487.913738,42.84002 L487.682732,43.2373869 C486.196576,45.7207642 484.195516,47.7056631 481.677049,49.1912491 L481.252513,49.4342233 L480.876894,49.6367948 C478.230999,51.0200317 475.113332,51.74233 471.528189,51.8079838 L470.986912,51.8129075 L470.5017,51.8096649 C466.01326,51.7491332 462.650555,50.841093 460.41266,49.0818498 L460.17719,48.8901022 L459.933756,48.6778865 C457.857931,46.8052152 456.741187,44.1269841 456.587786,40.6468463 L456.574706,40.2568644 L456.580534,39.7158201 C456.646362,36.6765313 457.269867,33.908587 458.453734,31.4087663 L458.682276,30.9431912 L458.887639,30.552058 C460.288627,27.9691118 462.327692,25.8783584 465.003851,24.2804522 C467.813061,22.6041652 471.4394,21.7646964 475.881352,21.7646964 Z M57.5611493,21.7643556 C62.4552106,21.7643556 66.0804132,22.715905 68.4375143,24.6205184 C70.7946154,26.5236172 71.9729766,29.3786441 71.9729766,33.185599 C71.9729766,36.8119375 71.1793246,40.0312264 69.5931564,42.8393006 C68.0066097,45.650404 65.7865802,47.8484718 62.9315533,49.4342612 C60.0769051,51.0211866 56.6531448,51.8129454 52.6667094,51.8129454 C47.7707548,51.8129454 44.1686499,50.8398129 41.8566083,48.8897614 C39.5449453,46.9423604 38.3423504,44.0634786 38.2541248,40.2565237 C38.2541248,36.8119375 38.9550074,33.7088944 40.361695,30.9432291 C41.7661108,28.1790784 43.8733023,25.957913 46.6828911,24.2801114 C49.4924799,22.6038244 53.1188184,21.7643556 57.5611493,21.7643556 Z" filter="url(#instawin-logo-a)"/>
    <path fill="#235BBA" d="M617.232045,85.3856369 L617.232045,90.8525968 L585.349649,128.243225 L563.629862,128.243225 L563.629862,122.776265 L617.232045,85.3856369 Z M631.850313,47.9950085 L656.835584,85.3860155 L656.835584,90.8533541 L624.953189,128.243983 L603.338666,128.243983 L603.338666,122.777023 L635.093457,91.0025425 L615.039354,53.6111568 L615.039354,48.1441969 L631.850313,47.9950085 Z"/>
    <path fill="#2377BA" d="M636.781595,47.9949706 L656.835698,85.3863563 L624.953302,122.776985 L603.33878,122.776985 L635.09357,85.5355447 L615.039468,48.1445377 L636.781595,47.9949706 Z M597.177829,47.9949706 L617.231931,85.3859777 L585.349915,122.776606 L563.629749,122.776606 L569.544652,85.3859777 L575.435701,48.1445377 L597.177829,47.9949706 Z"/>
    <path fill="#94D2D3" d="M301.288486,103.769246 C300.562613,104.132372 299.745863,104.427341 298.840888,104.653017 C297.934776,104.880207 297.051005,105.0843 296.189954,105.264159 C295.327766,105.447426 294.442859,105.536409 293.537883,105.536409 C291.996396,105.536409 290.615078,104.904062 289.3909,103.63331 C288.168615,102.365209 287.55558,100.460595 287.55558,97.9221204 C287.55558,93.4828187 288.122041,89.5387922 289.256479,86.0938274 C290.387888,82.6503773 291.882801,79.9070524 293.741976,77.8680179 C295.59888,75.8286048 297.662148,74.8088983 299.928373,74.8088983 C300.925739,74.8088983 301.921212,74.8554723 302.919714,74.943698 C303.916701,75.0357101 304.868251,75.2625219 305.776255,75.6245121 L301.288486,103.769246 Z M330.741837,98.32917 L337.455694,57.5401509 L337.455694,52.073191 L336.386763,57.1910349 C334.557122,56.6045048 332.520738,56.0630342 330.249212,55.568895 C327.5305,54.980093 324.583461,54.4371078 321.41226,53.9376674 C318.23841,53.4401203 315.065695,53.0330707 311.894495,52.7138681 C308.720265,52.3976947 305.639562,52.2375254 302.648978,52.2375254 C293.403084,52.2375254 285.493448,54.0724671 278.921585,57.7446223 C272.349343,61.4148843 267.318968,66.9219812 263.829701,74.2643985 C260.339298,81.6064371 258.595232,91.0787649 258.595232,102.681761 C258.595232,108.664064 259.567986,113.69444 261.518416,117.773266 C263.466953,121.852092 266.141742,124.867288 269.54089,126.815825 C272.939281,128.763226 276.81515,129.739009 281.165091,129.739009 C283.885318,129.739009 286.421142,129.442904 288.779758,128.855238 C291.135723,128.266815 293.403084,127.405763 295.577297,126.271326 C297.753024,125.139538 299.792437,123.802144 301.69705,122.260657 C302.87314,123.891884 304.347606,125.275853 306.114769,126.407261 C307.883447,127.542078 309.830848,128.378896 311.962273,128.92226 C314.091426,129.466759 316.289494,129.739009 318.556098,129.739009 C321.003696,129.739009 323.519831,129.466759 326.102229,128.92226 C328.686142,128.378896 330.7017,127.74617 332.15269,127.018782 L333.921368,105.128223 L333.921368,99.6608848 L333.472288,105.215313 C333.275011,105.245226 333.083413,105.264159 332.901282,105.264159 L332.016376,105.264159 C331.381378,105.264159 330.906171,105.0843 330.589619,104.721174 C330.270795,104.359562 330.113277,103.816198 330.113277,103.08881 C330.113277,102.908573 330.158336,102.456085 330.249212,101.729833 C330.332894,101.053184 330.498743,99.9157168 330.741837,98.32917 L330.741837,98.32917 Z M239.831572,97.5146922 L243.638148,75.4881978 L256.692134,75.4881978 L260.498331,53.597639 L260.498331,48.1306791 L259.547918,53.597639 L247.309925,53.597639 L248.120237,48.1306791 L249.485652,38.9131832 L249.485652,33.4458446 L248.675718,38.9131832 L224.603752,38.9131832 L218.892562,53.597639 L210.326346,55.2284879 L207.745841,70.0212379 L206.792019,70.0212379 L206.792019,75.4881978 L214.95005,75.4881978 L211.00716,99.6907982 C210.642898,101.776407 210.372162,103.972203 210.19041,106.284244 C210.007522,108.595907 209.919296,110.567163 209.919296,112.199527 C209.919296,116.821717 210.803067,120.404132 212.57023,122.939956 C214.337393,125.478431 216.649056,127.247109 219.504083,128.24296 C222.360625,129.239948 225.508727,129.739009 228.954071,129.739009 C232.851145,129.739009 236.477483,129.419807 239.831572,128.787081 C243.184524,128.15322 246.582536,127.201671 250.029016,125.930919 L252.068429,103.496996 L252.068429,98.0304146 L251.564823,103.571211 C249.892702,103.81847 248.515927,104.064972 247.446239,104.31261 C246.266363,104.58486 245.178499,104.721174 244.183026,104.721174 C242.640025,104.721174 241.508237,104.336843 240.7835,103.565153 C240.057248,102.796492 239.695636,101.776407 239.695636,100.506033 C239.695636,100.053546 239.717219,99.577203 239.763793,99.0777626 C239.807717,98.5813514 239.831572,98.0580561 239.831572,97.5146922 L239.831572,97.5146922 Z M194.487384,53.3935462 C190.453996,52.6245065 185.898827,52.2375254 180.822634,52.2375254 C175.385209,52.2375254 170.489255,52.8501824 166.139315,54.0728457 C161.788238,55.296645 158.069888,57.0880419 154.989564,59.4436284 C151.907346,61.8022441 149.527526,64.7023304 147.851239,68.1457805 C146.97542,69.945129 146.334364,71.8951806 145.916334,73.9898767 L145.369562,73.1477573 L145.369562,78.7143024 C145.351387,79.1747418 145.336998,79.6382103 145.336998,80.1103878 C145.336998,80.4068714 145.361989,80.6749561 145.369562,80.963488 L145.369562,81.5825821 L145.396068,81.6560403 C145.529731,84.5091739 146.01554,86.9802489 146.89969,89.0170114 C147.940979,91.4195506 149.323433,93.4146616 151.046673,94.9993151 C152.767262,96.5858618 154.650293,97.8539633 156.689706,98.8058914 C158.729119,99.7585767 160.768911,100.506033 162.807945,101.049397 C164.847358,101.593897 166.726981,102.092959 168.45022,102.545825 C170.171945,102.999449 171.554399,103.47617 172.596825,103.972203 C173.638115,104.472779 174.16141,105.175176 174.16141,106.080151 C174.16141,106.53529 173.934219,106.943475 173.481732,107.303951 C173.026972,107.667077 172.394247,107.939327 171.577118,108.119186 C170.761505,108.302453 169.719079,108.391814 168.45022,108.391814 C166.274493,108.391814 163.759873,108.211198 160.904846,107.848072 C158.048683,107.48646 155.21524,106.987399 152.406787,106.352023 C149.595683,105.719297 147.104161,104.993424 144.928434,104.176674 L140.027936,119.376474 L138.265316,119.376474 L138.265316,124.843055 C142.525895,126.295559 146.945128,127.474299 151.523394,128.378896 C156.098632,129.283871 161.333479,129.739009 167.227178,129.739009 C170.671007,129.739009 174.069398,129.466759 177.424622,128.92226 C180.775682,128.378896 183.927571,127.474299 186.874231,126.203547 C189.81862,124.935446 192.425252,123.191001 194.691476,120.9687 C196.956944,118.749049 198.724107,116.006103 199.994481,112.742891 C201.262582,109.479299 201.897958,105.583362 201.897958,101.049397 L201.897958,95.5824373 L201.38678,95.652109 C201.130433,94.3805997 200.79154,93.1980733 200.334888,92.1442882 C199.291326,89.742885 197.908493,87.7932121 196.188283,86.2967843 C194.465043,84.801871 192.561187,83.6019267 190.476715,82.6946794 C188.390728,81.7893254 186.307012,81.0861709 184.222161,80.5867305 C182.136174,80.0903193 180.232696,79.7033383 178.512486,79.4310883 C176.789246,79.1588384 175.406414,78.8195673 174.365503,78.4113818 C173.321562,78.0028176 172.801296,77.4836874 172.801296,76.8483114 C172.801296,76.3038116 173.005389,75.8513239 173.413575,75.4885764 C173.820624,75.1265863 174.433281,74.855851 175.248895,74.672584 C176.064509,74.4912103 177.10542,74.4003341 178.37655,74.4003341 C180.279649,74.4003341 182.408424,74.5366484 184.766661,74.8088983 C187.122626,75.0796336 189.525165,75.4427597 191.973143,75.895626 C194.419605,76.3503856 196.640392,76.9391876 198.634746,77.6639252 L205.16117,56.3163516 L205.16117,56.3163516 L205.16117,50.8493917 L203.655276,55.7745023 C200.934292,54.838099 197.880852,54.0425537 194.487384,53.3935462 L194.487384,53.3935462 Z M139.76288,68.5539661 L139.76288,63.0870062 L138.980209,63.0279366 C138.198674,60.4887045 136.835909,58.3372108 134.86844,56.5878442 C131.605228,53.6877579 127.070885,52.2367681 121.271848,52.2367681 C118.823871,52.2367681 116.353553,52.4878136 113.861652,52.9857393 C111.368237,53.4848011 108.876336,54.3004148 106.383299,55.432202 C103.889884,56.5666398 101.420702,58.0842721 98.9738608,59.9877495 L99.9257889,53.5968817 L73.9560253,53.5968817 L62.865344,122.911557 L61.990282,122.911557 L61.990282,128.378517 L90.6802729,128.378517 L90.6802729,128.378517 L98.7019896,78.6147173 C99.4267272,78.2531058 100.196903,77.9142133 101.013653,77.5950107 C101.828888,77.2788373 102.644501,77.0505109 103.460115,76.9157112 C104.27535,76.7797756 105.045526,76.7116185 105.771778,76.7116185 C107.03988,76.7116185 107.991429,76.9622853 108.626426,77.4590751 C109.260667,77.9581368 109.578355,78.8419077 109.578355,80.1100092 C109.578355,80.7450065 109.463245,81.8783083 109.239462,83.5091572 L102.934548,122.911557 L102.059865,122.911557 L102.059865,128.378517 L130.275027,128.378517 L138.052893,80.5155442 L138.052893,80.5136509 L139.35583,72.496478 C139.626944,70.5933792 139.76288,69.2798396 139.76288,68.5539661 L139.76288,68.5539661 Z M40.8566462,45.3566835 C43.1683092,47.306735 46.7707927,48.2798675 51.6667472,48.2798675 C55.6531826,48.2798675 59.076943,47.4881087 61.9315912,45.9011833 C64.786618,44.3153938 67.0062689,42.1173261 68.5931943,39.3062227 C69.9392978,36.9229947 70.7083376,34.2406326 70.9124303,31.2674667 L70.9169741,31.2568644 L70.9173528,31.211805 C70.9506741,30.6998691 70.9730144,30.1818749 70.9730144,29.6525211 C70.9730144,29.3397555 70.9525673,29.0436506 70.936664,28.7441379 L70.9730144,24.1855612 L69.9635315,24.3972269 C69.3766228,23.0878525 68.5416978,21.9791631 67.4375521,21.0874405 C65.080451,19.1828271 61.4552485,18.2312777 56.5611872,18.2312777 C52.1188563,18.2312777 48.4925177,19.0707464 45.682929,20.7470334 C42.8733402,22.424835 40.7661486,24.6460005 39.3617329,27.4101512 C38.7661152,28.5809394 38.3049186,29.8160982 37.961861,31.1080547 L37.2541627,31.2568644 L37.2541627,36.7238244 C37.3423883,40.5304006 38.5446045,43.4092825 40.8566462,45.3566835 L40.8566462,45.3566835 Z M64.3034596,48.1303004 L63.4389999,53.5972604 L21.9835554,53.5972604 L19.2292497,70.0208592 L18.3121575,70.0208592 L18.3121575,75.4878191 L32.2885363,75.4878191 L24.7867071,122.911557 L23.9218688,122.911557 L23.9218688,128.378517 L52.4755453,128.378517 L64.3034596,53.5972604 L64.3034596,48.1303004 Z"/>
    <path fill="#F2A543" d="M482.624117,48.1304897 L481.759657,53.5974497 L454.071955,53.5974497 L443.107364,122.911747 L442.242526,122.911747 L442.242526,128.379085 L470.795824,128.379085 L482.624117,53.5974497 L482.624117,48.1304897 Z M557.300866,62.8929476 C556.518952,60.3537155 555.156567,58.2022218 553.189097,56.4528552 C549.925506,53.5527689 545.39192,52.1017791 539.592505,52.1017791 C537.144528,52.1017791 534.673831,52.3528246 532.182309,52.8503717 C529.688894,53.3498121 527.196993,54.1654258 524.703578,55.297213 C522.210541,56.4316508 519.740981,57.9492831 517.294518,59.8523819 L518.246446,53.4618927 L492.276682,53.4618927 L481.185622,122.776568 L480.311318,122.776568 L480.311318,128.243149 L509.000551,128.243149 L517.022647,78.4797283 C517.747384,78.1177381 518.517181,77.7792243 519.333931,77.4600217 C520.149923,77.1438483 520.965159,76.9155219 521.780772,76.7807222 C522.596007,76.6447866 523.366562,76.5762508 524.092435,76.5762508 C525.360158,76.5762508 526.312086,76.8272963 526.947462,77.3240861 C527.581324,77.8231478 527.899012,78.7065401 527.899012,79.9746415 C527.899012,80.6096389 527.78428,81.7433193 527.560119,83.3741682 L521.255205,122.776568 L520.380522,122.776568 L520.380522,128.243149 L548.596063,128.243149 L556.37355,80.3805552 L556.373929,80.3782833 L557.676487,72.361489 C557.947601,70.4580115 558.083537,69.1448506 558.083537,68.4185984 L558.083537,62.9516385 L557.300866,62.8929476 Z M446.322488,53.5974497 L446.322488,48.1304897 L443.731759,53.5974497 L419.401554,53.5974497 C419.309163,56.9515383 419.038427,60.351065 418.58594,63.7948938 C418.130802,67.2409945 417.566233,70.6617256 416.885798,74.0601164 C416.20612,77.4596431 415.458663,80.8591698 414.641913,84.2571818 C413.826678,87.6567085 412.942907,91.0350308 411.990979,94.3876048 C411.03943,97.7416933 410.063647,101.096161 409.068174,104.448735 L411.650951,53.5974497 L411.650951,48.1304897 L411.373021,53.5974497 L379.835198,53.5974497 C378.656837,59.9428794 377.432659,65.926319 376.163421,71.5454966 C374.894184,77.1661887 373.580644,82.6501879 372.220909,87.9971156 C370.861932,93.3466938 369.455244,98.8299357 368.005769,104.448735 L370.996731,53.5974497 L370.996731,48.1304897 L370.675257,53.5974497 L343.332884,53.5974497 L343.123869,48.1304897 L343.123869,53.5974497 L345.98041,128.379085 L380.650433,128.379085 C381.466425,125.298382 382.351332,122.055996 383.302503,118.656848 C384.254431,115.258457 385.159406,111.837726 386.021594,108.391246 C386.882267,104.948175 387.674026,101.593708 388.401414,98.3304953 C389.124637,95.0669043 389.760013,92.0316396 390.304513,89.2212935 L389.720255,122.911747 L389.625592,122.911747 L389.625592,128.379085 L422.120266,128.379085 C424.657605,122.939767 427.104068,117.592839 429.462683,112.334516 C431.81827,107.0796 433.993619,101.889055 435.989108,96.7659103 C437.982326,91.6461731 439.749489,86.637002 441.292112,81.7429407 C442.832464,76.8481221 444.056263,72.0445583 444.962374,67.3303561 C445.867728,62.6176685 446.322488,58.039402 446.322488,53.5974497 L446.322488,53.5974497 Z M459.177303,45.3568728 C461.489345,47.3069243 465.09145,48.2800568 469.987026,48.2800568 C473.97384,48.2800568 477.397221,47.4886767 480.252248,45.9013726 C483.107275,44.3159618 485.326926,42.1175154 486.913851,39.3067907 C488.499641,36.4983378 489.293672,33.2790489 489.293672,29.6527104 L489.293672,24.1857505 L488.284189,24.3974163 C487.69728,23.0884205 486.861976,21.9793524 485.757831,21.0880085 C483.401108,19.183395 479.775906,18.2318456 474.881466,18.2318456 C470.439513,18.2318456 466.813175,19.0709358 464.003586,20.7476014 C461.193997,22.425403 459.086427,24.6461898 457.68239,27.4103405 C457.086772,28.5815074 456.625576,29.8162876 456.282897,31.1086227 L455.57482,31.2570538 L455.57482,36.7240137 C455.663045,40.53059 456.86564,43.4094718 459.177303,45.3568728 L459.177303,45.3568728 Z"/>
    <path fill="url(#instawin-logo-b)" d="M482.624003,48.1303004 L470.796089,122.911557 L442.242412,122.911557 L454.071841,48.1303004 L482.624003,48.1303004 Z M370.996996,48.1303004 L368.005655,98.9815853 L368.624225,96.5817033 C369.856068,91.7985955 371.055958,87.115319 372.220796,82.5299663 L372.220796,82.5299663 L372.800836,80.2300349 C373.955202,75.6133921 375.07539,70.8960834 376.163308,66.0783473 L376.163308,66.0783473 L376.479678,64.6659654 C377.636257,59.459416 378.75492,53.9469443 379.835084,48.1303004 L379.835084,48.1303004 L411.650459,48.1303004 L409.06806,98.9815853 L410.0569,95.6284784 C410.711573,93.392784 411.356878,91.1566408 411.991244,88.9208341 L411.991244,88.9208341 L412.554037,86.9059425 C413.293576,84.2155833 413.989687,81.5099568 414.642178,78.7900326 L414.642178,78.7900326 L415.12374,76.7510587 C415.754821,74.032225 416.341942,71.3126642 416.885684,68.5933458 L416.885684,68.5933458 L417.170224,67.1355149 C417.725192,64.2170778 418.195708,61.2818697 418.585826,58.3277445 L418.585826,58.3277445 L418.746995,57.0384031 C419.103205,54.0348268 419.320551,51.0654593 419.401061,48.1303004 L419.401061,48.1303004 L446.322374,48.1303004 L446.315415,49.084303 C446.25511,53.2273031 445.802947,57.4871398 444.962261,61.8632068 L444.962261,61.8632068 L444.729195,63.04362 C443.850303,67.3786341 442.703988,71.7888428 441.291999,76.2754128 L441.291999,76.2754128 L440.822474,77.7471935 C439.393686,82.1728683 437.782928,86.6914141 435.989373,91.2995183 L435.989373,91.2995183 L435.232617,93.2235849 C433.447142,97.7204593 431.523708,102.268937 429.46257,106.866988 L429.46257,106.866988 L428.446486,109.126249 C426.403481,113.655539 424.295339,118.249609 422.120153,122.911557 L422.120153,122.911557 L389.6251,122.911557 L390.304778,83.7541443 L390.119804,84.6994737 C389.617625,87.2424903 389.044208,89.9627549 388.401679,92.8637247 L388.401679,92.8637247 L388.032441,94.5027654 C387.408079,97.247186 386.738708,100.054934 386.021481,102.924476 L386.021481,102.924476 L385.366811,105.504395 C384.704036,108.079688 384.016714,110.641189 383.302768,113.189698 L383.302768,113.189698 L382.949066,114.457129 C382.131075,117.397201 381.36436,120.216274 380.650698,122.911557 L380.650698,122.911557 L345.980675,122.911557 L343.123755,48.1303004 L370.996996,48.1303004 Z M539.592391,46.6350085 L540.116091,46.6390046 C545.665047,46.7242557 550.024289,48.1735125 553.188983,50.9860846 L553.188983,50.9860846 L553.481176,51.2528592 C556.549916,54.1303787 558.083423,58.0294595 558.083423,62.9518278 L558.083423,62.9518278 L558.081831,63.0948788 C558.065905,63.8445311 557.930567,65.1102083 557.676753,66.8947184 L557.676753,66.8947184 L548.59595,122.776379 L520.380408,122.776379 L527.560006,77.9073976 L527.603382,77.5878619 C527.799003,76.1276548 527.899277,75.1008885 527.899277,74.5078709 L527.899277,74.5078709 L527.895041,74.2593752 C527.855511,73.1236432 527.539306,72.3227278 526.947349,71.8569368 L526.947349,71.8569368 L526.795104,71.7467386 C526.163654,71.3233888 525.262527,71.1094802 524.092322,71.1094802 L524.092322,71.1094802 L523.651475,71.117656 C523.056576,71.1394542 522.433225,71.2048245 521.781037,71.313573 L521.781037,71.313573 L521.373073,71.3888999 C520.693184,71.5273003 520.013559,71.7297733 519.334196,71.9932511 L519.334196,71.9932511 L518.730189,72.2362325 C518.134985,72.4831069 517.566086,72.741749 517.022533,73.0129577 L517.022533,73.0129577 L509.000438,122.776379 L480.311204,122.776379 L492.276947,47.9951221 L518.246332,47.9951221 L517.294783,54.3859899 L517.859681,53.953574 C520.120938,52.251298 522.402199,50.8776157 524.703464,49.8304424 L524.703464,49.8304424 L525.383537,49.5295268 C527.650278,48.5526619 529.915454,47.8376378 532.182196,47.3836011 C534.674096,46.8856753 537.144793,46.6350085 539.592391,46.6350085 L539.592391,46.6350085 Z M474.881352,12.7646964 L475.366565,12.7678695 C480.016063,12.8292164 483.479552,13.7800989 485.757717,15.6208592 L485.757717,15.6208592 L485.997426,15.8211272 C488.195441,17.7219879 489.293937,20.5102461 489.293937,24.1855612 L489.293937,24.1855612 L489.288533,24.7008916 C489.216484,28.1179457 488.424013,31.1653031 486.913738,33.84002 L486.913738,33.84002 L486.682732,34.2373869 C485.114011,36.8587297 482.971587,38.9246689 480.252513,40.4342233 L480.252513,40.4342233 L479.876894,40.6367948 C477.098704,42.0891935 473.800386,42.8129075 469.986912,42.8129075 L469.986912,42.8129075 L469.5017,42.8096649 C464.852959,42.7469714 461.411797,41.775152 459.17719,39.8901022 L459.17719,39.8901022 L458.933756,39.6778865 C456.781048,37.735857 455.659781,34.9274916 455.574706,31.2568644 L455.574706,31.2568644 L455.580534,30.7158201 C455.650476,27.4865757 456.349984,24.5636539 457.682276,21.9431912 L457.682276,21.9431912 L457.887639,21.552058 C459.288627,18.9691118 461.327692,16.8783584 464.003851,15.2804522 C466.813061,13.6041652 470.4394,12.7646964 474.881352,12.7646964 L474.881352,12.7646964 Z"/>
    <path fill="#FFF" d="M302.648978,46.7703761 C305.639562,46.7703761 308.720265,46.9305454 311.894495,47.2470975 C315.065695,47.5659214 318.23841,47.972971 321.41226,48.4708968 C324.583461,48.9699585 327.5305,49.5133224 330.249212,50.1021243 C332.967925,50.6931982 335.369328,51.3486427 337.455694,52.0733803 C336.095202,59.9599187 334.984619,66.6219005 334.123946,72.0604616 C333.261379,77.49978 332.560875,81.829273 332.016376,85.0447755 C331.47339,88.2640644 331.064826,90.7559651 330.793712,92.5231283 C330.521462,94.2914275 330.338953,95.5383245 330.249212,96.2630621 C330.158336,96.9889356 330.113277,97.4418019 330.113277,97.6216611 C330.113277,98.3490492 330.270417,98.8924131 330.589619,99.2540246 C330.906171,99.6171507 331.381378,99.7973884 332.016376,99.7973884 L332.901282,99.7973884 C333.217456,99.7973884 333.556727,99.7530863 333.921368,99.6610741 L332.15269,121.551633 C330.7017,122.279021 328.686142,122.911747 326.102229,123.45511 C323.519831,123.99961 321.003696,124.27186 318.556098,124.27186 C316.289494,124.27186 314.091426,123.99961 311.962273,123.45511 C309.830848,122.911747 307.883447,122.074928 306.114769,120.940491 C304.347606,119.808703 302.87314,118.424735 301.69705,116.793507 C299.792437,118.334995 297.753024,119.672768 295.577297,120.804555 C293.403084,121.938993 291.135723,122.799666 288.779758,123.388468 C286.421142,123.975755 283.885318,124.27186 281.165091,124.27186 C276.81515,124.27186 272.939281,123.296456 269.54089,121.348676 C266.141742,119.400518 263.466953,116.385322 261.518416,112.306117 C259.567986,108.227291 258.595232,103.196915 258.595232,97.2146115 C258.595232,85.6119943 260.339298,76.1396665 263.829701,68.7972492 C267.318968,61.454832 272.349343,55.9481137 278.921585,52.2774731 C285.493448,48.6056965 293.403084,46.7703761 302.648978,46.7703761 Z M249.485917,33.4461096 L247.31019,48.1305655 L260.498596,48.1305655 L256.69202,70.0211243 L243.638413,70.0211243 L239.831837,92.0479973 C239.831837,92.5913612 239.807603,93.1146566 239.76368,93.6106891 C239.717106,94.1097508 239.695522,94.5864721 239.695522,95.0393385 C239.695522,96.3097118 240.057134,97.3294184 240.783386,98.0984581 C241.508124,98.8697697 242.64029,99.2537216 244.182913,99.2537216 C245.178764,99.2537216 246.266628,99.117786 247.446125,98.8455361 C248.621836,98.5736648 250.165216,98.3025509 252.068315,98.030301 L250.028902,120.463845 C246.582801,121.734976 243.184411,122.686146 239.831837,123.320386 C236.477369,123.953112 232.851031,124.271936 228.953957,124.271936 C225.508614,124.271936 222.360511,123.772495 219.50397,122.775887 C216.648943,121.780035 214.33728,120.011736 212.570117,117.472882 C210.803332,114.93668 209.919561,111.354265 209.919561,106.732453 C209.919561,105.10009 210.007408,103.128834 210.190297,100.816792 C210.372049,98.5055077 210.643163,96.3097118 211.007425,94.223346 L214.950315,70.0211243 L206.792284,70.0211243 L210.326611,49.7614144 L218.892827,48.1305655 L224.604017,33.4461096 L249.485917,33.4461096 Z M180.822975,46.7704897 C185.898789,46.7704897 190.453958,47.1574708 194.487346,47.9265106 C198.519598,48.6978222 202.077779,49.6732266 205.161133,50.8493159 L198.634708,72.1968895 C196.640354,71.4721519 194.419567,70.8833499 191.973105,70.4282117 C189.525127,69.975724 187.122588,69.6129766 184.767002,69.3418626 C182.408386,69.0696127 180.279611,68.9332984 178.376513,68.9332984 C177.105382,68.9332984 176.064471,69.0241746 175.248857,69.2055483 C174.433622,69.3884367 173.820586,69.6595506 173.413537,70.0211621 C173.005351,70.3842882 172.801258,70.8367759 172.801258,71.3812757 C172.801258,72.0166517 173.321525,72.5357819 174.365465,72.9443461 C175.406376,73.3525317 176.789208,73.6918028 178.512448,73.9640527 C180.232659,74.2363026 182.136136,74.6232837 184.222123,75.1196949 C186.306974,75.6187566 188.39069,76.3222897 190.476677,77.2276437 C192.561528,78.134891 194.465005,79.3348353 196.188245,80.8297486 C197.908456,82.3257978 199.291288,84.2758493 200.33485,86.6772526 C201.376139,89.0794131 201.89792,92.0480352 201.89792,95.5823616 C201.89792,100.116326 201.262544,104.012264 199.994443,107.275855 C198.724069,110.539067 196.956906,113.281635 194.691817,115.501664 C192.425214,117.723966 189.818582,119.46841 186.874193,120.736511 C183.927154,122.006885 180.776022,122.91186 177.424584,123.454845 C174.06936,123.999724 170.670969,124.271974 167.22714,124.271974 C161.333441,124.271974 156.098594,123.816835 151.523357,122.91186 C146.94509,122.006885 142.525857,120.828524 138.265278,119.376398 L144.928396,98.7096383 C147.104123,99.5263881 149.595646,100.252262 152.406749,100.884987 C155.215202,101.520363 158.048645,102.019425 160.904808,102.381415 C163.759835,102.744162 166.274455,102.924779 168.450182,102.924779 C169.719041,102.924779 170.761467,102.835039 171.577459,102.65215 C172.394209,102.471912 173.026934,102.200041 173.481694,101.836915 C173.934182,101.47644 174.161372,101.067875 174.161372,100.612737 C174.161372,99.7081404 173.638077,99.0057432 172.596787,98.5055456 C171.554361,98.0087557 170.171907,97.5324131 168.450182,97.0784108 C166.726943,96.6259231 164.84732,96.1268614 162.807907,95.5823616 C160.768873,95.0393763 158.729081,94.2915411 156.689668,93.338477 C154.650255,92.3869276 152.767224,91.1188262 151.046635,89.5322794 C149.323396,87.9476259 147.940942,85.952515 146.899652,83.5499758 C145.857226,81.1485725 145.33696,78.1788145 145.33696,74.6433522 C145.33696,70.1120383 146.173778,66.1252243 147.851201,62.6791235 C149.527488,59.2352947 151.907309,56.3352084 154.989526,53.9765927 C158.06985,51.6210062 161.788201,49.8296094 166.139277,48.6058101 C170.489595,47.3831467 175.385171,46.7704897 180.822975,46.7704897 Z M121.271924,46.7701868 C127.07096,46.7701868 131.605303,48.220798 134.868516,51.1212629 C138.131728,54.0228638 139.762956,58.0111925 139.762956,63.0870062 C139.762956,63.8132583 139.626641,65.1264192 139.355906,67.0298967 L139.355906,67.0298967 L130.275103,122.911557 L102.05994,122.911557 L109.239159,78.0425759 C109.46332,76.4113484 109.57843,75.2784253 109.57843,74.6430493 C109.57843,73.3749478 109.260742,72.4915555 108.626502,71.9921152 C107.991505,71.495704 107.039955,71.2446585 105.771854,71.2446585 C105.045602,71.2446585 104.275426,71.3128157 103.460191,71.4491299 C102.644199,71.5839296 101.828963,71.812256 101.013728,72.1284294 C100.196979,72.4472534 99.4264243,72.7861458 98.7016867,73.148136 L98.7016867,73.148136 L90.6803486,122.911557 L61.9903578,122.911557 L73.956101,48.1303004 L99.9258646,48.1303004 L98.9739366,54.5207896 C101.420778,52.6176908 103.88996,51.1000585 106.382996,49.9652421 C108.876033,48.8334549 111.368312,48.0182198 113.861349,47.5187794 C116.353629,47.0208536 118.823946,46.7701868 121.271924,46.7701868 Z M64.3034218,48.1299596 L52.4755074,122.911595 L23.9214522,122.911595 L32.2884985,70.0208971 L18.3121196,70.0208971 L21.9835176,48.1299596 L64.3034218,48.1299596 Z M299.928373,69.341749 C297.662148,69.341749 295.59888,70.3614556 293.741976,72.4008687 C291.882801,74.4402818 290.387888,77.183228 289.256479,80.6266782 C288.122041,84.071643 287.55558,88.0156695 287.55558,92.4553498 C287.55558,94.9938247 288.168615,96.8984381 289.3909,98.1665395 C290.615078,99.4369129 291.996396,100.069638 293.537883,100.069638 C294.442859,100.069638 295.327766,99.9802767 296.189954,99.7973884 C297.051005,99.6171507 297.934776,99.4130579 298.840888,99.1858674 C299.745863,98.9601916 300.562613,98.6656012 301.288486,98.3024752 L305.776255,70.1573628 C304.868251,69.7957513 303.916701,69.5685608 302.919714,69.4765487 C301.921212,69.3887017 300.925739,69.341749 299.928373,69.341749 Z M56.5611493,12.7643556 C61.4552106,12.7643556 65.0804132,13.715905 67.4375143,15.6205184 C69.7946154,17.5236172 70.9729766,20.3786441 70.9729766,24.185599 C70.9729766,27.8119375 70.1793246,31.0312264 68.5931564,33.8393006 C67.0066097,36.650404 64.7865802,38.8484718 61.9315533,40.4342612 C59.0769051,42.0211866 55.6531448,42.8129454 51.6667094,42.8129454 C46.7707548,42.8129454 43.1686499,41.8398129 40.8566083,39.8897614 C38.5449453,37.9423604 37.3423504,35.0634786 37.2541248,31.2565237 C37.2541248,27.8119375 37.9550074,24.7088944 39.361695,21.9432291 C40.7661108,19.1790784 42.8733023,16.957913 45.6828911,15.2801114 C48.4924799,13.6038244 52.1188184,12.7643556 56.5611493,12.7643556 Z"/>
  </g>
</svg>
