<svg width="230" height="115" xmlns="http://www.w3.org/2000/svg"><g fill-rule="nonzero" fill="none"><path d="M205.992 7.354a27.229 27.229 0 0 1 10.616 1.864 20.48 20.48 0 0 1 7.62 5.324 20.833 20.833 0 0 1 4.397 8.247 28.32 28.32 0 0 1 .701 10.8c-.66 6.157-3.083 10.922-7.27 14.294-4.188 3.372-9.45 5.078-15.784 5.118-6.335.036-11.618-1.604-15.848-4.92-4.23-3.318-6.713-8.043-7.446-14.177a28.145 28.145 0 0 1 .573-10.808 20.778 20.778 0 0 1 4.298-8.33 20.462 20.462 0 0 1 7.56-5.415 27.215 27.215 0 0 1 10.583-1.997zm4.055 18.665c.064-1.869-.274-3.288-1.013-4.256a3.716 3.716 0 0 0-5.906.037c-.733.975-1.049 2.4-.962 4.265 0 1.79.414 3.093 1.242 3.908a3.629 3.629 0 0 0 5.443-.036c.806-.82 1.205-2.13 1.196-3.918zM150.279 7.4c5.168 0 9.72.827 13.653 2.483a26.418 26.418 0 0 1 9.773 6.913 26.821 26.821 0 0 1 5.613 10.694c1.142 4.166 1.415 8.804.82 13.915-.898 7.92-4.057 14.029-9.475 18.326-5.419 4.298-12.213 6.456-20.384 6.474-8.159 0-14.949-2.155-20.37-6.465-5.422-4.31-8.58-10.418-9.475-18.326-.611-5.116-.336-9.755.825-13.915a26.697 26.697 0 0 1 5.608-10.703 26.345 26.345 0 0 1 9.772-6.913c3.928-1.653 8.475-2.48 13.64-2.484zm5.086 24.062c.094-2.404-.327-4.236-1.265-5.498a4.779 4.779 0 0 0-7.61 0c-.95 1.25-1.375 3.082-1.274 5.498 0 2.31.522 3.99 1.567 5.04a4.682 4.682 0 0 0 7.015 0c1.044-1.054 1.567-2.734 1.567-5.04zM34.473 59.562c-.33-8.962-.008-15.923.966-20.884.975-4.96 2.432-8.613 4.371-10.959-8.418 4.887-13.516 10.08-15.293 15.578-1.778 5.498-.442 10.996 4.008 16.494 2.502 3.051 3.702 5.81 3.574 8.293a8.43 8.43 0 0 1-2.749 6.066c-1.698 1.567-3.964 2.636-6.799 3.207a20.026 20.026 0 0 1-8.49-.133 18.198 18.198 0 0 1-7.825-4.04c-2.383-2.05-4.02-4.902-4.912-8.555a30.628 30.628 0 0 1 .362-15.98c1.527-5.352 4.4-10.485 8.618-15.4 4.218-4.914 9.716-9.525 16.494-13.832 6.793-4.307 14.842-8.114 24.146-11.422 9.316-3.192 17.534-5.338 24.654-6.437 7.12-1.1 13.228-1.38 18.326-.843 5.095.516 9.283 1.755 12.563 3.715a21.919 21.919 0 0 1 7.523 7.111 19.784 19.784 0 0 1 2.97 9.2 30.885 30.885 0 0 1-.967 10.117 23.156 23.156 0 0 1-3.945 8.155 38.216 38.216 0 0 1-6.231 6.46 52.346 52.346 0 0 1-7.331 5.04 73.055 73.055 0 0 1-7.253 3.55c2.786.011 5.53.683 8.004 1.962a16.439 16.439 0 0 1 6.415 5.869c1.701 2.611 2.77 5.83 3.207 9.658.437 3.827-.11 8.178-1.64 13.053a41.996 41.996 0 0 1-7.523 14.158 42.756 42.756 0 0 1-11.409 9.855 45.817 45.817 0 0 1-14.006 5.351 48.974 48.974 0 0 1-15.294.715 52.094 52.094 0 0 1-15.165-4.124 50.48 50.48 0 0 1-13.745-9.007c-3.72-3.394-6.248-6.677-7.583-9.85-1.334-3.174-1.901-5.784-1.7-7.83.202-2.044.95-3.306 2.246-3.785 1.295-.48 2.75.284 4.366 2.29a30.913 30.913 0 0 0 6.872 6.332 40.452 40.452 0 0 0 8.435 4.371c-2.107-2.7-3.94-6.701-5.498-12.004-1.558-5.302-2.478-12.474-2.762-21.515zm26.18-40.319c3.112 0 5.355.583 6.73 1.75a7.44 7.44 0 0 1 2.497 4.811 22.702 22.702 0 0 1-.326 7.184 201.95 201.95 0 0 1-1.832 8.806c5.931-1.604 10.634-3.589 14.107-5.956 3.473-2.367 5.806-4.774 7-7.22 1.198-2.444 1.35-4.723.459-6.837-.892-2.113-2.784-3.735-5.677-4.865-2.862-1.13-6.59-1.569-11.184-1.315-4.594.253-9.965 1.548-16.114 3.885a51.539 51.539 0 0 1 2.112-.17c.688-.04 1.43-.05 2.227-.05v-.023zm4.453 50.756c.067 2.11.12 4.042.16 5.796a15.211 15.211 0 0 1-.486 4.485 26.546 26.546 0 0 0 6.722-1.017 19.884 19.884 0 0 0 5.7-2.68 14.57 14.57 0 0 0 6.35-10.176c.287-2.181-.147-3.95-1.302-5.306a10.845 10.845 0 0 0-4.581-3.06 20.008 20.008 0 0 0-6.296-1.146 26.652 26.652 0 0 0-6.51.545 63.099 63.099 0 0 0-.106 6.506c.086 2.154.202 4.179.349 6.076v-.023z" fill="#A71BC9"/><path d="M137.647 85.613l-1.832 1.118a7.789 7.789 0 0 0-6.53-3.102 7.642 7.642 0 0 0-5.497 2.08 6.698 6.698 0 0 0-2.186 5.04 7.152 7.152 0 0 0 3.762 6.277 8.197 8.197 0 0 0 3.93.94 8.018 8.018 0 0 0 6.516-3.102l1.833 1.186a8.705 8.705 0 0 1-3.487 2.96 11.376 11.376 0 0 1-4.985 1.05 9.997 9.997 0 0 1-7.124-2.663 8.577 8.577 0 0 1-2.827-6.478 9.049 9.049 0 0 1 1.324-4.765 9.163 9.163 0 0 1 3.633-3.436 10.804 10.804 0 0 1 5.177-1.238 11.294 11.294 0 0 1 3.469.537 9.754 9.754 0 0 1 2.836 1.374 7.702 7.702 0 0 1 1.988 2.222zm22.148-3.67V99.61h-2.447v-3.037a10.584 10.584 0 0 1-3.51 2.616c-1.338.591-2.787.89-4.25.875a9.878 9.878 0 0 1-7.002-2.717 8.728 8.728 0 0 1-2.905-6.63 8.59 8.59 0 0 1 2.928-6.529 10.03 10.03 0 0 1 7.051-2.712 9.777 9.777 0 0 1 4.303.916c1.33.65 2.489 1.6 3.385 2.777V81.92l2.447.023zm-9.933 1.737a8.027 8.027 0 0 0-3.83.916 7.161 7.161 0 0 0-2.79 2.616 6.62 6.62 0 0 0 0 7.138 7.271 7.271 0 0 0 2.808 2.653 7.876 7.876 0 0 0 3.784.949 8.325 8.325 0 0 0 3.867-.94 6.941 6.941 0 0 0 2.814-2.547c.66-1.09 1-2.345.98-3.62a6.712 6.712 0 0 0-2.176-5.104 7.674 7.674 0 0 0-5.457-2.061zm25.699.192l-1.6 1.512c-1.328-1.179-2.628-1.768-3.898-1.768a3.12 3.12 0 0 0-2.076.728 2.195 2.195 0 0 0-.861 1.704 2.41 2.41 0 0 0 .71 1.64c.458.532 1.47 1.155 2.992 1.87 1.85.874 3.108 1.718 3.77 2.534a4.37 4.37 0 0 1 .976 2.776 4.783 4.783 0 0 1-1.667 3.688 6.025 6.025 0 0 1-4.179 1.508 7.853 7.853 0 0 1-3.207-.665 6.836 6.836 0 0 1-2.515-1.832l1.562-1.622c1.27 1.31 2.618 1.965 4.041 1.965a3.83 3.83 0 0 0 2.543-.88 2.607 2.607 0 0 0 1.049-2.061 2.51 2.51 0 0 0-.692-1.737c-.461-.5-1.506-1.128-3.134-1.883-1.74-.824-2.926-1.637-3.555-2.437a4.467 4.467 0 0 1 .559-6.09 5.498 5.498 0 0 1 3.794-1.332c1.796-.005 3.582.792 5.388 2.382zm5.722-9.19a2.075 2.075 0 0 1 1.448.55c.384.335.603.822.6 1.332.001.505-.218.985-.6 1.315a2.08 2.08 0 0 1-1.448.555 2.053 2.053 0 0 1-1.434-.555 1.732 1.732 0 0 1-.6-1.315 1.76 1.76 0 0 1 .6-1.333c.389-.362.903-.56 1.434-.55zm-1.223 7.261h2.488V99.61h-2.488V81.943zm8.096 0h2.487v3.166a10.08 10.08 0 0 1 3.304-2.721 8.705 8.705 0 0 1 3.94-.917 7.33 7.33 0 0 1 3.844 1.008 6.167 6.167 0 0 1 2.474 2.713c.538 1.136.805 2.906.802 5.31v9.094h-2.497v-8.42a19.12 19.12 0 0 0-.275-4.074 4.43 4.43 0 0 0-1.659-2.639 5.324 5.324 0 0 0-3.207-.884 6.488 6.488 0 0 0-4.04 1.374 6.378 6.378 0 0 0-2.356 3.382c-.232.873-.35 2.475-.352 4.806v6.478h-2.488l.023-17.676zm30.848-.458c2.77-.081 5.45.99 7.4 2.96a8.902 8.902 0 0 1-.152 12.851c-1.878 1.833-4.294 2.75-7.248 2.75-2.954 0-5.376-.917-7.267-2.75a8.884 8.884 0 0 1-.15-12.828 9.997 9.997 0 0 1 7.417-2.983zm0 2.227a7.523 7.523 0 0 0-5.329 2.094 6.845 6.845 0 0 0-1.21 8.64 6.873 6.873 0 0 0 2.75 2.557 8.426 8.426 0 0 0 7.587 0 6.873 6.873 0 0 0 2.75-2.556 6.831 6.831 0 0 0-1.22-8.641 7.541 7.541 0 0 0-5.328-2.094z" fill="#FFF"/></g></svg>