<svg xmlns="http://www.w3.org/2000/svg" width="98" height="30"><g fill="none" fill-rule="evenodd"><path fill="#FFF" d="M40.003 13.217h2.653V7.783l2.487 3.695h.055l2.5-3.722v5.461h2.696v-9.51h-2.863l-2.333 3.682-2.332-3.682h-2.863zm12.207 0h2.849l.698-1.698h3.771l.713 1.698h2.905L58.984 3.64h-2.612l-4.162 9.578zm4.343-3.75l1.104-2.703 1.09 2.703h-2.194zm12.11 3.913c2.374 0 3.952-1.154 3.952-3.097 0-1.807-1.396-2.514-3.645-2.99-1.355-.298-1.69-.489-1.69-.923 0-.367.321-.639.978-.639.865 0 1.844.326 2.737.938l1.355-1.862c-1.061-.829-2.36-1.264-4.022-1.264-2.347 0-3.785 1.278-3.785 3.044 0 1.984 1.605 2.554 3.687 3.016 1.326.3 1.648.517 1.648.91 0 .435-.391.68-1.118.68-1.13 0-2.206-.394-3.17-1.141l-1.508 1.752c1.2 1.047 2.85 1.577 4.58 1.577zm11.047.028c3.017 0 5.28-2.215 5.28-4.946 0-2.758-2.235-4.946-5.252-4.946s-5.279 2.215-5.279 4.946c0 2.758 2.234 4.946 5.251 4.946zm.028-2.378c-1.48 0-2.5-1.196-2.5-2.568 0-1.4.992-2.568 2.472-2.568 1.495 0 2.515 1.196 2.515 2.568 0 1.4-.992 2.568-2.487 2.568zm7.528 2.187h2.682V8l4.176 5.217h2.375v-9.51h-2.682v5.027l-4.022-5.027h-2.529zM44.584 26.062c2.374 0 3.952-1.155 3.952-3.098 0-1.807-1.396-2.514-3.645-2.99-1.355-.298-1.69-.488-1.69-.923 0-.367.321-.639.978-.639.866 0 1.843.326 2.737.938l1.355-1.862c-1.061-.828-2.36-1.263-4.022-1.263-2.347 0-3.785 1.277-3.785 3.043 0 1.984 1.606 2.555 3.687 3.017 1.327.298 1.648.516 1.648.91 0 .435-.391.68-1.117.68-1.132 0-2.207-.395-3.17-1.142l-1.51 1.753c1.202 1.046 2.85 1.576 4.582 1.576zm5.852-.163h7.444v-2.31h-4.734v-7.201h-2.71zm13.548.19c3.017 0 5.28-2.215 5.28-4.946 0-2.758-2.235-4.945-5.252-4.945s-5.28 2.214-5.28 4.945c0 2.758 2.235 4.946 5.252 4.946zm.028-2.378c-1.48 0-2.5-1.195-2.5-2.568 0-1.4.991-2.568 2.472-2.568 1.494 0 2.514 1.196 2.514 2.568 0 1.4-.992 2.568-2.486 2.568zm9.218 2.188h2.709v-7.201h2.934v-2.31h-8.576v2.31h2.933zm11.257.163c2.375 0 3.953-1.155 3.953-3.098 0-1.807-1.397-2.514-3.645-2.99-1.355-.298-1.69-.488-1.69-.923 0-.367.32-.639.977-.639.866 0 1.844.326 2.738.938l1.354-1.862c-1.061-.828-2.36-1.263-4.022-1.263-2.346 0-3.785 1.277-3.785 3.043 0 1.984 1.606 2.555 3.687 3.017 1.327.298 1.648.516 1.648.91 0 .435-.39.68-1.117.68-1.131 0-2.207-.395-3.17-1.142l-1.509 1.753c1.202 1.046 2.85 1.576 4.58 1.576z"/><path fill="#FFE100" d="M6.456 19.112l.152-.096c.263-.043.52-.097.768-.156.239-.057.466-.117.676-.194a.03.03 0 00.02-.036.031.031 0 00-.037-.02 5.38 5.38 0 01-.965.11 13.822 13.822 0 001.015-.721c.279-.044.562-.109.85-.194-.223.29-.464.59-.736.905a.045.045 0 00-.002.066c.017.019.047.02.066.002.61-.458 1.126-.882 1.582-1.297.219-.092.44-.192.66-.31-.103.127-.206.26-.308.398-.156.211-.31.433-.469.66-.378.54-.765 1.098-1.215 1.621a.046.046 0 00-.002.066c.017.019.047.02.066.002.674-.503 1.3-1.049 1.85-1.61.236-.24.453-.482.654-.718.345-.404.636-.788.92-1.08 1.339-1.42 2.595-2.256 3.823-2.66a6.374 6.374 0 012.813-.261l-.067-.2a6.78 6.78 0 00-2.844.137c-1.312.349-2.69 1.124-4.193 2.52a12.3 12.3 0 00-.956 1.038.03.03 0 00-.032-.004c-.148.06-.294.113-.44.16.205-.192.398-.378.579-.564.253-.262.479-.522.716-.756 1.404-1.484 2.954-2.32 4.546-2.718 1.821-.456 3.688-.347 5.435-.017.025.005.05-.01.055-.036a.045.045 0 00-.036-.055c-1.762-.423-3.654-.61-5.534-.247-1.701.328-3.388 1.106-4.964 2.58a13.73 13.73 0 00-.873.951c-.055.067-.109.136-.163.205a5.941 5.941 0 01-.267 0l.3-.302c.36-.356.722-.706 1.098-1.042.044-.008.088-.017.13-.027a.03.03 0 00.027-.035.033.033 0 00-.035-.026l-.025.002c.46-.405.942-.785 1.46-1.122 1.423-.912 3.269-1.502 5.183-1.764a17.45 17.45 0 012.778-.154c.97.024 1.907.134 2.768.312a.008.008 0 00.007-.005c0-.003-.001-.006-.004-.006-.86-.187-1.8-.298-2.77-.342-.916-.042-1.86-.02-2.794.068-1.969.184-3.888.668-5.394 1.52l-.102.059a5.42 5.42 0 01-.546.012 10.5 10.5 0 011.092-.681l.04-.01a.033.033 0 00.023-.024c1.561-.835 3.465-1.38 5.428-1.638a20.726 20.726 0 013.707-.148l.048.02c.085.037.168.085.26.09.083.005.126-.02.208-.039a.1.1 0 00.111-.029c.22.019.438.04.653.066.112.087.227.17.343.248.047.031.09.07.142.089.017.006.03.008.048.007.057-.006.046-.015.1-.034.062.038.143.02.181-.041a.13.13 0 00-.013-.156c.11.018.22.037.328.057.237.217.484.42.745.606.026.018.05.038.079.053a.898.898 0 00.127.049l.506.84c-.25-.034-.5-.077-.748-.126a.025.025 0 00-.03.018c-.004.013.004.026.018.03.267.085.537.159.808.23l.053.014.388.644-.183-.126c-.208-.141-.417-.28-.635-.405a7.03 7.03 0 00-1.544-.654c-.007-.002-.015.001-.017.008-.003.007 0 .014.008.017.39.18.736.393 1.07.619.24.162.468.333.699.504.345.255.688.515 1.045.773l.66 1.094a21.905 21.905 0 01-1.188-.702c.017.098.032.201.045.31.222.158.446.314.675.463.269.17.536.332.804.489l.596.988-.011-.005a10.098 10.098 0 01-.44-.185c0 .091-.001.182-.003.272.112.057.224.11.336.16.117.052.241.113.372.18l.433.718a9.02 9.02 0 00-1.159-.577l-.02.335.102.045a10.228 10.228 0 011.389.715l2.607 4.328-.398.149a9.317 9.317 0 01-.386-.433c-.018-.02-.033-.043-.053-.06-.037-.03-.074-.04-.115-.065a.092.092 0 00-.148.11c.013.048.016.089.037.134.019.04.05.072.076.106.084.11.173.218.265.323-.328.113-.638.208-.92.276-.03-.027-.061-.054-.092-.084a.066.066 0 00-.093-.015.066.066 0 00-.016.092l.022.048a3.844 3.844 0 01-.188.036c-.337.054-.673.116-1.008.184l.137.164c.3-.057.6-.11.901-.156a5.15 5.15 0 00.246-.044l.027.047c.037.058.082.11.125.163.153.192.317.377.489.556-.295.06-.57.11-.824.152l-.38.062.12.178.29-.045c.297-.043.625-.098.976-.163.236.232.486.453.745.666l-.045.004c-.532.04-1.062.094-1.59.16.036.065.073.131.109.2.127-.015.254-.028.382-.04v.003c-.028.063-.039-.012-.025.056.003.014.022.02.032.029.054.049.11.097.163.148.08.076.153.158.235.235.577.546 1.225 1.09 1.897 1.568.52.369 1.055.709 1.627.908.033.012.066.027.1.03.042.005.073-.005.114-.009a.06.06 0 10.039-.114c-.03-.027-.046-.054-.08-.076-.027-.019-.06-.029-.09-.042a8.692 8.692 0 01-1.59-.866c-.672-.465-1.293-1.028-1.901-1.529-.087-.071-.177-.134-.262-.204-.058-.047-.112-.096-.168-.143l-.003-.003a29.381 29.381 0 011.324-.1c.624.488 1.293.927 1.968 1.33l.112.065c.09.048.182.087.272.133l.044.023 1.342 2.228H.134l4.199-6.97c.457.067.894.063 1.314.007.833-.112 1.6-.433 2.303-.882.693-.442 1.327-.997 1.897-1.585.443-.456.845-.933 1.216-1.375.437-.521.826-1 1.182-1.35.472-.474.934-.875 1.385-1.214l-.336-.416c-.47.347-.946.762-1.436 1.246-.363.364-.766.855-1.207 1.4-.358.441-.745.916-1.16 1.386-.521.593-1.085 1.178-1.72 1.65-.645.48-1.352.856-2.145 1.013a4.36 4.36 0 01-1.258.063l1.729-2.87c.163-.041.33-.09.503-.146a.015.015 0 00.011-.018c-.002-.008-.01-.013-.018-.01a7.694 7.694 0 01-.422.052l.285-.474zm13.983 8.75c-1.98.398-3.863.685-5.614.653-1.35-.024-2.621-.235-3.8-.726-.223.017-.446.039-.67.063-1.252.133-2.54.346-4.125.446-.68.042-1.413.07-2.223.041-.002 0-.004-.002-.004-.004s.002-.004.004-.004c.81.008 1.542-.024 2.217-.096 1.58-.167 2.845-.516 4.09-.697l.131-.018-.003-.002a7.963 7.963 0 01-.933-.56l-.004-.003c-1.017.2-2.13.426-3.42.577a24.309 24.309 0 01-2.556.168.004.004 0 01-.004-.004c0-.003.002-.004.004-.004.445-.01.87-.032 1.278-.07.442-.043.864-.1 1.267-.17 1.164-.201 2.17-.495 3.099-.74a8.924 8.924 0 01-.826-.726c-.866.173-1.726.377-2.587.585-.412.1-.825.199-1.24.293-.275.062-.55.124-.829.18l-.004-.003c0-.002.001-.003.003-.004.277-.058.553-.12.827-.187.413-.102.822-.212 1.23-.327.819-.23 1.63-.48 2.452-.687l-.029-.03a.039.039 0 01.001-.054.04.04 0 01.055.002l.059.06c.178-.044.357-.086.537-.126a13.856 13.856 0 011.001-.18l-.004-.003a10.216 10.216 0 01-.658-.617l-.004-.005c-.568.139-1.127.309-1.686.484-.276.086-.552.175-.83.258-.298.088-.597.168-.897.249-.45.12-.904.224-1.357.335-.189.046-.376.096-.565.14-.001 0-.003 0-.004-.002 0-.002 0-.004.003-.004.192-.054.383-.108.573-.17.455-.149.898-.325 1.346-.495.15-.056.298-.113.448-.168.15-.054.3-.108.451-.16a22.346 22.346 0 012.353-.641l-.113-.124-.1-.113-.008-.009a.032.032 0 01-.006-.017v-.013l.005-.012.007-.008a.027.027 0 01.01-.006.037.037 0 01.029-.001.037.037 0 01.012.007l.009.01.074.083.17.184c.475-.097.955-.173 1.442-.219l-.005-.004c-.12-.09-.238-.18-.355-.274-.064-.05-.127-.102-.19-.153l-.188-.16-.013-.011a.038.038 0 01-.006-.013c-.001-.005-.002-.01-.001-.014 0-.004 0-.008.003-.012l.005-.01.01-.007c.008-.005.019-.007.028-.005.005.001.01.004.014.006l.01.009.143.12c.215.178.436.35.661.514l.005.004c.405-.034.814-.046 1.23-.032.024 0 .044.02.044.045 0 .024-.02.044-.046.044a10 10 0 00-1.058.064l.006.004a11.554 11.554 0 001.371.829l.167.012c.025 0 .045.022.044.048a.048.048 0 01-.02.035c1.721.84 3.452 1.112 5.195 1.054.415-.013.831-.046 1.247-.093l.121.104c-.455.052-.91.087-1.365.1-1.808.05-3.603-.248-5.385-1.16a13.422 13.422 0 00-1.945.142l-.096.014c.31.24.625.454.949.64.099-.01.197-.018.295-.025a6.27 6.27 0 012.022.17.067.067 0 01.053.08.068.068 0 01-.08.053c-.602-.096-1.184-.078-1.777-.005.945.46 1.947.718 3.003.827 1.535.158 3.185.004 4.945-.303l.125.108c-1.811.31-3.507.466-5.08.295-1.112-.12-2.163-.402-3.15-.906l-.026.004c-.256.035-.514.082-.777.13-.255.046-.514.093-.78.144l-.256.05c.318.215.645.403.98.567a8.73 8.73 0 012.045-.03c.595.06 1.214.186 1.882.395a.07.07 0 01.05.088.072.072 0 01-.088.05 9.745 9.745 0 00-1.864-.26c-.428-.018-.84-.005-1.25.02l-.149.01c1.122.436 2.327.622 3.6.64 1.717.022 3.558-.26 5.493-.655l.12.103zm1.113-.367l.126.107c-.294.064-.586.125-.876.185l-.137-.101c.294-.062.59-.126.887-.191zm1.208-.271l.14.11-.822.181-.137-.106.82-.185zm.996-.227l.147.115-.615.136-.15-.11.618-.141zm-2.94-.128l.132.112c-.336.067-.668.13-.996.189l-.148-.105c.334-.06.671-.126 1.013-.196zm4.198-.155l.174.12c-.292.062-.582.124-.872.188l-.158-.116c.284-.065.569-.129.856-.192zm8.425-1.04l.777 1.29-.045-.028a23.04 23.04 0 01-1.706-1.142c.301-.029.628-.068.974-.12zm-11.441.943l.144.115c-.289.062-.575.123-.859.181l-.15-.11c.286-.06.574-.122.865-.186zm3.965-.109l.179.129c-.208.041-.414.084-.62.127l-.182-.122.623-.134zm-15.922-.82a50.007 50.007 0 00-1.178.198l-.424.082.002.002a8.877 8.877 0 00.826.711l.006.004c.179-.047.355-.092.53-.134.267-.065.53-.125.789-.169.123-.021.246-.039.367-.054a8.342 8.342 0 01-.918-.64zm12.947.705l.152.12-.447.099-.223.049-.163-.113c.226-.05.453-.102.68-.155zm4.206-.134l.191.14c-.236.043-.472.087-.707.132l-.195.038-.184-.13c.115-.025.23-.048.346-.072.183-.036.366-.073.55-.108zm-7.074.018l.123.104c-.39.07-.78.131-1.17.179l-.148-.101c.398-.048.796-.11 1.195-.182zm4.035-.154l.177.122-.839.188-.17-.117.832-.193zm3.976-.038l.187.155c-.256.041-.512.085-.767.13l-.174-.146c.25-.048.502-.094.754-.139zm-6.858-.045l.132.105c-.31.07-.618.134-.926.192l-.144-.1c.312-.06.624-.126.938-.197zm7.648-.087l.184.168c-.22.031-.44.064-.658.099a8.176 8.176 0 00-.165-.16c.212-.038.425-.073.639-.107zm-3.802-.052l.18.129-.678.15-.193-.12.523-.12.168-.039zm4.32-.027l.158.181c-.127.016-.255.033-.382.051a5.37 5.37 0 00-.158-.174l.28-.043.102-.015zm-7.2-.069l.137.108c-.248.062-.496.122-.744.18l-.153-.101c.253-.06.506-.122.76-.187zm7.784-.011l.13.194c-.144.016-.288.033-.43.051l-.132-.187c.144-.02.288-.04.432-.058zm-3.688-.166l.186.137c-.31.065-.617.131-.922.198l-.195-.127c.308-.07.618-.14.93-.208zm-6.83.126l.138.117a20.81 20.81 0 01-.71.02 16.51 16.51 0 01-.63.003c-.003 0-.006-.003-.006-.007 0-.003.002-.006.006-.006.14-.006.28-.014.418-.026.21-.019.416-.046.622-.076l.162-.025zm1.133-.22l.254.203c-.162.03-.325.053-.488.072-.204.024-.41.042-.615.054l-.187-.126c.299-.051.593-.114.889-.173l.147-.03zm2.65-.008l.156.108a81.82 81.82 0 01-.816.215l-.158-.103c.272-.071.545-.145.818-.22zm4.037-.11l.177.148c-.258.051-.515.103-.77.157l-.19-.138c.26-.057.52-.112.783-.167zm-5.654-.057l.176.139a15.574 15.574 0 01-.808.209c-.1-.065-.201-.128-.3-.191.08-.016.161-.03.243-.045.172-.03.345-.055.519-.083l.17-.029zm2.56-.098l.158.114-.76.209-.178-.103c.26-.072.52-.145.78-.22zm9.047.146a16.34 16.34 0 01-1.102.165c-.057-.044-.113-.09-.17-.136a11.46 11.46 0 01-.63-.552c.17-.033.344-.069.522-.105.203-.043.412-.087.623-.134l.161.119c.118.085.237.168.358.249l.238.394zm-5.127-.157l.171.156c-.213.04-.426.08-.637.122-.06-.05-.121-.1-.182-.148.215-.044.431-.088.648-.13zm-17.457-.654c-.43.053-.855.131-1.275.225l-.173.04c.225.229.454.439.687.633a12.22 12.22 0 012.051-.089c-.43-.232-.86-.5-1.29-.809zm12.065.567l.063.043-.125.037-.686.207-.183-.117c.294-.049.588-.1.884-.16l.047-.01zm6.03-.034l.146.167c-.145.025-.29.05-.435.077a8.159 8.159 0 00-.172-.157c.153-.03.307-.059.461-.087zm-13.27-9.347l.258.406a8.13 8.13 0 00-1.225.617c-.694.423-1.415.979-2.16 1.713-.36.348-.752.823-1.194 1.34-.376.44-.782.912-1.23 1.365-.114.114-.23.226-.347.337.074.105.15.208.23.309.666-.678 1.067-1.334 1.502-1.96.355-.513.73-1.004 1.251-1.488a7.394 7.394 0 011.43-1.024 6.246 6.246 0 011.673-.602c1.34-.28 2.982-.2 5.142.35l.068.017c.193.023.386.05.578.077a9.328 9.328 0 011.552.373c.513.176 1.003.41 1.46.695.886.569 1.542 1.214 2.546 1.652.51.223 1.113.393 1.891.467.19.017.332.184.315.373a.346.346 0 01-.31.312l.002.006.004.038c.238.04.48.076.722.108a.052.052 0 01.046.057.052.052 0 01-.057.045 19.965 19.965 0 01-.7-.078c.007.078.01.157.01.236.173.028.348.053.523.076a.052.052 0 01.046.057.053.053 0 01-.058.045 21.982 21.982 0 01-.516-.055l-.004.053a1.465 1.465 0 01-.187.563 1.37 1.37 0 01-.285.354c.344-.02.74-.136 1.003-.366a.737.737 0 00.258-.704.113.113 0 01.093-.129c.062-.01.12.031.13.092a.953.953 0 01-.322.918c-.351.317-.922.459-1.354.443a6.325 6.325 0 01-1.004-.13c-.455-.093-.903-.217-1.355-.327a9.297 9.297 0 00-.896-.184 5.647 5.647 0 00-1.35-.05 7.074 7.074 0 00-1.347.236c-.002 0-.004 0-.004-.002s0-.004.002-.004c.21-.064.422-.12.636-.173.322-.08.647-.15.976-.19a5.53 5.53 0 011.114-.029c.313.033.62.087.926.154.452.1.897.225 1.35.317.062.013.125.025.187.036a.076.076 0 01.02-.09c.192-.168.327-.376.432-.599.032-.067.06-.136.089-.205l.043-.108c-.225-.04-.445-.084-.66-.135a1.494 1.494 0 01-.129.265 2.563 2.563 0 01-.399.47.018.018 0 01-.026.003.017.017 0 01-.003-.026 3.63 3.63 0 00.261-.55l.083-.215a7.778 7.778 0 01-.432-.126l-.173-.059-.006.014a1.866 1.866 0 01-.136.272c-.12.199-.273.375-.437.548a.018.018 0 01-.026.003.018.018 0 01-.004-.026c.121-.204.214-.414.302-.629l.102-.258a4.925 4.925 0 01-.47-.213l-.09-.049-.026.069a1.934 1.934 0 01-.158.298c-.138.21-.314.398-.509.584-.006.008-.018.009-.026.002a.017.017 0 01-.002-.026 4.37 4.37 0 00.376-.672 5.716 5.716 0 00.155-.368 3.432 3.432 0 01-.434-.325 1.799 1.799 0 01-.232.477 2.91 2.91 0 01-.545.579c-.008.007-.02.007-.027 0-.007-.007-.008-.02 0-.027.171-.213.302-.437.414-.668.038-.077.074-.154.107-.233.034-.078.066-.157.094-.237l.017-.05a9.05 9.05 0 00-.886-.733 4.533 4.533 0 00-.478-.302 3.697 3.697 0 00-.643-.282 6.47 6.47 0 01-1.193 1.977 5.753 5.753 0 01-1.44 1.192 5.799 5.799 0 01-1.74.66 5.89 5.89 0 01-2.8-.092c-.745-.203-1.437-.613-2.061-1.123a8.503 8.503 0 01-1.29-1.326c-.272.486-.564.948-.89 1.38.44.644 1.042 1.3 1.826 1.825.28.188.584.358.912.509.45.205.943.376 1.495.473.611.113 1.307-.145 2.34-.153a6.58 6.58 0 011.582.18.034.034 0 01.024.038c-.004.017-.02.027-.038.024a6.404 6.404 0 00-1.564-.121c-1.054.05-1.752.342-2.38.254a5.773 5.773 0 01-1.571-.453 5.281 5.281 0 01-.938-.558c-.769-.568-1.327-1.281-1.73-1.961-.137.179-.28.352-.428.52a7.186 7.186 0 001.705 1.776c.224.164.464.317.718.459.242.134.497.259.77.366 1.118.44 2.512.598 4.249.214a.033.033 0 01.039.024.033.033 0 01-.024.039c-1.758.47-3.196.376-4.356-.037a5.384 5.384 0 01-1.193-.601 5.769 5.769 0 01-.724-.589 7.146 7.146 0 01-1.235-1.594l-.094.102a6.17 6.17 0 01-.4.392l-.027.025c.157.153.318.3.48.448l.313.287.314.287c.25.225.5.444.754.653.016.01.019.032.008.047-.01.015-.032.018-.047.007a13.814 13.814 0 01-.84-.554 7.803 7.803 0 01-.345-.261c-.1-.08-.198-.163-.292-.25a7.476 7.476 0 01-.408-.408l-.104-.113a9.803 9.803 0 01-1.64 1.081c-.197.107-.398.217-.61.317-.002.002-.005 0-.007-.002-.001-.003 0-.006.003-.007.243-.14.478-.28.696-.436.157-.115.3-.24.445-.362.321-.27.619-.548.892-.845a8.003 8.003 0 01-.285-.359l-.095.076c-.66.526-1.51 1.062-2.728 1.59a.047.047 0 01-.062-.022.046.046 0 01.021-.062c1.152-.604 1.952-1.183 2.554-1.75l.111-.108a9.761 9.761 0 01-.214-.33 10 10 0 01-1.483 1.144c-.708.439-1.477.751-2.314.857a4.835 4.835 0 01-1.634-.067.024.024 0 01-.018-.027.023.023 0 01.027-.019 4.603 4.603 0 001.604-.015c.797-.153 1.508-.522 2.155-.992.519-.378.99-.828 1.43-1.296a6.14 6.14 0 01-.107-.215.035.035 0 01.015-.046.036.036 0 01.046.015c.034.061.07.122.105.182.084-.09.167-.182.25-.273.418-.466.81-.937 1.171-1.376.446-.54.853-1.028 1.22-1.39.64-.62 1.258-1.126 1.866-1.518a8.016 8.016 0 011.651-.824zm9.868 9.15l.165.121-.969.268-.18-.109.984-.28zm4.11.072l.117.177a36.17 36.17 0 00-.475.08 6.035 6.035 0 00-.14-.17c.165-.03.331-.059.497-.087zm-6.645.139c.198-.042.396-.088.596-.133.003-.001.007 0 .008.004 0 .003-.002.007-.005.008l-.535.156-.064-.035zm3.548-.493l.16.132c-.289.075-.577.153-.864.231l-.185-.116c.296-.083.593-.166.89-.247zm.848-.224l.155.141c-.247.06-.495.124-.742.188l-.184-.126c.257-.07.514-.138.771-.203zm4.16-.753c-.324.104-.63.195-.912.263l.088.109c.188.225.389.442.599.651.275-.059.564-.125.86-.197l.219-.054a8.356 8.356 0 01-.854-.772zm-3.396.565l.134.154c-.213.048-.426.098-.639.15a7.124 7.124 0 00-.181-.136c.228-.058.457-.114.686-.168zm-7.678.246c.292-.05.571-.098.844-.139.684-.102 1.32-.164 1.979-.216.16-.012.32-.024.484-.038.236-.02.476-.044.726-.063.498-.038 1.03-.072 1.623-.073.34-.001.7.01 1.085.025.004 0 .007-.002.007-.006 0-.003-.002-.006-.006-.006a38.862 38.862 0 00-1.016-.08 21.822 21.822 0 00-1.907-.068 9.256 9.256 0 00-.478.02c-.231.019-.456.046-.679.078-.624.092-1.221.232-1.869.377l-.796.176c-.003 0-.005.004-.004.008 0 .003.004.005.007.005zm8.525-.434l.112.168c-.215.042-.43.087-.645.134a7.237 7.237 0 00-.151-.152c.227-.053.455-.103.684-.15zm3.236-.607l.543.901c-.058-.044-.115-.09-.172-.135a9.222 9.222 0 01-.72-.647l.349-.119zm-15.53.296a13.663 13.663 0 011.469-.123l.25-.009c.123-.005.248-.011.377-.015.26-.008.535-.012.842.002.176.009.362.024.561.042.002 0 .004 0 .004-.003 0-.001-.001-.003-.003-.003-.185-.028-.359-.05-.524-.07a10.654 10.654 0 00-.985-.084 4.1 4.1 0 00-.602.024c-.324.034-.637.095-.976.157l-.415.076c-.002 0-.003.002-.003.004 0 .001.002.003.004.002zm-3.414-1.425c.105.073.21.14.314.21.162.109.314.218.468.32.066.043.131.086.197.125.068.04.136.077.203.113.166.092.323.179.46.285a1.472 1.472 0 01.334.35c.001.001.004.002.006 0 .003 0 .003-.003.002-.005a1.781 1.781 0 00-.229-.322 2.9 2.9 0 00-.657-.562 1.953 1.953 0 00-.157-.084c-.209-.103-.435-.189-.66-.297a6.525 6.525 0 01-.276-.141.005.005 0 00-.006.002c-.002.002 0 .005.001.006zm7.577 1.293c.23-.056.45-.11.666-.158.543-.12 1.047-.198 1.568-.266.127-.016.254-.031.384-.049.187-.025.378-.053.576-.076.397-.046.82-.087 1.294-.096.272-.005.56.001.868.012.003 0 .006-.002.006-.005s-.002-.006-.005-.006a23.145 23.145 0 00-.813-.063 13.184 13.184 0 00-1.53-.029 5.84 5.84 0 00-.382.032 6.203 6.203 0 00-.54.092c-.492.102-.961.252-1.472.41-.2.061-.408.123-.623.19-.003.001-.005.004-.004.008 0 .003.004.004.007.004zm7.602-2.05a1.885 1.885 0 01-.67.989c.216.035.433.061.654.071h.008a.075.075 0 01.024-.071c.148-.144.243-.324.313-.516.022-.058.04-.116.058-.175l.071-.232a16.27 16.27 0 01-.458-.066zm-9.734-2.027c.181.011 1.564.04 1.6-1.522 0 0-1.349.97-1.224-.012.042-.324.317-.438.594-.467.605.077 1.209.192 1.811.332l.027.005a4.707 4.707 0 01-.423 1.689 3.19 3.19 0 01-.675.94c-.73.71-1.745.983-2.783.896a.037.037 0 00-.043.031c-.003.02.012.04.032.042 1.102.22 2.259.066 3.087-.656.242-.211.45-.476.618-.787.292-.544.455-1.238.457-2.091l.088.022a.247.247 0 00-.025.093c0 .329-.017.64-.065.935-.08.498-.224.948-.434 1.337a3.276 3.276 0 01-1.044 1.167 3.422 3.422 0 01-1.477.551c-.707.096-1.502.002-2.358-.278a3.855 3.855 0 01-1.547-.971c-.397-.404-.733-.913-1.008-1.526a.25.25 0 00-.332-.114.246.246 0 00-.115.33c.34.641.741 1.165 1.197 1.575a4.22 4.22 0 001.728.957c.901.252 1.727.3 2.458.182a3.915 3.915 0 001.537-.584 3.874 3.874 0 001.145-1.182 5.16 5.16 0 00.53-1.127c.125-.371.22-.773.28-1.209l.106.034a.416.416 0 00-.02.079c-.022.356-.059.69-.141 1.008a4.443 4.443 0 01-.621 1.414c-.34.494-.775.896-1.262 1.199-.5.312-1.062.518-1.646.615-.846.14-1.739.038-2.592-.272-.646-.242-1.23-.662-1.737-1.172a7.643 7.643 0 01-1.214-1.634c.132-.093.264-.183.396-.27.32-.214.636-.409.939-.578a.099.099 0 00.001.024c-.031.035-.032.024-.055.065-.003.005-.005.008-.005.014-.004.052.02.102.031.152.064.267.153.518.264.752.178.375.41.706.689.98.16.157.335.295.524.414.423.266.908.437 1.437.507a.035.035 0 00.039-.026c.003-.018-.008-.036-.026-.039a3.5 3.5 0 01-1.308-.64 3.5 3.5 0 01-.447-.422 3.59 3.59 0 01-.601-.915 4.315 4.315 0 01-.247-.692l-.037-.139-.001-.006c-.032-.04-.039-.017-.085-.04a.088.088 0 00-.046-.06c.256-.139.5-.258.726-.352.05.467.33 2.035 1.896 2.434 2.11.539 2.527-.912 2.527-.912l-1.14-.081.02.001zm-6.593.67c-.076.061-.15.124-.224.187a.267.267 0 01-.107.055c-.453.554-.917 1.12-1.596 1.698.093.109.189.215.287.319l.146-.17c.166-.192.331-.383.487-.582.37-.472.703-.974 1.007-1.508zm7.185 1.54c-.888.073-1.62-.01-2.228-.185a4.396 4.396 0 01-.872-.356 3.814 3.814 0 01-1.258-1.09 4.37 4.37 0 01-.615-1.18l-.003-.009c-.032-.04-.057-.032-.097-.059a.09.09 0 00-.11-.059.088.088 0 00-.058.109c-.02.04-.03.05-.042.096-.001.007-.002.013 0 .021.008.073.045.145.074.223.119.317.303.691.58 1.058.324.43.773.852 1.39 1.155.28.138.597.25.95.326.636.138 1.394.161 2.297.015a.033.033 0 00.029-.036.034.034 0 00-.037-.029zm9.204-.537c-.007.07-.016.14-.03.211.153.03.307.058.462.085.021-.075.04-.15.057-.223a18.523 18.523 0 01-.489-.073zm-.839-.171l-.006.034c-.008.05-.019.1-.031.15.215.059.436.112.662.16.025-.066.05-.132.072-.198a10.46 10.46 0 01-.697-.146zm-10.386.153c.84.183 1.684.085 2.38-.269.221-.112.426-.252.61-.415.42-.37.735-.857.902-1.431a.055.055 0 00-.037-.07.055.055 0 00-.07.036c-.182.54-.506.985-.914 1.329-.177.15-.37.28-.576.392a3.628 3.628 0 01-2.289.397c-.008-.002-.017.004-.018.012a.016.016 0 00.012.019zm9.582-.394a2.77 2.77 0 01-.04.163l.173.064c.14.05.283.096.43.14a2.68 2.68 0 00.05-.175 8.87 8.87 0 01-.613-.192zm1.774.285c.127.025.255.049.385.07l.005-.034h-.029a9.134 9.134 0 01-.36-.036zm-9.822-.316c-.702.144-1.275.099-1.741-.06a2.414 2.414 0 01-.645-.335 2.67 2.67 0 01-.821-.998 3.101 3.101 0 01-.292-.993l-.001-.007c-.024-.043-.042-.03-.079-.06a.088.088 0 00-.175.007c-.032.033-.038.03-.063.07-.004.005-.005.01-.006.017-.01.06.01.124.019.19.041.285.137.608.294.923.207.412.518.813.953 1.096.217.142.466.254.746.323.503.124 1.108.113 1.827-.11a.032.032 0 00.024-.04.034.034 0 00-.04-.023zm8.279-2.226c.213.108.437.215.679.32.595.258 1.31.565 1.908.99.406.29.758.633.985 1.053a.066.066 0 01-.026.088.067.067 0 01-.09-.026c-.223-.396-.567-.717-.96-.986-.595-.408-1.305-.695-1.895-.939a12.82 12.82 0 01-.633-.28l.032-.22zm-1.001 1.905l-.034.158.128.07c.14.073.286.142.439.207.017-.051.033-.103.047-.155a4.608 4.608 0 01-.414-.189c-.056-.03-.112-.06-.166-.091zm-3.856-3.124c.35.056.7.14 1.041.253a5.902 5.902 0 01.973.418c.202.108.396.225.588.345.455.286.892.594 1.354.868.282.168.575.323.886.452.565.234 1.287.323 1.853.625.239.127.45.294.605.528.015.024.047.03.071.015a.05.05 0 00.016-.07 1.721 1.721 0 00-.635-.577c-.562-.313-1.286-.418-1.849-.663a6.623 6.623 0 01-.858-.456c-.39-.24-.762-.507-1.145-.759-.257-.169-.52-.33-.794-.477a4.534 4.534 0 00-1.026-.382 6.496 6.496 0 00-1.073-.172.028.028 0 00-.03.023.028.028 0 00.023.029zm3.223 2.656c-.006.045-.014.089-.022.133l-.01.046.036.032c.124.11.261.21.41.304.014-.052.027-.105.039-.159a3.26 3.26 0 01-.415-.32l-.038-.036zm-2.152-1.406a5.848 5.848 0 01-.106.3c.225.053.44.115.664.213.1.043.2.093.304.151.244.135.504.31.801.542.092.072.186.149.285.232.014-.06.027-.122.036-.185a8.835 8.835 0 00-.81-.658 5.11 5.11 0 00-.48-.3 3.766 3.766 0 00-.694-.295zm3.08-.41c.13.073.26.145.394.217l.276.144-.02.225a12.015 12.015 0 01-.678-.348l.029-.238zm-3.047.309l-.024.074c.13.029.258.06.385.1a6.293 6.293 0 00-.361-.174zM7.08 18.077l.109-.002c-.117.135-.232.268-.35.4l.24-.398zm18.354-.412c.227.134.448.265.671.393l.01.263a39.166 39.166 0 01-.735-.418c.019-.079.037-.158.054-.238zm1.671-.247c.25.137.504.265.76.38l-.014.336a10.03 10.03 0 01-.775-.39l.03-.326zm-2.326-.13c.198.11.387.22.57.328l-.015.261c-.193-.11-.39-.223-.596-.337.015-.08.028-.164.04-.253zm1.571-.31c.1.061.2.122.302.182.13.077.262.152.395.225l-.03.326c-.174-.098-.346-.2-.516-.306l-.162-.103c.005-.107.009-.216.011-.324zM8.264 16.9l-.135.003a18.757 18.757 0 01-.678.632l.209.002a13.464 13.464 0 01.604-.637zm1.482-.16l-.067.01c-.095.016-.191.031-.289.045-.185.187-.37.373-.56.555a8.736 8.736 0 01-.173.162c.18-.013.364-.032.55-.06l.102-.132c.153-.2.296-.395.437-.58zm14.216.15c.162.059.315.126.456.199l.242.132.014.283c-.12-.066-.244-.132-.372-.2a3.437 3.437 0 00-.381-.178c.014-.079.028-.157.04-.235zm3.179-.217c.253.138.505.263.755.375l-.01.268c-.25-.125-.5-.263-.751-.413.003-.076.005-.153.006-.23zm-1.514-.158c.142.094.287.188.433.281l.012.33a17.569 17.569 0 01-.48-.33c.012-.093.025-.187.035-.28zm-2.393.177l.067.014c.196.042.387.093.568.153l.031.01-.015.243a6.632 6.632 0 00-.634-.209l-.044-.012.027-.199zm-.632-.107c.197.027.396.06.591.099l-.008.201a12.37 12.37 0 00-.597-.147l.014-.153zm3.746-.38l.03.02c.246.156.49.3.735.433l-.02.22c-.247-.149-.494-.31-.74-.481l-.005-.191zm-3.788.527c-.348-.076-.69-.138-.996-.187a.033.033 0 01-.029-.036.035.035 0 01.037-.03c.305.025.645.055.993.101l-.005.152zm2.315-.726c.178.123.362.248.55.375l-.017.285a43.05 43.05 0 01-.541-.395l.008-.265zm-14.96-.62l-.254.025c-.191.179-.38.36-.57.543l-.54.532.122.019a44.239 44.239 0 011.242-1.119zm4.253-.138l.327.403-.115.07c-.226.141-.455.297-.687.468a2.03 2.03 0 00-.15-.242 1.116 1.116 0 00-.166-.188 8.584 8.584 0 01.791-.511zm6.055.578c.195.063.39.132.585.207.04.014.062.058.048.099a.08.08 0 01-.1.048c-.181-.057-.361-.11-.542-.156l.01-.198zm5.464-.07c.114.083.23.163.344.241l.006.175a13.956 13.956 0 01-.357-.27l.007-.145zm-9.198-.24l.137.4a6.2 6.2 0 00-.421.12c-.122.038-.243.08-.365.127a6.13 6.13 0 00-.161-.436 7.188 7.188 0 01.81-.212zm7.599-.08c.17.132.333.257.503.375l.013.266-.126-.093a8.756 8.756 0 01-.395-.314l.005-.235zm-4.633.173c.212.05.424.109.635.175l.068.225c-.237-.06-.474-.113-.71-.155.003-.08.006-.161.007-.245zm-1.989-.208l.055.364a6.288 6.288 0 00-.856.142 7.495 7.495 0 00-.049-.415c.286-.05.57-.08.85-.09zm1.073.044c.255.03.508.073.761.129l.09.27a7.785 7.785 0 00-.859-.097c.005-.099.008-.2.008-.302zm-.946-.048c.258-.005.513.005.767.029l.07.315a6.657 6.657 0 00-.858.02c.01-.117.018-.24.021-.364zm7.27-.274c.203.166.406.325.61.477l-.008.132c-.2-.16-.4-.329-.597-.504l-.005-.105zm-9.931-.261l.261.41c-.204.098-.41.208-.617.33a1.896 1.896 0 00-.105-.163 1.073 1.073 0 00-.225-.235c.23-.13.459-.243.686-.342zm8.396.012c.255.173.469.336.667.49l-.014.221c-.194-.162-.401-.335-.649-.52l-.004-.19zm-7.197-.412l.136.401a6.444 6.444 0 00-.873.316 1.58 1.58 0 00-.33-.373 6.766 6.766 0 011.067-.344zm-5.013-.026c-.15.04-.311.073-.48.103-.222.187-.44.379-.655.574.077.01.153.018.228.025.295-.244.596-.479.907-.702zm14.601.23l.27.17.01.262-.323-.235a6.308 6.308 0 00-.02-.237l.063.04zm-5.545.114c.141.049.283.1.424.156.04.014.062.057.047.097a.078.078 0 01-.098.047 9.27 9.27 0 00-.349-.106 4.11 4.11 0 00-.024-.194zm2.503-.309c.221.126.415.246.59.363l-.007.178a9.34 9.34 0 00-.584-.392v-.149zm-13.559.222h.058c.13-.002.26-.008.39-.017-.128.104-.255.21-.38.317l-.228-.034.16-.266zm10.253-.155c.126.032.251.067.377.105l.069.23a8.41 8.41 0 00-.405-.091 4.96 4.96 0 00-.04-.244zm-2.071-.234l.053.355a6.228 6.228 0 00-.89.152 1.926 1.926 0 00-.172-.384c.34-.07.676-.11 1.009-.123zm7.451-.226l.133.077c.22.128.437.261.653.396l-.012.203a21.765 21.765 0 00-.708-.492l-.038-.024-.028-.16zm-6.38.271c.184.022.367.052.55.088l.091.275a7.84 7.84 0 00-.55-.062 2.177 2.177 0 00-.09-.3zm-.904-.05a7.02 7.02 0 01.65.024l.069.312a6.33 6.33 0 00-.631.009 1.84 1.84 0 00-.088-.344zm5.167.295l-.05-.03c-.522-.314-1.199-.655-2.133-1.029a.031.031 0 01.022-.058c.946.349 1.633.674 2.166.973l-.005.144zm-10.672-.72c-.045.01-.09.017-.137.025-.154.027-.313.051-.476.073-.178.134-.352.27-.524.411a3.7 3.7 0 00.378-.032.03.03 0 01.026.006c.238-.168.482-.33.733-.482zm-2.448.162c.237.014.48.025.727.022l.122-.003c-.13.097-.26.195-.39.295-.197-.02-.394-.057-.596-.087l.137-.227zm14.992.029a9.187 9.187 0 00-.652-.367.037.037 0 01-.017-.048.038.038 0 01.05-.017c.209.094.413.197.613.305l.006.127zm-4.734-.396c.253.077.505.164.757.26a.047.047 0 01.029.06.048.048 0 01-.06.028 11.66 11.66 0 00-.626-.185 1.825 1.825 0 00-.1-.163zm-.897-.226c.184.037.368.08.551.128l.05.163c-.15-.033-.3-.063-.45-.088a2.093 2.093 0 00-.151-.203zm-7.311-.195a9.37 9.37 0 01-.927.06c-.19.001-.38-.005-.566-.014-.078.074-.156.149-.233.225l.082.01c.163.019.326.04.491.064.168.024.334.052.499.075.214-.145.432-.285.654-.42zm1.342-.703c-.524.072-1.101.133-1.681.136-.155.001-.31-.002-.462-.008l-.194.165c.077.01.155.02.232.032.242.034.478.077.715.101.159.017.315.028.466.035l.005-.003a11.088 11.088 0 01.91-.454l.009-.004zm-2.183-.516c.225.03.444.054.655.074.689.064 1.302.067 1.828-.043 1.408-.295 2.93-.656 4.358-.899 1.063-.18 2.074-.294 2.941-.284.31.006.597.012.866.022.165.11.335.208.512.291l-.383-.02a23.623 23.623 0 00-3.252.08c-1.744.164-3.455.528-4.943 1.126a6.296 6.296 0 01-.627-.006c-.488-.027-1.002-.119-1.517-.187h-.004a.099.099 0 00-.075-.01c-.14-.018-.278-.034-.415-.05l.056-.094zm.486-.805l.28.01c.32.012.639.018.958.018a26.358 26.358 0 002.232-.102c1.417-.126 2.842-.47 4.27-.649a13.007 13.007 0 011.76-.11c.17.147.345.288.526.416-.228-.009-.47-.017-.728-.023-.873-.03-1.892.071-2.967.222-1.437.202-2.975.496-4.394.74-.427.073-.91.058-1.446.003-.24-.024-.49-.058-.75-.098l.259-.427zm12.53-.117c.04.03.083.06.125.089.042.03.091.052.127.09a.096.096 0 01.023.039c.018.053.003.047.01.103l.004.002.332.06c-.122-.112-.24-.226-.357-.343l-.265-.04zm-1.288-.144c.048.046.059.092.104.149a.1.1 0 01.06.129c0 .002 0 .004-.002.006.204.019.405.04.604.065-.127-.1-.25-.204-.37-.314-.128-.013-.26-.024-.396-.035zm2.168.071h-.003c-.14-.127-.276-.258-.409-.392l-.048-.05.206.022.254.42zm-1.655-.543c.176.152.354.299.536.439l.317.026c-.135-.14-.265-.284-.393-.43l-.3-.024-.16-.011zm-1.453-.075c.229.152.465.29.707.414l.046.023c.156.007.307.015.453.024l-.082-.08a6.544 6.544 0 01-.319-.345 54.165 54.165 0 00-.805-.036zm-9.871.092l.072.004c1.212.071 2.35.087 3.197.024 1.556-.123 3.249-.372 4.816-.505.184-.015.365-.03.544-.04.087.082.175.164.264.244l.033.03c-.544-.014-1.09.015-1.636.065-1.427.13-2.86.41-4.275.48-.77.04-1.541.037-2.314.019-.293-.007-.585-.018-.878-.027l.177-.294zm12.655-.011l-.245-.017a16.74 16.74 0 01-.422-.459l.397.028.27.448zm-1.923-.538c.155.154.32.296.483.437l.488.035a13.804 13.804 0 01-.24-.292l-.122-.154c-.199-.01-.401-.018-.609-.026zm-.492-.014l-.089-.002c-.288-.004-.587.001-.895.014.144.121.292.236.444.343.297.016.595.034.892.054l-.17-.2-.182-.21zm-9.8-.167c.115.018.23.035.346.047.327.034.657.05.986.06.772.022 1.542-.01 2.308-.08.996-.095 2.089-.212 3.166-.273.304-.018.607-.03.905-.037.112.126.229.248.348.367l-.424.02c-1.57.085-3.269.255-4.826.318-.744.032-1.71-.028-2.754-.094l-.244-.015.189-.313zm11.884.17l-.426-.03-.068-.078c-.074-.086-.146-.173-.218-.26.17.009.34.019.508.03l.204.338zm-1.98-.417l.103.12c.061.07.122.139.185.205.215.008.425.017.63.027a10.815 10.815 0 01-.245-.33l-.11-.005a50.069 50.069 0 00-.564-.017zm-1.59-.043c.12.121.242.24.368.352.356-.008.7-.009 1.03.003-.09-.107-.179-.215-.266-.324a23.696 23.696 0 01-.525-.02c-.199-.007-.401-.01-.607-.01zm-7.84-.496a11.458 11.458 0 00.906.09c.303.02.608.028.908.034.76.017 1.493.009 2.112.02.766.008 1.858.01 3.02.01l.005.006c.055.072.113.142.171.21-.262 0-.529.002-.796.007-1.081.017-2.181.07-3.183.115-.725.033-1.45.014-2.178-.02-.31-.016-.621-.038-.933-.052a13.177 13.177 0 00-.281-.008l.248-.412zm9.113.156c.079.1.159.197.24.294l.18.004c.167.003.333.005.498.005l-.084-.124a6.596 6.596 0 01-.114-.176l-.72-.003zm1.991.293l-.49.008h-.022c-.08-.098-.157-.196-.236-.294l.58.005.168.28zm-3.595-.295l.216.225c.246.006.49.016.727.032l.445.022c-.072-.092-.144-.184-.215-.278l-1.173-.001zm3.255-.27l-.606-.018-.042-.002-.21-.26.713.038.145.241zm-2.124-.35c.072.1.146.2.22.297l.787.02-.155-.27-.852-.047zm-1.806-.076c.108.111.22.22.33.332l1.27.03a17.04 17.04 0 01-.22-.307l-.198-.01a72.28 72.28 0 00-1.182-.045zm-6.216-.485l.463.068c.65.098 1.294.206 1.95.28.087.01.174.019.26.025.35.027.698.039 1.047.051.654.023 1.308.031 1.96.048l.157.003c.076.108.149.22.223.33-1.057-.025-2.037-.05-2.742-.073-.62-.016-1.352-.023-2.113-.035l-.9-.017-.71-.007.405-.673zm9.8.336c-.26-.02-.523-.042-.791-.064l-.099-.133.811.067.079.13zm-2.157-.31l.1.145c.314.024.623.048.927.073l-.076-.133c-.305-.027-.621-.055-.95-.086zm-1.972-.189l.168.213c.502.024.996.055 1.481.09l-.103-.154c-.309-.029-.628-.06-.96-.09-.194-.022-.39-.04-.586-.059zm-5.281-.484c.133-.055.268-.115.405-.183l.979.144c.87.13 1.741.286 2.617.394.312.038.624.065.934.096l.016.002c.018.071.089.12.133.18l.037.05c-.565-.022-1.131-.045-1.698-.06-.417-.012-.834-.03-1.251-.029-.7.001-1.393.045-2.091.028-.149-.004-.297-.01-.445-.019l.364-.603zm9.053.391a94.508 94.508 0 01-.864-.1c-.04-.062-.078-.126-.116-.19.293.027.576.052.85.075l.13.215zm-2.26-.408l.1.152 1.017.124-.108-.182-1.01-.094zm-6.294-.811c.31.045.623.09.937.138.902.136 1.803.298 2.71.41.323.04.647.069.968.1.324.033.646.06.965.096l.3.028.089.139-.542-.067a29.282 29.282 0 00-1.006-.099c-.333-.025-.67-.047-1.007-.055-.604-.016-1.208.005-1.814-.004a25.344 25.344 0 01-1.206-.039c-.143-.009-.285-.02-.426-.033l.115-.059a.032.032 0 00.013-.043c-.007-.014-.025-.02-.04-.015l-.003.002-.32.092.109.011-.033.016-.023.01-.123.054-.043.02-.008.003-.011.004-.038.016.038-.016.014-.005.048-.022.123-.054-.12-.017.068-.02-.085-.009.35-.582zm.014.518l.039-.02-.035.019-.012.006-.164.08.172-.085zm8.102-.026l-.855-.102-.101-.178c.161.022.322.046.482.074l.386.06.088.146zm-2.3-.422c.009.016.018.032.028.046.025.035.047.071.07.107l1.071.133-.097-.179a37.034 37.034 0 00-1.072-.107zM14.94 5.031c.202-.012.404-.02.606-.026.337-.008.673-.005 1.01.002.56.013 1.122.042 1.683.083.448.033.895.078 1.345.114.112.01.224.017.336.025.417.03.834.06 1.252.084l.197.328a15.58 15.58 0 00-1.339-.093c-.542-.006-1.08.03-1.622.03-.361 0-.72-.003-1.077-.026a12.779 12.779 0 01-1.114-.13c-.003 0-.006.002-.007.006 0 .003.002.006.005.006.176.035.353.063.53.094.266.047.531.092.8.137l.8.133c.402.066.799.141 1.203.2.222.034.444.066.667.09.185.02.371.037.556.054.017.06.037.116.05.178l.003.013c-.25-.023-.503-.041-.756-.056a48.169 48.169 0 00-1.571-.065c-.475-.012-.946-.005-1.413-.039a11.473 11.473 0 01-.935-.112c-.004 0-.007.002-.007.005s.001.006.004.007c.292.06.589.104.886.151.443.07.887.146 1.338.196.41.046.823.08 1.235.116-.027.028-.041.016-.042.094 0 .012.002.024.006.035-.3-.033-.603-.065-.908-.088a21.157 21.157 0 00-1.043-.057c-.626-.016-1.251.007-1.879-.002a24.695 24.695 0 01-1.25-.039c-.134-.008-.27-.018-.404-.03l.855-1.418zm6.922 1.429l-.105-.016a16.468 16.468 0 00-.745-.093c-.03-.032-.064-.05-.096-.082-.04-.04-.073-.081-.108-.123.31.028.619.056.923.096l.131.218zm-.832-1.382c-.49-.029-.98-.063-1.468-.093-.394-.024-.788-.04-1.181-.061a36.935 36.935 0 00-2.763-.064l-.585.015L17.971 0l3.059 5.078z"/></g></svg>