<svg id="Layer_1" data-name="Layer 1" xmlns="http://www.w3.org/2000/svg" viewBox="0 0 789.12 178.33"><defs><style>.cls-1{fill:#f9b233;}</style></defs><path class="cls-1" d="M469.65,134.07V198h-8.39V147l-20.39,51h-7.48l-20.48-50.84V198h-8.4V134.07h10.06l22.7,53.7,22.33-53.7Z" transform="translate(-96.93 -104.52)"/><path class="cls-1" d="M515.46,149.85a22.44,22.44,0,0,1,9,9,28.13,28.13,0,0,1,3.27,13.84,27.82,27.82,0,0,1-3.27,13.79,22.52,22.52,0,0,1-9,9,28.71,28.71,0,0,1-26.11,0,22.87,22.87,0,0,1-9.09-9,27.52,27.52,0,0,1-3.32-13.79,27.82,27.82,0,0,1,3.32-13.84,22.78,22.78,0,0,1,9.09-9,28.71,28.71,0,0,1,26.11,0Zm-21.4,6.27a15.2,15.2,0,0,0-6.18,6.23,23.81,23.81,0,0,0,0,20.67,15.2,15.2,0,0,0,6.18,6.23,18.19,18.19,0,0,0,16.7,0,15.32,15.32,0,0,0,6.18-6.23,23.9,23.9,0,0,0,0-20.67,15.32,15.32,0,0,0-6.18-6.23,18.19,18.19,0,0,0-16.7,0Z" transform="translate(-96.93 -104.52)"/><path class="cls-1" d="M580.1,147.36V198h-8.4v-11.9a17.06,17.06,0,0,1-6.87,9.46,20.34,20.34,0,0,1-11.49,3.27q-8.77,0-14.21-5.67t-5.44-16.29V147.36h8.39v28.69q0,7.57,3.88,11.67t10.52,4.11a14.36,14.36,0,0,0,11.07-4.48q4.16-4.47,4.15-13V147.36Z" transform="translate(-96.93 -104.52)"/><path class="cls-1" d="M630.84,152.2q5.45,5.67,5.45,16.38V198h-8.4V169.32q0-7.57-3.88-11.63t-10.51-4.06q-6.93,0-11.08,4.48t-4.15,13V198h-8.39V147.36h8.39v12a17.19,17.19,0,0,1,6.88-9.5,19.86,19.86,0,0,1,11.39-3.32Q625.41,146.53,630.84,152.2Z" transform="translate(-96.93 -104.52)"/><path class="cls-1" d="M669.68,190.63V198h-6.27q-7.75,0-11.58-3.69T648,182V154.65h-7.56v-7.29H648V134.72h8.49v12.64h13.1v7.29h-13.1v27.49q0,4.89,1.8,6.69t6.23,1.8Z" transform="translate(-96.93 -104.52)"/><path class="cls-1" d="M743.91,138a27.31,27.31,0,0,1,10.38,15.31h-8.86a19.87,19.87,0,0,0-7.7-9.5,22.5,22.5,0,0,0-12.78-3.6,23,23,0,0,0-11.9,3.09,21.58,21.58,0,0,0-8.26,8.81,28.65,28.65,0,0,0-3,13.47,29,29,0,0,0,3.05,13.71,21.52,21.52,0,0,0,8.44,8.85,24.52,24.52,0,0,0,12.41,3.09,23.51,23.51,0,0,0,11-2.58,21.23,21.23,0,0,0,8.16-7.52,25.49,25.49,0,0,0,3.83-11.58H723.11v-6.27h32.66V171a32.45,32.45,0,0,1-4.8,14,28.76,28.76,0,0,1-10.7,10A31.37,31.37,0,0,1,725,198.66a32.36,32.36,0,0,1-16.61-4.2,29.16,29.16,0,0,1-11.21-11.72,38.91,38.91,0,0,1,0-34.41,29.49,29.49,0,0,1,11.21-11.77,31.89,31.89,0,0,1,16.52-4.24Q736.2,132.32,743.91,138Z" transform="translate(-96.93 -104.52)"/><path class="cls-1" d="M799.46,149.85a22.48,22.48,0,0,1,9,9,28.13,28.13,0,0,1,3.27,13.84,27.82,27.82,0,0,1-3.27,13.79,22.56,22.56,0,0,1-9,9,28.73,28.73,0,0,1-26.12,0,22.78,22.78,0,0,1-9.08-9,27.42,27.42,0,0,1-3.33-13.79,27.72,27.72,0,0,1,3.33-13.84,22.7,22.7,0,0,1,9.08-9,28.73,28.73,0,0,1,26.12,0Zm-21.41,6.27a15.32,15.32,0,0,0-6.18,6.23,23.9,23.9,0,0,0,0,20.67,15.32,15.32,0,0,0,6.18,6.23,18.19,18.19,0,0,0,16.7,0,15.32,15.32,0,0,0,6.18-6.23,23.81,23.81,0,0,0,0-20.67,15.32,15.32,0,0,0-6.18-6.23,18.19,18.19,0,0,0-16.7,0Z" transform="translate(-96.93 -104.52)"/><path class="cls-1" d="M827.46,129.73V198h-8.4V129.73Z" transform="translate(-96.93 -104.52)"/><path class="cls-1" d="M870.5,150.4a19.23,19.23,0,0,1,7.15,9.87V129.73h8.4V198h-8.4V185.09A19.22,19.22,0,0,1,870.5,195a20.8,20.8,0,0,1-12.5,3.69,23,23,0,0,1-12-3.14,21.64,21.64,0,0,1-8.25-9,29.86,29.86,0,0,1-3-13.79,30.19,30.19,0,0,1,3-13.84,21.57,21.57,0,0,1,8.25-9,23,23,0,0,1,12-3.14A20.8,20.8,0,0,1,870.5,150.4ZM848,159.12q-4.66,4.94-4.66,13.61T848,186.34q4.65,4.93,12.41,4.94a17.19,17.19,0,0,0,8.9-2.31,16.07,16.07,0,0,0,6.14-6.51,20.6,20.6,0,0,0,2.21-9.73,20.92,20.92,0,0,0-2.21-9.78,15.62,15.62,0,0,0-6.14-6.5,17.45,17.45,0,0,0-8.9-2.26Q852.65,154.19,848,159.12Z" transform="translate(-96.93 -104.52)"/><path class="cls-1" d="M453,222.37a29.92,29.92,0,0,1,10.71,16H454.8a21.76,21.76,0,0,0-8-10.29,23.27,23.27,0,0,0-13.56-3.82,20.87,20.87,0,0,0-19.33,11.94A29.66,29.66,0,0,0,411,249.73a29.12,29.12,0,0,0,2.91,13.38A20.93,20.93,0,0,0,433.21,275a23.2,23.2,0,0,0,13.56-3.83,21.69,21.69,0,0,0,8-10.28h8.86a29.86,29.86,0,0,1-10.71,16q-7.74,5.87-19.65,5.86a30.84,30.84,0,0,1-16.15-4.2,28.88,28.88,0,0,1-10.93-11.71,36.55,36.55,0,0,1-3.92-17.12,37,37,0,0,1,3.92-17.25,28.85,28.85,0,0,1,10.93-11.77,30.92,30.92,0,0,1,16.15-4.19Q445.21,216.52,453,222.37Z" transform="translate(-96.93 -104.52)"/><path class="cls-1" d="M504.48,234.6a19.18,19.18,0,0,1,7.15,9.87V231.55H520v50.66h-8.4V269.29a19.14,19.14,0,0,1-7.15,9.87,20.74,20.74,0,0,1-12.5,3.69,22.94,22.94,0,0,1-12-3.13,21.66,21.66,0,0,1-8.26-9,29.86,29.86,0,0,1-3-13.79,30.19,30.19,0,0,1,3-13.84,21.59,21.59,0,0,1,8.26-9,22.94,22.94,0,0,1,12-3.14A20.8,20.8,0,0,1,504.48,234.6ZM482,243.32q-4.67,4.94-4.66,13.61T482,270.54q4.66,4.93,12.41,4.93a17.18,17.18,0,0,0,8.9-2.3,16.07,16.07,0,0,0,6.14-6.51,20.51,20.51,0,0,0,2.21-9.73,20.8,20.8,0,0,0-2.21-9.78,15.71,15.71,0,0,0-6.14-6.51,17.55,17.55,0,0,0-8.9-2.26Q486.63,238.38,482,243.32Z" transform="translate(-96.93 -104.52)"/><path class="cls-1" d="M559.38,235.38a18.86,18.86,0,0,1,6.32,12h-8a11.56,11.56,0,0,0-3.73-7.42,12.17,12.17,0,0,0-8.54-2.91,10.53,10.53,0,0,0-7.06,2.17,7.32,7.32,0,0,0-2.53,5.86,6.06,6.06,0,0,0,1.7,4.47,11.06,11.06,0,0,0,4.25,2.59q2.54.87,7,1.89a67.93,67.93,0,0,1,9.09,2.63,14.2,14.2,0,0,1,5.91,4.29,12,12,0,0,1,2.44,7.93A12.46,12.46,0,0,1,561.5,279q-4.65,3.87-12.41,3.87-9,0-14.76-4.33a17.28,17.28,0,0,1-6.73-12.09h8.11a10.59,10.59,0,0,0,4,7.48,14.52,14.52,0,0,0,9.36,2.86,9.74,9.74,0,0,0,6.79-2.22,7.5,7.5,0,0,0,2.44-5.81,6.36,6.36,0,0,0-1.75-4.71,11.45,11.45,0,0,0-4.34-2.67,63,63,0,0,0-7.1-1.94,69.35,69.35,0,0,1-9-2.58,13.82,13.82,0,0,1-5.72-4.11,11.49,11.49,0,0,1-2.35-7.61,12.76,12.76,0,0,1,4.7-10.29q4.71-3.92,12.83-3.92Q554.17,230.91,559.38,235.38Z" transform="translate(-96.93 -104.52)"/><path class="cls-1" d="M573.82,213a6.75,6.75,0,0,1,8.31,0,5.26,5.26,0,0,1,0,7.48,6.75,6.75,0,0,1-8.31,0,5.24,5.24,0,0,1,0-7.48Zm8.31,18.59v50.66h-8.4V231.55Z" transform="translate(-96.93 -104.52)"/><path class="cls-1" d="M632.87,236.4q5.45,5.67,5.45,16.38v29.43h-8.4v-28.7q0-7.56-3.88-11.62t-10.51-4.06a14.4,14.4,0,0,0-11.08,4.47q-4.14,4.48-4.15,13.06v26.85h-8.39V231.55h8.39v12a17.19,17.19,0,0,1,6.88-9.5,19.86,19.86,0,0,1,11.39-3.33Q627.43,230.72,632.87,236.4Z" transform="translate(-96.93 -104.52)"/><path class="cls-1" d="M683.57,234.05a22.35,22.35,0,0,1,9,9,28,28,0,0,1,3.28,13.84,27.72,27.72,0,0,1-3.28,13.79,22.44,22.44,0,0,1-9,9,28.79,28.79,0,0,1-26.11,0,22.87,22.87,0,0,1-9.09-9,27.52,27.52,0,0,1-3.32-13.79,27.82,27.82,0,0,1,3.32-13.84,22.78,22.78,0,0,1,9.09-9,28.71,28.71,0,0,1,26.11,0Zm-21.4,6.27a15.22,15.22,0,0,0-6.19,6.23,23.9,23.9,0,0,0,0,20.67,15.2,15.2,0,0,0,6.19,6.22,18.19,18.19,0,0,0,16.7,0,15.23,15.23,0,0,0,6.18-6.22,23.9,23.9,0,0,0,0-20.67,15.26,15.26,0,0,0-6.18-6.23,18.19,18.19,0,0,0-16.7,0Z" transform="translate(-96.93 -104.52)"/><path class="cls-1" d="M204.26,109.74a13,13,0,0,0-20.84,0L99.53,221.58a13,13,0,0,0-.41,15l24.3,36.45a13,13,0,0,0,10.83,5.8H253.42a13,13,0,0,0,10.84-5.8l24.3-36.45a13,13,0,0,0,2.18-7.67h0L214.18,123Z" transform="translate(-96.93 -104.52)"/><path class="cls-1" d="M338.39,189.17l-51.18-64a13,13,0,0,0-20.35,0l-24.52,30.65L295.45,229H318.9a13,13,0,0,0,11.65-7.2l9.31-18.62A13,13,0,0,0,338.39,189.17Z" transform="translate(-96.93 -104.52)"/></svg>