<svg width="195" height="74" viewBox="0 0 195 74" fill="none" xmlns="http://www.w3.org/2000/svg">
<g clip-path="url(#clip0_124_972)">
<path d="M174.536 29.4127L173.669 34.9913L171.538 29.4127H111.176L110.463 33.5042C110.366 33.422 110.277 33.3317 110.179 33.2495C107.4 31.0312 103.688 29.766 99.133 29.4784C100.033 27.6463 100.568 26.5207 100.608 26.4304L106.492 13.893L99.9597 17.3354L110.358 3.26172L98.7602 5.47178C98.3145 5.55394 95.1862 6.16191 90.5748 7.22175L70.0707 49.3197C68.6281 53.3454 64.7542 56.0238 60.3292 56.0238C58.0356 56.0238 55.815 55.3172 53.9105 53.978C48.9101 50.5192 47.4594 43.7576 50.7092 38.9266L50.847 38.7212L75.6546 11.0668C66.6506 13.663 56.7065 17.089 49.1613 21.1969H28.9246L28.0574 26.7754L25.926 21.1969H7.76402L0 65.7842H20.4636L21.2335 60.7972L23.1948 65.7842H41.5999C46.3004 69.8921 52.5976 72.2665 59.1216 72.2665C64.3976 72.2665 69.3332 70.7383 73.5312 67.8217L72.4533 74.0082H93.0628L95.1295 62.4979C97.8687 62.465 100.373 62.161 102.594 61.5859C103.712 61.2984 104.766 60.9204 105.762 60.485L103.404 74.0082H166.075L166.845 69.0212L168.807 74.0082H187.228L194.992 29.4209H174.528L174.536 29.4127Z" fill="black"/>
<path d="M36.7534 25.8552H36.5833C36.6481 25.8717 36.7048 25.8799 36.7534 25.8552Z" fill="white"/>
<path d="M107.772 37.2999C107.772 37.2999 107.764 37.3163 107.756 37.3245C107.732 37.3081 107.732 37.2752 107.716 37.2506C107.586 37.1355 107.472 37.0205 107.335 36.9137C104.96 35.0241 101.524 34.071 97.042 34.071H91.6283C94.5378 28.5089 96.4504 24.4339 96.4504 24.4339L95.1699 25.1076C95.0727 25.2637 94.9673 25.428 94.8782 25.6252C94.7809 25.6005 94.8133 25.4444 94.8944 25.2554L84.2047 30.8915L99.5949 10.0562C99.5949 10.0562 58.8055 17.8201 45.0442 29.4537C44.2743 30.1028 43.5611 30.8011 42.9046 31.5323L43.8934 25.8634H40.1248C40.1248 25.8634 40.1248 25.8798 40.1248 25.8881C39.3873 25.9538 39.363 27.8106 38.8768 27.5641C38.6904 28.7061 37.7827 29.5441 37.5638 30.4314C37.2964 29.807 38.2851 28.6979 38.5526 27.8352C38.5526 27.712 38.5607 27.597 38.4715 27.5312C38.1717 27.9338 38.123 28.6979 37.734 29.273C37.6611 29.1087 37.4423 29.0265 37.3774 28.8622C37.191 29.3223 37.3288 29.5934 37.345 29.9385C37.2154 30.1192 36.8993 29.6756 37.1748 29.3305C36.6724 29.8892 36.4535 31.0312 36.2914 31.6967C36.5751 31.9513 36.6156 31.3187 36.8912 31.5241C37.0127 31.9678 36.5265 31.7049 36.3725 32.0006C36.332 32.1403 36.5022 32.165 36.5994 32.2225C35.8538 32.5511 35.1568 34.3093 34.4923 33.9807C34.2572 34.6954 33.9493 35.1144 33.6332 35.5417C33.6575 35.7306 33.7791 35.8703 33.852 36.0346C33.4468 36.4454 33.5684 36.9301 33.228 37.5545C33.1388 37.2506 33.0254 37.5381 32.8147 37.5299C32.6445 38.0064 33.2199 37.875 32.7174 38.0311C32.6688 38.4419 33.0902 38.1461 32.8471 38.7541C32.5715 38.1132 32.4986 39.2634 32.2068 38.7787C32.2311 39.247 32.0285 39.3949 32.1501 39.6989C32.0285 40.0439 31.5747 40.2247 31.6881 39.7975C31.1695 39.9782 31.0803 40.7176 30.9831 41.2845C31.1046 41.2435 31.1857 41.0545 31.3478 41.1531C31.1452 41.7857 30.6265 41.342 30.3671 41.7939L29.9862 44.2422H29.7917L29.4027 43.2235C29.4027 43.2235 29.3865 43.207 29.3865 43.1824L29.3379 43.0591C29.2244 43.166 29.1353 43.3631 29.0299 43.511C29.192 43.511 29.346 44.0122 28.8435 43.9793C28.8111 43.5603 29.0542 43.2481 29.2974 42.9606L28.7544 41.5392C28.5761 41.9582 28.3653 42.4265 28.2519 43.092C28.2114 42.9852 28.0736 42.8209 27.9763 42.9934C27.8953 42.7798 28.106 42.3772 27.9763 42.1883C27.798 42.139 27.7575 42.5498 27.563 42.4347C27.5306 42.5744 27.6278 42.5333 27.6522 42.4676C27.6684 43.1495 27.6116 43.93 27.0443 44.5298C27.02 44.2833 26.7364 44.0861 26.4527 44.1765C26.2906 44.0368 26.7607 43.7821 26.8255 43.5028C27.0038 43.6014 26.6472 44.0286 26.7769 44.1601C26.9957 44.3408 27.0524 43.9958 27.2388 44.0615C27.2307 43.8643 27.2469 43.6343 27.0119 43.5768C27.328 43.2563 27.1335 42.9195 27.5225 42.8209C27.4982 42.6237 27.3523 42.8209 27.3442 42.484C27.8224 41.95 28.106 41.2352 28.3734 40.5287L23.4217 27.5805C23.373 28.1556 23.2109 28.6979 23.2109 29.1169C23.3082 29.084 23.4136 29.0512 23.5351 29.1005C23.6729 28.78 23.4865 28.8047 23.7296 28.6321C23.5513 29.3058 23.1542 30.226 22.7166 30.5711C22.5707 31.023 22.7652 31.2037 22.8381 31.3023C22.6193 31.8445 22.4734 31.442 22.3357 31.2448C22.6274 30.4643 22.8544 30.2178 23.0164 29.5934C22.4572 29.388 22.0682 30.415 22.206 30.7847C22.1087 30.9326 21.9386 30.7929 21.7927 30.7683C21.5658 31.1708 21.5171 31.3516 21.2173 31.9185L20.8526 31.7788C20.9174 31.3269 21.1686 31.3269 21.4766 30.7847C21.582 30.4725 21.2497 30.8833 21.1119 30.645C21.1119 30.1521 21.5495 30.0781 21.5495 29.577C21.6387 29.8152 21.5495 30.1685 21.6225 30.4232C21.7927 30.3493 21.9386 30.1767 22.0925 30.0535C22.0601 29.7742 21.9142 29.5688 22.0196 29.2073C21.8899 29.0758 21.5009 29.4127 21.5658 29.0347C21.663 29.0019 22.3276 28.0817 22.1979 27.7695C22.595 27.408 22.5545 27.8599 22.5545 28.1803C22.903 28.1063 22.8706 27.6955 22.903 27.3505C22.6842 27.3505 22.4653 27.5723 22.4005 27.293C22.8057 27.1122 22.8219 26.7672 22.9516 26.2989L22.7814 25.8634H11.9215C11.9215 25.9291 11.9053 25.9949 11.9215 26.0688C11.8405 26.0277 11.8243 25.9538 11.8243 25.8634H11.6217L5.47852 61.134H7.18854C7.27769 60.8629 7.38305 60.641 7.70723 60.6328C7.56945 60.7561 7.49651 60.945 7.44788 61.134H16.541L19.2398 43.6507H19.4343L26.3149 61.134H26.323C26.323 61.134 26.3473 61.0683 26.3473 61.0354C26.3879 61.0683 26.4122 61.1011 26.4284 61.134H37.7584L38.9578 54.2573C39.7844 56.2702 40.9272 58.2009 42.386 59.9838C49.1856 68.2407 63.117 70.7136 72.4938 62.7772C75.0953 60.5753 77.9805 56.8864 80.817 52.647L80.7198 53.3125L78.2803 67.3369C78.2803 67.3369 78.3533 67.2712 78.4019 67.2548C78.8396 64.9297 79.885 62.3499 81.2871 60.8793C81.1817 60.4356 81.3519 60.2795 81.5707 59.7126C81.9273 59.9427 81.3924 61.438 81.206 61.1258C80.8576 61.8077 81.3438 61.364 81.1817 61.8077C81.0521 62.3417 80.9791 61.6434 80.7198 61.9473C80.9224 62.2678 80.8981 62.161 80.7927 62.6621C80.6225 62.5964 80.5091 62.4896 80.501 62.3006C80.1444 62.5307 80.2983 63.5248 79.7635 63.6152C79.8931 64.1985 80.2173 63.3194 80.2902 62.9332C80.5415 63.0154 80.5496 62.7772 80.663 63.0401C80.428 63.1469 80.2092 63.9356 80.2902 64.1821C80.1687 64.4121 80.0795 64.7161 79.8445 64.6093C80.1606 64.1821 79.8526 64.3957 79.958 63.952C79.6338 64.0588 79.9337 65.0776 79.3015 65.0119C79.3501 64.7325 79.4717 64.6914 79.5609 64.5271C79.0908 64.6997 79.0422 65.5623 78.8071 66.2607C78.6369 66.7536 78.4181 67.2712 78.1912 67.7888L77.9238 69.3416H89.2294L91.296 57.8312H94.635C96.3532 57.8312 97.9335 57.708 99.4004 57.4697C99.4328 57.3629 99.4328 57.2643 99.3599 57.1739C99.5625 56.8864 99.7651 57.2479 99.7813 57.4122C100.365 57.3136 100.932 57.1904 101.467 57.0507C103.461 56.5331 105.171 55.7444 106.581 54.6846C107.991 53.6247 109.061 52.2609 109.798 50.6013C110.536 48.9417 110.901 46.9781 110.901 44.727C110.901 41.6214 109.847 39.1484 107.772 37.2916V37.2999ZM92.6008 26.6028C92.3091 27.0794 92.3253 27.1204 92.0254 27.7859C91.8066 28.0817 92.301 26.3481 92.6008 26.6028ZM85.469 14.8624C85.3636 15.3225 84.8044 16.7274 84.3424 16.8424C84.618 16.4399 85.0151 15.684 85.469 14.8624ZM26.6634 40.7423C26.866 40.5862 27.4495 39.551 27.798 39.5428C27.3604 39.9782 27.4171 40.2493 26.866 40.8162L26.6634 40.7423C26.6229 40.7751 26.5905 40.7834 26.5905 40.7176L26.6634 40.7423ZM18.5428 26.6439C18.6644 26.7014 18.794 26.7589 18.867 26.6275C18.9075 26.8986 18.632 27.638 18.5185 27.7284C18.5185 27.3751 18.1862 27.2108 18.5428 26.6357V26.6439ZM16.3546 31.4502C16.4195 31.8035 16.8733 31.4173 16.9462 31.8117C16.7112 31.8692 16.071 31.976 16.3546 31.4502ZM14.3853 35.517C14.5554 35.5334 14.523 35.6731 14.4744 35.821C14.677 35.9525 14.7662 35.6731 14.9769 35.8703C14.7743 36.2975 14.0854 36.0675 14.3853 35.517ZM13.7288 36.1003C14.053 36.0839 13.7855 36.429 13.7288 36.6508C13.9476 36.8398 14.0368 36.5686 14.2313 36.7001L14.0368 37.1766C13.9071 37.152 13.9557 36.5851 13.7207 36.9219C13.6396 36.7001 13.6559 36.4208 13.7369 36.1003H13.7288ZM10.7788 45.1542C10.8436 45.261 10.7707 45.4664 10.9652 45.491C10.641 45.9758 10.714 46.0826 10.4141 46.6577C10.1142 46.4276 10.6653 45.6471 10.7788 45.1542ZM10.8679 46.822C10.7221 47.1506 10.5113 47.2739 10.2196 47.1424C10.3736 46.8466 10.641 46.8959 10.8679 46.822ZM9.99267 46.3783C10.252 46.0744 9.8711 46.9288 10.0818 46.9535C9.70091 47.1999 9.65228 46.6823 9.34431 46.9699C9.11739 46.3783 9.96025 47.0274 9.99267 46.3783ZM8.56629 57.9545C8.37179 57.6505 8.85805 57.3301 8.91478 56.9932C9.15791 57.3547 8.7689 57.6505 8.56629 57.9545ZM8.51767 48.8595C8.56629 48.9828 8.67975 49.0649 8.84184 49.106C8.71217 49.3196 8.49335 49.2375 8.42852 49.6483C8.35558 49.4511 8.41231 49.1717 8.51767 48.8595ZM7.13181 57.6094C6.82385 57.5026 6.90489 57.1493 7.02646 56.7632C7.39926 56.9932 7.05887 57.1493 7.13181 57.6094ZM7.06698 52.9839C7.32632 52.4498 7.56135 53.3947 7.845 52.8442C7.98278 53.1318 7.35874 53.2139 7.06698 52.9839ZM7.72343 59.6962C8.22591 58.9979 8.2178 58.7514 8.33126 58.012C8.71217 58.6199 8.88236 57.215 9.32811 57.2643C9.23896 58.1763 8.16918 58.546 8.48525 59.0061C8.24212 59.2608 8.11245 59.8852 7.72343 59.6962ZM9.10929 60.1481C9.1417 60.0002 9.20654 59.9427 9.28758 59.9427C9.32811 59.8277 9.20654 59.8112 9.1417 59.7619C9.34431 59.4415 9.32811 59.6716 9.55503 59.7619C9.43346 59.9755 9.33621 60.2713 9.10118 60.1481H9.10929ZM9.90352 51.2339C9.83058 51.0942 9.71712 50.9874 9.49019 50.9546C9.77385 50.971 10.1467 50.5027 10.2682 50.8149C10.1548 50.9874 9.93594 50.8149 9.90352 51.2339ZM9.75764 50.2316C9.91162 50.1001 10.098 50.0837 10.2115 49.8454C10.3655 49.829 10.2601 50.3877 10.4465 50.059C10.6896 50.2316 10.2601 50.2891 10.2682 50.5356C10.2115 50.363 9.99267 50.2891 9.75764 50.2234V50.2316ZM10.2763 56.3606C10.1629 56.188 10.3655 55.8183 10.3574 55.5801C10.7464 55.5965 10.487 56.2291 10.2763 56.3606ZM11.3218 49.4182C11.0624 49.3853 10.9166 49.6975 10.7302 49.8865C10.6086 49.4593 10.5357 49.714 10.1791 49.6975C10.5681 49.4346 10.3087 49.0814 9.90352 49.0567C10.0008 48.6623 10.2682 48.8267 10.406 48.5555C10.0737 48.5309 9.91162 48.6623 10.2196 48.2187C9.91162 48.0133 9.83058 48.5555 9.61986 48.687C9.95215 48.0379 11.5568 46.4194 12.1565 45.6307C12.3348 45.8279 11.8486 46.0415 11.8324 46.4687C12.0107 46.4194 12.1484 46.2387 12.2457 45.9347C12.4159 46.2798 12.0998 46.6741 11.9701 46.9288C12.3024 46.9452 12.4483 46.3373 12.7076 46.099C12.9346 46.3537 12.2862 46.6002 12.659 46.7645C12.4888 47.0931 12.1565 46.9042 11.9701 47.1999C12.0593 47.1999 12.035 47.2739 12.0188 47.356C12.2133 47.3725 12.27 46.9206 12.5212 47.126C12.0269 47.4793 11.6865 48.3419 11.2326 48.8431C11.2083 49.106 11.4109 49.2128 11.419 49.4511C11.3461 49.5825 11.3056 49.4839 11.3299 49.4182H11.3218ZM12.189 57.6751C11.9782 57.6258 12.3024 57.2397 12.3186 57.0507C12.7401 57.174 12.3997 57.5519 12.189 57.6751ZM12.2943 49.3443C12.6347 49.1224 12.7076 47.6272 13.6721 47.1178C13.9719 47.1835 13.3074 47.3807 13.6234 47.5121C13.2425 47.7997 12.351 49.1799 12.7968 49.6647C12.4564 50.018 12.4888 49.3936 12.2862 49.3525L12.2943 49.3443ZM13.7207 46.1812C13.9071 46.4605 13.3803 46.6741 13.356 47.1342C12.9021 46.8302 13.5262 46.5509 13.7207 46.1812ZM13.0723 54.7421C12.9265 54.586 13.3074 53.9533 13.5262 54.0848C13.4289 54.4792 13.2182 54.512 13.0723 54.7421ZM13.5667 53.9698C13.4695 53.8465 13.4938 53.6576 13.5667 53.4275C13.6721 53.4029 13.7693 53.3782 13.8423 53.255C13.899 53.4768 13.6802 53.7808 13.5748 53.9698H13.5667ZM13.9233 51.9323C13.826 51.7844 13.5991 51.7186 13.826 51.3571C14.2637 51.2585 14.207 51.5708 13.9233 51.9323ZM14.2718 47.1917C13.9638 47.5121 13.8423 46.2962 14.4096 46.5673C14.3934 46.7563 14.0611 47.1424 14.2718 47.1917ZM12.8454 46.0086C12.6185 45.91 12.5537 45.7129 12.6671 45.4007C12.7887 45.3349 12.9265 45.3432 13.0804 45.4089C13.1858 45.0967 13.1291 44.8995 12.9021 44.8009C13.664 44.4065 13.9557 43.8807 14.1989 42.8127C14.3934 42.6319 14.1664 43.1167 14.5635 42.9441C13.8098 43.9629 13.5505 44.9652 12.8454 46.0004V46.0086ZM15.0174 51.2421C14.4906 50.8478 14.9688 49.829 14.596 49.336C15.139 49.106 14.677 51.1846 15.2443 50.6424C15.4793 50.8395 15.0093 50.8971 15.0174 51.2339V51.2421ZM15.9899 43.0591L15.7144 42.9606C15.7873 42.5662 16.0548 42.8209 16.1358 42.4347C16.4032 42.6566 16.0953 42.673 15.9899 43.0674V43.0591ZM14.9364 42.2704C14.6041 41.9993 15.5928 40.9888 15.455 40.4136C15.6171 40.4876 15.7063 40.3397 15.8684 40.4301C15.7225 39.8796 15.8197 39.7482 16.2898 39.9043C15.5928 41.0791 15.4712 41.1366 14.9364 42.2704ZM16.0629 39.6824C16.3627 39.3127 16.5897 38.6801 16.9949 38.6637C16.7112 39.0991 16.5005 39.7975 16.0629 39.6824ZM17.0435 38.5404C16.9625 38.5897 17.2785 37.686 17.5136 37.8996C17.4244 38.335 17.2137 38.3597 17.0435 38.5404ZM17.2542 29.7249C17.3515 29.1497 17.7729 28.2953 18.3969 28.2378C18.2186 28.6732 17.9188 28.6732 17.6837 28.9279C17.6594 29.0265 17.7243 29.084 17.6837 29.199C17.9026 29.1251 18.1133 28.3692 18.2429 28.8622C17.8945 29.0676 17.6351 29.6345 17.2542 29.7249ZM18.3726 29.0512L18.2267 29.4044C18.0403 29.273 18.4293 28.8047 18.478 28.5418C18.5671 28.6322 18.5995 28.7636 18.5104 28.969C18.5833 29.0183 18.6158 28.9526 18.6482 28.8868C18.8832 29.0347 18.4942 29.2648 18.3645 29.0594L18.3726 29.0512ZM19.2317 33.8985C19.3208 34.3339 18.8022 35.0569 18.6076 35.4431C18.4861 34.868 18.9399 34.49 19.2317 33.8985ZM18.9967 37.0862C18.867 36.8644 19.1669 36.3879 18.9156 36.24C19.0372 35.8949 19.4586 36.6015 19.5153 36.051C19.7017 36.5276 19.0939 36.6508 18.9886 37.0862H18.9967ZM19.4343 38.6062C19.2236 38.2693 19.7098 37.7846 19.5478 37.2834C19.6693 37.3409 19.799 37.3984 19.8719 37.267C20.0016 37.5463 19.5397 38.1789 19.4424 38.6062H19.4343ZM19.4343 35.7471C19.1831 35.6895 19.5478 35.2623 19.2155 35.2541C19.2398 35.1473 19.2965 35.1555 19.3533 35.1637L19.4505 34.9255C19.5559 35.0159 19.5072 35.1884 19.6288 35.2623C19.7828 34.868 19.5478 34.7119 19.8314 34.2436C19.8719 34.3668 19.9854 34.449 20.1475 34.4983C20.0989 34.6133 20.0016 34.5475 19.9206 34.5475C19.7504 35.1309 19.8881 35.3527 19.4424 35.7306L19.4343 35.7471ZM19.9773 36.2236C19.9449 35.7635 20.2934 35.3034 20.4555 35.0405C20.5284 35.4842 20.0664 36.0593 19.9773 36.2236ZM19.9692 34.1696C19.8476 33.9314 20.2285 33.7917 20.1718 33.422C19.8557 33.1837 19.8152 33.8821 19.4748 33.5699C19.5559 33.0933 19.8395 33.3152 19.953 32.929C20.1232 33.4384 20.4149 32.6333 20.65 32.51C20.6662 32.699 20.5365 33.0276 20.269 33.1837C20.2447 33.4631 20.3258 33.6849 20.6743 33.7424C20.7877 33.9642 20.0745 33.7178 19.9773 34.1614L19.9692 34.1696ZM20.4068 27.2108L20.0421 27.0711C20.5122 26.9068 21.0309 26.1017 20.4068 27.2108ZM21.8818 33.1098C21.6387 32.9948 22.2222 32.1403 21.663 32.6168C21.5495 32.5347 21.7116 32.2882 21.7684 32.1074C22.1979 32.206 22.1412 32.6004 21.8899 33.1098H21.8818ZM25.4964 36.6426C25.6747 36.9055 25.31 37.2259 25.5288 37.6038C25.4559 37.8996 25.2614 37.7928 25.2046 38.1543C25.2857 37.6613 25.237 37.2423 25.5045 36.6426H25.4964ZM24.7184 51.8337C24.8318 51.4886 24.9534 51.1928 25.2208 51.3489C25.0912 51.6447 24.9696 51.9487 24.7184 51.8337ZM25.4072 51.4147C25.1803 51.2175 25.3748 51.201 25.4964 50.9135C25.2938 50.8806 25.1884 51.16 25.0344 51.2832C24.848 50.9874 25.4072 50.9299 25.4478 50.4945C25.5531 50.7327 25.7233 51.1928 25.4072 51.4147ZM25.5531 39.6414C25.156 39.5181 25.7476 38.8691 25.8449 38.6637C26.0151 38.828 25.618 39.3374 25.5531 39.6414ZM26.5824 60.9614C26.1366 60.8136 26.9066 59.8359 26.9795 60.4439C26.9147 60.83 26.6067 60.4767 26.5824 60.9614ZM27.7332 58.9897C27.5873 59.1704 27.563 58.9486 27.4577 58.8911C27.1578 59.2854 27.6278 59.2033 27.4252 59.5401C27.2875 59.4415 27.2145 59.573 27.1497 59.7126C26.8174 59.4908 27.255 58.7596 27.4495 58.3652C27.8386 57.5847 28.4383 56.7303 28.6571 56.2784C28.4788 57.1822 27.6522 58.2091 27.7332 58.9897ZM32.5067 59.8687C32.3851 59.2854 33.4063 58.2174 33.6575 57.1247C33.7142 57.9709 32.8795 59.2608 32.5067 59.8687ZM34.7192 54.0848C34.8165 53.8219 34.6057 53.8055 34.8975 53.6247C35.1406 53.8219 34.3545 55.0789 34.7192 54.0848ZM36.8588 31.3598C36.7129 31.0723 37.1181 30.7354 37.1586 30.3903C37.4666 30.5957 37.1829 31.2366 36.8588 31.3598ZM40.6435 34.449C40.5382 34.5475 40.3842 34.49 40.3193 34.7283C40.1572 34.7036 40.2059 34.5558 40.0924 34.5065C40.2545 34.3093 40.5868 34.2107 40.6435 34.449ZM42.7426 43.6836C42.8155 43.2974 43.5368 42.9031 43.0262 42.9934C43.3585 42.9113 43.3342 42.2622 43.8123 42.3608C44.0231 42.0322 43.6502 42.0486 43.8691 41.7118C44.2986 41.7775 43.9906 41.0381 44.4688 41.2763C43.8853 41.9829 43.5854 43.3303 42.7426 43.6836ZM44.3796 40.9805C44.2905 40.8902 44.25 40.7587 44.3391 40.5615C44.5823 40.7505 44.6471 40.3151 44.8902 40.504C44.8092 40.9723 44.4769 40.5533 44.3796 40.9723V40.9805ZM46.584 37.4313C46.3652 37.2341 46.2842 37.5052 46.0816 37.3738C46.6408 37.0452 47.0136 36.4454 46.584 37.4313ZM47.0298 33.5863C46.5759 33.4631 47.1189 33.6685 46.8839 33.9314C46.6165 34.0792 46.7461 33.7999 46.4301 33.7506C46.4544 33.8821 46.422 34.0464 46.3247 34.2436C46.7218 34.1203 46.657 34.5722 46.2761 34.3586C46.3976 34.49 46.2761 34.7612 46.3571 34.9255C45.5062 35.6731 45.4575 37.0698 44.5174 37.5628C44.4607 37.875 44.2905 38.8773 43.8529 38.6473C44.1932 39.1731 43.01 39.5756 43.3261 40.1836C43.2288 40.3068 43.1154 40.3726 42.9614 40.3068C42.8236 42.4183 40.1897 42.9195 40.1167 45.2199C39.7439 45.2035 40.2464 44.6695 39.9384 44.6202C39.7196 44.5134 39.5818 44.6941 39.436 44.8338C39.3954 44.9734 39.5656 44.9981 39.6629 45.0556C39.3873 45.4007 39.0388 45.4993 38.7876 45.9265C38.6579 45.6389 39.3873 45.0309 38.9335 44.7845C40.1086 43.3303 40.4895 41.5885 41.7295 40.2411C41.843 40.0604 41.7457 39.9946 41.6404 39.9371C41.9321 39.7317 42.0294 38.8444 42.386 38.8855C42.3211 38.0311 43.2774 37.2999 43.7961 36.7576C44.0798 35.3116 45.1496 34.3504 46.0086 33.9971C45.725 33.5781 46.4301 33.2248 46.8029 33.3727C46.7948 33.233 46.6408 33.1673 46.7623 32.9537C47.0379 32.8058 47.127 33.2577 47.0217 33.5945L47.0298 33.5863ZM73.9445 53.6411L73.669 53.559C73.7581 53.14 73.9688 53.0989 74.1147 52.8442C74.3983 53.0085 74.0823 53.37 73.9445 53.6411ZM84.9098 49.5168C84.8611 49.8043 84.6666 49.6318 84.5856 49.829C84.5856 49.7058 84.6099 49.0403 84.9503 49.1142C84.8935 49.2128 84.8125 49.2046 84.772 49.336C84.7315 49.4593 84.853 49.4675 84.9098 49.5168ZM98.2739 48.3584C97.3905 48.8924 96.1587 49.1553 94.5864 49.1553H92.771L93.8489 43.0756H95.567C95.567 43.0756 95.64 43.0756 95.6805 43.0756C95.721 42.9852 95.7534 42.903 95.8102 42.7962C95.948 42.8455 95.9804 42.9441 95.9561 43.0838C97.0177 43.1249 97.8768 43.3138 98.5252 43.6671C99.2464 44.0697 99.603 44.8009 99.603 45.8608C99.603 46.9863 99.1573 47.8243 98.2739 48.3501V48.3584ZM103.599 40.1836C103.663 40.2904 103.59 40.4958 103.785 40.5205C103.461 41.0052 103.534 41.112 103.234 41.6871C102.934 41.4571 103.485 40.6766 103.599 40.1836ZM103.688 41.8514C103.542 42.1801 103.331 42.3033 103.039 42.1718C103.193 41.8761 103.461 41.9254 103.688 41.8514ZM102.812 41.4078C103.072 41.1038 102.691 41.9582 102.902 41.9829C102.521 42.2294 102.472 41.7118 102.164 41.9993C101.937 41.4078 102.78 42.0568 102.812 41.4078ZM101.386 52.9839C101.191 52.6799 101.678 52.3595 101.734 52.0226C101.978 52.3841 101.589 52.6799 101.386 52.9839ZM101.337 43.889C101.386 44.0122 101.499 44.0943 101.662 44.1354C101.532 44.349 101.313 44.2669 101.248 44.6777C101.175 44.4805 101.232 44.2011 101.337 43.889ZM100.673 47.8736C100.811 48.1612 100.187 48.2433 99.8948 48.0133C100.154 47.4793 100.389 48.4241 100.673 47.8736ZM99.8462 51.7926C100.219 52.0226 99.8786 52.1787 99.9515 52.6388C99.6436 52.532 99.7246 52.1787 99.8462 51.7926ZM99.676 56.8617C100.073 56.4099 99.9272 55.6622 100.519 55.654C100.057 56.073 100.316 57.1411 99.676 56.8617ZM101.313 54.0355C101.07 54.2902 100.94 54.9146 100.551 54.7256C101.054 54.0273 101.046 53.7808 101.159 53.0414C101.54 53.6494 101.71 52.2445 102.156 52.2937C102.067 53.2057 100.997 53.5754 101.313 54.0355ZM101.937 55.1775C101.97 55.0296 102.034 54.9721 102.115 54.9721C102.156 54.8571 102.034 54.8407 101.97 54.7914C102.172 54.4709 102.156 54.701 102.383 54.7914C102.261 55.005 102.164 55.3007 101.929 55.1775H101.937ZM102.731 46.2633C102.658 46.1237 102.545 46.0169 102.318 45.984C102.602 46.0004 102.974 45.5321 103.096 45.8443C102.983 46.0168 102.764 45.8443 102.731 46.2633ZM102.585 45.261C102.739 45.1295 102.926 45.1131 103.039 44.8748C103.193 44.8584 103.088 45.4171 103.274 45.0885C103.517 45.261 103.088 45.3185 103.096 45.565C103.039 45.3924 102.82 45.3185 102.585 45.2528V45.261ZM103.104 51.39C102.991 51.2175 103.193 50.8478 103.185 50.6095C103.574 50.6259 103.315 51.2585 103.104 51.39ZM104.15 44.4476C103.89 44.4148 103.744 44.727 103.558 44.9159C103.436 44.4887 103.363 44.7434 103.007 44.727C103.396 44.4641 103.137 44.1108 102.731 44.0861C102.829 43.6918 103.096 43.8561 103.234 43.585C102.902 43.5603 102.739 43.6918 103.047 43.2481C102.739 43.0427 102.658 43.585 102.448 43.7164C102.78 43.0674 104.385 41.4488 104.984 40.6601C105.163 40.8573 104.676 41.0709 104.66 41.4981C104.838 41.4488 104.976 41.2681 105.074 40.9641C105.244 41.3092 104.928 41.7035 104.798 41.9582C105.13 41.9747 105.276 41.3667 105.535 41.1284C105.762 41.3831 105.114 41.6296 105.487 41.7939C105.317 42.1225 104.984 41.9336 104.798 42.2294C104.887 42.2294 104.863 42.3033 104.847 42.3855C105.041 42.4019 105.098 41.95 105.349 42.1554C104.855 42.5087 104.514 43.3714 104.06 43.8725C104.036 44.1354 104.239 44.2422 104.247 44.4805C104.174 44.6119 104.133 44.5134 104.158 44.4476H104.15ZM105.017 52.7045C104.806 52.6552 105.13 52.2691 105.146 52.0801C105.568 52.2034 105.227 52.5813 105.017 52.7045ZM105.122 44.3737C105.463 44.1519 105.535 42.6566 106.5 42.1472C106.8 42.2129 106.135 42.4101 106.451 42.5416C106.07 42.8291 105.179 44.2094 105.625 44.6941C105.284 45.0474 105.309 44.423 105.114 44.3819L105.122 44.3737ZM106.549 41.2106C106.735 41.4899 106.208 41.7035 106.184 42.1636C105.73 41.8596 106.354 41.5803 106.549 41.2106ZM105.9 49.7715C105.754 49.6154 106.135 48.9828 106.354 49.1142C106.257 49.5086 106.046 49.5414 105.9 49.7715ZM106.395 48.9992C106.297 48.876 106.322 48.687 106.395 48.457C106.5 48.4323 106.597 48.4077 106.67 48.2844C106.727 48.5062 106.508 48.8102 106.403 48.9992H106.395ZM106.751 46.9617C106.654 46.8138 106.427 46.7481 106.654 46.3866C107.092 46.288 107.035 46.6002 106.751 46.9617ZM107.1 42.2211C106.792 42.5416 106.67 41.3256 107.237 41.5967C107.221 41.7857 106.889 42.1718 107.1 42.2211ZM105.673 41.0381C105.446 40.9395 105.381 40.7423 105.495 40.4301C105.617 40.3644 105.754 40.3726 105.908 40.4383C106.014 40.1261 105.957 39.9289 105.73 39.8303C106.492 39.436 106.784 38.9102 107.027 37.8421C107.221 37.6613 106.994 38.1461 107.391 37.9736C106.638 38.9923 106.378 39.9946 105.673 41.0298V41.0381ZM107.845 46.2715C107.318 45.8772 107.797 44.8584 107.424 44.3655C107.967 44.1354 107.505 46.214 108.072 45.6718C108.307 45.869 107.837 45.9265 107.845 46.2633V46.2715Z" fill="white"/>
<path d="M23.13 27.3012C23.1867 27.3012 23.2434 27.2683 23.2921 27.2108L23.0895 26.6768C22.9355 26.9479 22.8382 27.2437 23.13 27.3094V27.3012Z" fill="white"/>
<path d="M35.943 26.2742C35.7729 26.9397 35.7485 26.6768 35.4568 27.1697C35.7566 27.2437 35.781 27.6134 36.097 27.4162C36.097 26.9315 36.3807 26.7425 36.5914 26.2495C36.2834 25.9209 36.324 26.8493 36.0727 26.7261C35.8377 26.685 36.3483 26.2167 35.9512 26.266L35.943 26.2742Z" fill="white"/>
<path d="M35.87 28.6897C35.6268 29.0348 36.0969 28.969 36.0888 29.1826C35.9105 29.3059 35.6674 29.2237 35.4891 29.3552C35.5458 29.766 35.4891 29.7002 35.327 30.2425C35.0433 30.5629 35.4647 29.766 35.3432 29.7085C34.9704 29.7988 35.1 30.5629 34.865 30.604C34.476 30.4725 34.7353 30.0617 34.3625 30.5465C34.0708 30.5629 34.8731 30.0042 35.0271 29.7167C34.5084 29.3962 36.105 28.9033 36.0483 27.8024C35.8294 28.0899 35.4809 28.205 35.8213 27.5805C35.173 27.6874 35.0352 29.6345 34.2167 29.1251C34.2896 28.9937 34.2815 28.9115 34.2167 28.854C34.6057 28.9937 34.6219 27.7613 35.0271 27.942C35.0028 27.4655 35.4404 27.2683 35.2378 26.9397C35.5863 26.7261 35.8456 26.1921 36.1617 25.8552H35.5134C35.4647 26.0524 35.4242 26.2578 35.4323 26.4796C35.2135 26.3728 35.2378 26.1181 35.2864 25.8552H32.8551L30.594 40.4219C30.8939 39.9454 31.2423 39.4113 31.4369 39.1567C31.4774 38.9923 31.2505 38.9759 31.1208 38.902C31.9798 38.5733 32.6768 36.5112 32.9605 35.9525C33.5035 35.3281 34.6705 33.1755 34.8326 32.2061C35.0757 31.7953 35.5134 31.9185 35.4972 31.3763C35.643 31.3188 35.8051 31.3188 35.9996 31.4338L36.1455 31.0805C36.186 30.9244 36.0158 30.8915 35.9672 31.0066C36.413 29.8399 37.3531 28.435 37.7826 26.7015C37.037 27.1615 36.9316 28.9033 35.8862 28.6733L35.87 28.6897ZM34.9785 26.0278C35.0595 26.3317 35.0109 27.6216 34.476 27.4655C34.8893 27.0137 34.5652 26.7836 34.9704 26.2989C34.7434 26.2496 34.6138 26.5782 34.4112 26.6275C34.1194 26.7672 34.8407 26.2249 34.9785 26.036V26.0278ZM34.1437 28.016C34.3301 28.1146 34.476 28.0324 34.5652 27.7695C34.7921 28.3282 34.1032 28.0242 34.0384 28.5172C33.7709 28.854 34.0708 28.1639 34.1437 28.016ZM34.0546 29.4784C34.0789 29.3716 34.1356 29.3798 34.1923 29.3962L34.3706 29.4702C34.2896 29.766 34.0951 29.6592 34.0384 30.0207C33.544 29.9303 34.3382 29.6427 34.0546 29.4866V29.4784ZM33.0577 27.3259C33.3576 27.5477 32.8794 27.9174 32.7173 28.1474C32.6282 28.0817 32.7498 27.8928 32.6363 27.8435C32.7984 27.7449 32.9848 27.7366 33.0658 27.3259H33.0577ZM32.8551 33.6274C32.7984 33.4959 33.2766 32.8223 33.6007 33.1016C33.3657 33.3234 33.1226 33.5288 32.8551 33.6274ZM33.8601 31.7131C33.9978 31.6227 34.2086 31.8035 34.2815 31.4666C34.395 31.631 34.2491 31.9514 34.4517 32.0746C34.395 32.3129 33.9654 32.0828 34.2248 31.8528C33.8358 31.9021 34.0384 32.5511 33.6169 32.2964C33.5764 32.4361 33.7385 32.4608 33.8439 32.5183C33.3738 32.888 32.8146 32.9291 32.4823 33.7589C32.0609 33.5535 32.7011 32.3211 33.0658 32.3539C32.9848 32.6497 32.7984 32.5429 32.7336 32.9044C33.4305 32.8058 33.852 31.6145 33.5116 31.0394C33.2036 31.2037 33.0496 31.9185 32.7092 31.9514C32.6606 31.672 33.3009 31.368 33.4224 30.7354L33.7871 30.8751L33.6412 31.2202C33.8114 30.9573 34.1437 31.2941 34.2491 30.7765C34.3301 31.0641 34.4436 30.7765 34.7029 30.949C34.3869 31.3023 34.2896 31.1544 33.8195 31.2859C33.8277 31.4256 33.9816 31.4913 33.852 31.7049L33.8601 31.7131Z" fill="white"/>
<path d="M35.4485 32.9948C35.7484 32.8962 36.0077 32.6744 36.2022 32.2061L35.8375 32.0664C35.6916 32.4279 35.3999 32.5594 35.4485 32.9948Z" fill="white"/>
<path d="M33.1551 37.2505C33.3253 37.0122 33.6009 36.5521 33.1713 36.4453C33.1308 36.7329 32.9606 37.1026 33.1551 37.2505Z" fill="white"/>
<path d="M158.392 35.0979C158.49 34.5967 159.016 34.3995 158.708 34.1284C158.579 34.2106 158.02 35.0322 158.392 35.0979Z" fill="white"/>
<path d="M161.002 35.4677C160.913 35.8374 160.67 36.2975 160.872 36.5111C160.921 36.3468 161.464 36.5686 161.205 36.2317C160.775 36.5275 161.497 35.4266 161.002 35.4677Z" fill="white"/>
<path d="M156.731 40.1752C156.52 40.1424 156.261 40.356 156.099 40.586L156.034 40.964C156.472 40.9804 156.334 40.3806 156.731 40.1752Z" fill="white"/>
<path d="M161.172 42.2129C160.889 42.369 160.427 42.9441 160.629 43.2234C160.88 43.1331 161.683 42.4511 161.172 42.2129Z" fill="white"/>
<path d="M157.355 38.2363C157.306 38.4992 156.917 38.9593 157.096 39.0908C157.363 39.0004 157.728 38.4089 157.355 38.2363Z" fill="white"/>
<path d="M158.012 37.9488C158.133 37.6448 158.076 37.4476 157.849 37.3408C157.712 37.4476 157.598 37.6037 157.509 37.8913C157.704 38.0145 157.866 38.0145 158.012 37.957V37.9488Z" fill="white"/>
<path d="M153.57 55.5061C153.53 55.7937 153.36 56.1634 153.554 56.3113C153.724 56.073 154 55.6129 153.57 55.5061Z" fill="white"/>
<path d="M159.762 34.071H159.357C159.195 34.1942 159.09 34.2928 158.83 34.5803C159.017 35.3526 157.931 36.3878 158.004 36.9876C158.409 36.8233 158.23 36.3632 158.668 36.4289C158.806 35.7141 159.568 35.139 159.349 34.3749C159.487 34.3749 159.705 34.2188 159.77 34.0627L159.762 34.071Z" fill="white"/>
<path d="M159.016 44.7599C159.065 44.497 159.511 44.0122 159.13 43.9876C159.106 43.8972 158.692 44.7599 159.016 44.7599Z" fill="white"/>
<path d="M156.269 47.7504C156.026 48.0955 156.496 48.0298 156.488 48.2434C156.31 48.3666 156.066 48.2845 155.888 48.4159C155.945 48.8267 155.888 48.761 155.726 49.3032C155.442 49.6236 155.864 48.8267 155.742 48.7692C155.37 48.8596 155.499 49.6236 155.264 49.6647C154.875 49.5333 155.134 49.1225 154.762 49.6072C154.47 49.6236 155.272 49.065 155.426 48.7774C154.908 48.457 156.504 47.964 156.447 46.8713C156.229 47.1589 155.88 47.2739 156.22 46.6495C155.621 46.7563 155.459 48.4324 154.786 48.268L154.745 48.5145L154.794 48.5309C154.77 48.6049 154.745 48.6542 154.713 48.6953L154.462 50.1412C154.551 50.1166 154.632 50.0509 154.673 49.8373C154.754 50.1248 154.867 49.8373 155.126 50.0098C154.859 50.3056 154.737 50.2563 154.429 50.3138L154.356 50.7492C154.486 50.7328 154.648 50.8149 154.705 50.5274C154.818 50.6917 154.673 51.0121 154.875 51.1354C154.818 51.3736 154.389 51.1436 154.648 50.9135C154.348 50.9546 154.397 51.3408 154.243 51.3983L154.219 51.5462C154.219 51.5462 154.251 51.5626 154.267 51.5708C154.251 51.5872 154.227 51.5954 154.211 51.6119L153.692 54.5696C154.284 53.6823 155.102 52.072 155.24 51.2668C155.483 50.856 155.921 50.9793 155.904 50.437C156.05 50.3795 156.212 50.3795 156.407 50.4945L156.553 50.1412C156.593 49.9851 156.423 49.9523 156.374 50.0673C156.82 48.9007 157.76 47.4957 158.19 45.7622C157.444 46.2223 157.339 47.964 156.293 47.734L156.269 47.7504Z" fill="white"/>
<path d="M155.84 52.0553C156.139 51.9568 156.399 51.7349 156.593 51.2666L156.229 51.127C156.083 51.4884 155.791 51.6199 155.84 52.0553Z" fill="white"/>
<path d="M155.272 45.3759L155.24 45.5566C155.272 45.4991 155.313 45.4334 155.369 45.3677C155.329 45.3677 155.305 45.3677 155.272 45.3841V45.3759Z" fill="white"/>
<path d="M161.075 34.071H160.824C160.524 34.7858 160.24 35.4677 160.297 35.8621C160.24 35.7471 160.321 35.5581 160.127 35.517C159.884 35.8621 160.256 35.8539 160.2 36.0921C159.681 36.3633 159.438 37.0452 159.405 37.686C158.984 36.9137 158.579 38.5815 158.044 38.3679C157.833 38.7541 157.785 39.0416 158.157 39.0991C158.66 38.598 158.814 37.9736 159.227 37.6121C159.608 37.9407 158.757 38.4829 158.903 38.8527C159.989 37.8832 160.451 35.5581 161.594 34.6051C161.877 34.6215 161.294 35.1227 161.569 35.1473C161.853 35.0076 161.975 34.2189 162.299 34.2107C162.282 34.1696 162.274 34.1203 162.258 34.0793H161.48C161.342 34.1532 161.164 34.1696 161.083 34.0793L161.075 34.071Z" fill="white"/>
<path d="M156.334 45.335C156.164 46.0005 156.139 45.7376 155.848 46.2305C156.148 46.3045 156.172 46.6742 156.488 46.477C156.488 45.9923 156.772 45.8033 156.982 45.3103C156.674 44.9817 156.715 45.9101 156.464 45.7869C156.229 45.7458 156.739 45.2775 156.342 45.3268L156.334 45.335Z" fill="white"/>
<path d="M163.717 59.2031L163.79 58.7266C163.693 58.8744 163.652 59.0305 163.717 59.2031Z" fill="white"/>
<path d="M157.242 44.1929C157.128 44.4886 157.015 44.7598 156.853 44.8584C157.306 45.2034 157.533 44.3572 157.242 44.1929Z" fill="white"/>
<path d="M158.741 41.9254C158.141 42.024 158.076 42.4759 157.777 41.95C157.615 41.9665 157.477 42.0404 157.355 42.1883C157.298 42.5416 157.76 42.1061 157.76 42.4841C156.966 43.2481 155.799 44.193 155.823 45.5321C155.337 45.2857 156.034 44.3573 155.597 44.0779C155.872 43.6179 155.864 43.6589 156.123 43.3303C156.14 43.1906 155.945 42.7798 155.848 43.2235C155.856 42.6648 156.294 42.747 156.658 42.3198C156.415 41.8761 157.023 41.8761 157.015 41.2353C157.461 41.9254 156.334 42.6237 156.107 43.6014C157.298 42.3608 157.558 40.9559 158.538 39.6578C158.498 39.2306 157.947 39.4442 157.801 39.6414C157.825 39.8632 157.995 40.0029 157.825 40.3315C157.655 40.3151 157.696 40.1754 157.744 40.0275C157.331 40.2904 157.687 41.2188 157.193 41.3092C157.031 41.0792 157.007 40.767 157.039 40.4301C156.569 40.6602 156.188 41.605 156.058 42.2294C155.953 42.254 155.872 42.2951 155.791 42.3362L155.297 45.1707C155.297 45.1707 155.353 45.1131 155.37 45.0885C155.434 45.3514 155.41 46.3373 155.062 46.5098L154.981 46.9617C154.997 47.0356 154.981 47.0932 154.948 47.1342L154.835 47.7997C155.021 47.5122 155.102 46.8713 155.402 47.011C155.378 46.5345 155.815 46.3373 155.613 46.0087C156.01 45.7704 156.285 45.1049 156.658 44.7845C156.691 44.5955 156.52 44.7845 156.383 44.6777C156.683 44.1026 157.112 43.9629 157.598 44.0697C157.663 43.8561 157.558 43.7411 157.331 43.6918C157.452 43.5357 157.59 43.4535 157.712 43.2974C157.801 43.3632 157.679 43.5521 157.793 43.6014C158.036 43.4864 157.841 42.8784 157.914 42.558C158.125 42.1308 158.587 42.6402 158.717 41.9254H158.741ZM157.023 43.9711C156.934 43.9629 156.958 43.889 156.982 43.8233C157.015 43.6343 156.845 43.8233 156.707 43.7164C156.812 43.396 157.023 43.4864 157.217 43.5111L157.023 43.9794V43.9711Z" fill="white"/>
<path d="M159.713 39.1813C159.859 38.7623 159.827 38.3433 160.289 38.5898L160.994 36.963C160.775 37.0041 160.84 36.4947 160.629 36.8151C160.686 36.8726 160.808 36.8891 160.759 37.0041C160.386 37.3738 160.451 37.6614 160.305 38.0557L160.03 37.9489C160.021 38.409 159.681 38.4172 159.446 38.8034C160.013 38.5158 159.422 39.3949 159.705 39.1813H159.713Z" fill="white"/>
<path d="M178.824 69.3416H179.14C179.051 69.1773 178.921 69.013 178.824 69.3416Z" fill="white"/>
<path d="M185.575 53.4851C186.077 52.7867 186.069 52.5402 186.182 51.8008C186.263 51.9323 186.345 51.9651 186.409 51.9405L186.45 51.6858C186.45 51.6858 186.417 51.7269 186.409 51.7433C186.296 51.5708 186.409 51.39 186.531 51.2093L187.633 44.8913C187.56 44.8256 187.471 44.7763 187.341 44.7599C187.447 44.7599 187.568 44.7023 187.682 44.6366L187.779 44.0862C187.73 44.0697 187.674 44.0533 187.617 44.0369C187.682 43.9876 187.747 43.9465 187.811 43.9136L187.982 42.9195C187.917 42.8866 187.836 42.862 187.747 42.862C187.803 42.6237 187.925 42.5909 188.046 42.5416L188.079 42.3608C187.876 42.3608 187.82 42.3855 188.071 42.0322C187.763 41.8268 187.682 42.369 187.471 42.5005C187.593 42.2622 187.884 41.8925 188.233 41.49L188.322 40.9888C188.249 40.9888 188.16 40.9888 188.071 40.9477C188.152 40.7998 188.257 40.7341 188.371 40.7012L188.517 39.855C188.46 40.0111 188.403 40.1836 188.249 40.463C187.949 40.2329 188.5 39.4524 188.614 38.9595C188.63 38.9923 188.638 39.0334 188.646 39.0745L189.513 34.0957H178.459L175.606 52.4745H175.412L168.385 34.0957H166.391C166.489 34.1121 166.61 34.0957 166.708 34.1121C166.602 34.3175 166.708 34.3997 166.594 34.6133C166.473 34.145 166.205 34.5311 166.011 34.2436C166.205 34.7858 165.913 34.868 165.541 35.5499C165.395 35.0816 165.079 35.8457 164.754 35.6403C164.479 36.4208 164.584 36.4619 164.187 37.1849C164.066 37.6532 164.503 37.3245 164.536 37.6039C164.341 37.686 164.22 38.0393 163.976 37.9243C164.009 38.3762 164.155 38.0722 164.43 38.105C164.252 38.8527 163.83 38.6801 163.652 39.4278C163.547 39.3128 163.498 39.1649 163.393 39.0498C163.223 39.551 163.004 39.7153 162.647 40.5205C162.785 40.6273 162.858 40.4958 162.931 40.3562C162.996 40.5533 162.931 40.8245 162.809 41.1202C162.696 41.0956 162.663 41.0299 162.68 40.9313C161.918 41.6296 160.645 43.5932 160.524 44.9652C159.786 45.031 159.762 46.8878 159.276 46.6413C159.089 47.7833 158.182 48.6213 157.963 49.5086C157.695 48.8842 158.684 47.7751 158.952 46.9124C158.952 46.7892 158.96 46.6741 158.871 46.6084C158.571 47.011 158.522 47.7751 158.133 48.3502C158.06 48.1859 157.841 48.1037 157.777 47.9394C157.59 48.3995 157.728 48.6706 157.744 49.0157C157.614 49.1964 157.298 48.7527 157.574 48.4077C157.071 48.9664 156.853 50.1084 156.691 50.7738C156.974 51.0285 157.015 50.3959 157.29 50.6013C157.412 51.045 156.926 50.7821 156.772 51.0778C156.731 51.2175 156.901 51.2421 156.998 51.2997C156.253 51.6283 155.556 53.3865 154.891 53.0578C154.656 53.7726 154.348 54.1998 154.032 54.6189C154.057 54.8078 154.178 54.9475 154.251 55.1118C153.846 55.5226 153.967 56.0073 153.627 56.6317C153.554 56.377 153.465 56.5331 153.311 56.5906L153.254 56.9357C153.319 57.0097 153.392 57.0179 153.23 57.0672L153.181 57.3301C153.27 57.4122 153.416 57.4122 153.246 57.823C153.198 57.7162 153.165 57.6751 153.125 57.6505L151.082 69.3581H162.137L162.153 69.2512C161.91 69.0869 162.096 68.6186 162.331 68.0764L163.15 62.7525C163.15 62.7525 163.125 62.769 163.117 62.769C163.125 62.7197 163.142 62.6786 163.166 62.6293L163.685 59.2854C163.595 59.3923 163.482 59.4415 163.344 59.384C163.206 61.4955 160.573 61.9967 160.5 64.2971C160.127 64.2807 160.629 63.7466 160.321 63.6973C160.102 63.5905 159.965 63.7713 159.819 63.911C159.778 64.0506 159.948 64.0753 160.046 64.1328C159.77 64.4778 159.422 64.5764 159.17 65.0037C159.041 64.7161 159.77 64.1081 159.316 63.8617C160.491 62.4075 160.872 60.6657 162.112 59.3183C162.226 59.1376 162.129 59.0718 162.023 59.0143C162.315 58.8089 162.412 57.9216 162.769 57.9627C162.704 57.1082 163.66 56.377 164.179 55.8348C164.203 55.7198 164.236 55.613 164.268 55.4979L164.827 51.8665H165.022L165.662 53.4933C165.905 53.3125 166.148 53.1729 166.383 53.0743C166.1 52.6553 166.805 52.302 167.178 52.4499C167.17 52.3102 167.016 52.2445 167.137 52.0309C167.413 51.883 167.502 52.3349 167.396 52.6717C166.943 52.5485 167.486 52.7539 167.251 53.0168C166.983 53.1646 167.113 52.8853 166.797 52.836C166.821 52.9675 166.789 53.1318 166.691 53.329C167.088 53.2057 167.024 53.6576 166.643 53.444C166.764 53.5754 166.643 53.8466 166.724 54.0109C166.481 54.2245 166.31 54.4874 166.156 54.7667L166.74 56.2374C167.113 55.9416 167.299 55.7033 166.951 56.5003C166.902 56.451 166.862 56.4346 166.821 56.4346L171.902 69.3416H178.751C178.726 68.9144 178.897 68.4707 179.132 67.9778C179.407 68.6597 179.423 67.263 179.853 67.6574C179.869 67.3698 179.626 67.2548 179.545 67.033C180.599 64.1985 181.474 62.8593 182.576 60.7314C182.617 60.6164 182.722 60.6739 182.803 60.6657L182.989 60.7232C182.292 61.5777 182.057 63.0319 181.06 64.2807C181.093 64.4121 181.166 64.5189 181.263 64.6093C181.028 64.9626 180.761 65.3898 180.769 65.7924C180.631 65.7102 180.566 65.8581 180.445 65.8335C180.59 66.236 179.804 66.9426 180.323 67.1316C180.137 67.5506 179.877 67.5999 179.918 68.0764C179.48 68.3393 179.302 68.1914 179.026 68.6186C179.059 68.7665 179.367 68.6679 179.415 68.9966C179.326 69.0623 179.261 69.1937 179.213 69.3416H183.346L186.207 52.9264C186.02 53.2139 185.874 53.6494 185.542 53.4851H185.575ZM187.844 40.1672C188.103 39.8632 187.722 40.7177 187.933 40.7423C187.552 40.9888 187.503 40.4712 187.195 40.7587C186.969 40.1672 187.811 40.8163 187.844 40.1672ZM186.369 42.6484C186.417 42.7716 186.531 42.8538 186.693 42.8949C186.563 43.1085 186.345 43.0263 186.28 43.4371C186.207 43.2399 186.263 42.9606 186.369 42.6484ZM157.258 50.437C157.112 50.1494 157.517 49.8126 157.558 49.4675C157.866 49.6729 157.582 50.3138 157.258 50.437ZM158.976 52.4006L158.7 52.3184C158.79 51.8994 159 51.8583 159.146 51.6036C159.43 51.768 159.114 52.1295 158.976 52.4006ZM160.718 53.8055C160.556 53.7808 160.605 53.633 160.491 53.5837C160.654 53.3865 160.986 53.2879 161.043 53.5261C160.937 53.6247 160.783 53.5672 160.718 53.8055ZM165.395 36.1497C165.735 36.3304 165.119 36.5112 165.516 36.6097C165.451 36.9712 165.257 36.8562 165.176 37.152C165.135 36.8809 165.241 36.5276 165.403 36.1497H165.395ZM166.862 45.2939C166.57 45.1953 166.675 44.8749 166.748 44.5709C166.991 44.6941 167.048 44.9242 166.862 45.2939ZM166.699 43.1988C166.578 43.3385 166.343 43.0756 166.238 43.2892C166.74 43.3385 165.654 44.2751 166.011 44.5545C165.63 44.3901 165.589 44.842 165.046 44.5791C165.087 44.7023 164.965 44.916 165.079 44.9981C164.957 45.2528 164.916 44.7599 164.625 44.8174C164.998 44.1437 165.63 43.3714 165.751 42.6895C165.889 42.7305 166.448 42.3937 166.043 42.2622C166.116 42.1308 166.254 42.2294 166.367 42.2622C166.229 41.3503 167.542 40.8409 167.729 40.0933C167.777 40.5369 167.631 40.389 168.045 40.3562C167.332 40.9724 167.097 42.2376 166.708 43.2071L166.699 43.1988ZM169.949 48.2762C169.901 48.5638 169.706 48.3912 169.625 48.5884C169.625 48.4652 169.649 47.7997 169.99 47.8737C169.933 47.9722 169.852 47.964 169.812 48.0955C169.771 48.2187 169.893 48.2269 169.949 48.2762ZM179.885 43.5686C179.804 43.1167 180.137 43.3303 180.388 43.3303C180.258 43.815 179.999 43.8643 179.885 44.3984C179.691 44.308 180.145 43.3221 179.885 43.5768V43.5686ZM179.95 59.5073C179.78 59.0718 180.372 58.8007 180.461 58.3242C180.607 58.7021 180.072 59.1211 179.95 59.5073ZM180.436 43.2071C180.153 43.2071 180.339 42.9031 180.161 42.8373C180.558 42.5334 180.509 42.2212 180.85 41.5639C181.393 41.7446 180.331 42.7798 180.436 43.2071ZM180.631 68.5447L180.347 68.4625C180.501 68.3475 180.509 68.2325 180.331 68.1914C180.445 67.8874 180.623 67.756 180.866 67.8135C180.663 68.1421 180.663 68.1668 180.631 68.5447ZM181.223 65.7924C181.328 65.398 181.555 65.3323 181.636 64.8476C181.911 64.9461 181.571 66.0553 181.223 65.7924ZM185.712 46.6413C185.85 46.9288 185.226 47.011 184.934 46.7809C185.194 46.2469 185.429 47.1917 185.712 46.6413ZM184.886 50.5602C185.259 50.7903 184.918 50.9464 184.991 51.4065C184.683 51.2997 184.764 50.9464 184.886 50.5602ZM182.884 57.8641C183.257 57.8641 182.852 58.3817 182.819 58.6528C182.698 58.4885 182.746 58.2092 182.884 57.8641ZM182.835 60.4028C182.519 60.2303 183.419 59.1786 183.597 59.7044C183.281 59.7537 183.014 59.9427 182.835 60.4028ZM183.784 58.5542C183.711 58.8171 183.435 58.5049 183.273 58.5296C183.378 58.4228 183.532 58.4721 183.589 58.2256C183.33 58.3981 183.2 58.0202 183.386 57.6258C183.484 57.7491 183.467 57.938 183.403 58.1681C183.67 58.2338 183.751 57.7162 183.889 57.3794C184.229 57.6834 183.5 58.1763 183.784 58.5542ZM184.205 57.3465C184.14 57.2397 184.205 57.0343 184.01 57.0179C184.116 56.681 184.626 56.2209 184.391 55.9334C184.602 55.6294 184.821 56.0566 184.813 56.2045C184.724 56.5989 184.497 56.5742 184.424 57.0179C184.675 57.1986 184.716 56.7468 184.975 56.9275C184.797 57.7984 184.399 56.8946 184.205 57.3547V57.3465ZM184.707 55.6294C185.105 55.1775 184.959 54.4299 185.55 54.4217C185.088 54.8407 185.348 55.9087 184.707 55.6294Z" fill="white"/>
<path d="M186.288 52.6389L186.304 52.5403C186.304 52.5403 186.288 52.606 186.288 52.6389Z" fill="white"/>
<path d="M149.478 36.0594C149.575 35.739 150.272 35.1556 149.705 35.0488C149.721 35.5253 149.283 35.7225 149.478 36.0594Z" fill="white"/>
<path d="M149.786 34.071C149.68 34.3422 149.591 34.6215 149.518 34.9748C149.729 34.6872 149.939 34.3832 150.158 34.071H149.786Z" fill="white"/>
<path d="M147.978 61.4956C147.946 61.6352 148.043 61.5942 148.067 61.5284C148.084 62.2103 148.027 62.9908 147.46 63.5906C147.435 63.3441 147.152 63.1469 146.868 63.2373C146.706 63.0977 147.176 62.843 147.241 62.5636C147.419 62.6622 147.062 63.0894 147.192 63.2209C147.411 63.4016 147.468 63.0566 147.654 63.1223C147.646 62.9251 147.662 62.6951 147.427 62.6376C147.743 62.3171 147.549 61.9803 147.938 61.8817C147.913 61.6845 147.768 61.8817 147.759 61.5449C148.124 61.1341 148.375 60.6165 148.594 60.0742L151.18 45.22C150.993 45.7787 150.896 46.2798 150.507 46.8714C150.572 46.3456 150.361 46.4359 150.094 46.8467C150.045 46.5592 150.15 45.8855 150.353 45.7212C150.28 45.4418 149.867 45.3515 149.777 45.0886C149.332 45.1132 149.559 45.7294 149.162 45.8033C149.186 45.2611 149.761 43.7247 150.288 43.3714C150.418 42.9442 149.842 42.9196 150.183 42.3691C149.899 42.1062 149.85 42.7553 149.583 42.5416C149.437 42.1391 150.645 41.5064 150.045 41.2107C150.296 40.8492 150.288 41.186 150.41 41.3503C151.009 40.9396 151.423 39.4443 151.925 38.7952C152.014 38.5077 151.552 38.5652 151.512 38.7706C151.423 38.3844 151.674 37.7929 151.277 37.5793C151.406 37.3492 151.69 37.7107 151.787 37.3739C151.577 37.1274 150.961 36.4044 151.577 35.6403C151.277 35.2131 151.917 35.854 151.504 36.2976L151.779 36.4044C152.168 36.2155 152.549 35.2706 152.436 34.8763C152.695 34.5559 152.671 35.0406 152.857 34.638C153.052 34.753 152.93 35.0324 152.744 35.1392C152.825 35.172 152.881 35.172 152.93 35.172L153.1 34.1944C153.052 34.1779 153.011 34.1615 152.971 34.1368C152.833 34.1204 152.768 34.3998 152.679 34.5723C152.476 34.3505 152.646 34.1533 152.873 34.0629H150.742C150.555 34.4737 150.466 34.9666 150.175 34.942C150.069 35.1474 150.175 35.2296 150.061 35.4432C150.15 35.476 150.191 35.3281 150.256 35.246C150.361 35.7636 149.648 35.8129 149.478 36.314C150.126 36.4866 149.194 37.341 149.226 38.138C149.08 38.0476 149.105 37.8504 149.243 37.5957C149.024 37.7025 148.894 38.138 148.667 38.1955C148.886 38.8609 148.173 39.7811 148.221 40.4877C148.084 40.7013 147.97 40.9806 147.751 40.8492C147.524 41.2435 147.954 41.26 147.727 41.6625C147.565 41.49 147.67 41.1614 147.614 40.9313C147.046 41.2189 147.208 41.6872 146.884 42.1555C146.763 42.6156 147.176 42.213 147.241 42.5663C146.981 42.6156 146.884 43.2482 146.536 42.9771C146.398 43.4372 146.43 43.5768 146.098 43.7658C146.074 43.9548 146.114 44.1109 146.22 44.2259C146.609 44.078 146.414 43.5275 146.665 43.166C146.811 43.9794 146.601 44.1602 146.025 44.6942C145.831 44.6038 145.952 44.3245 146.09 44.0369C145.644 44.1437 144.963 45.1132 145.352 45.5322C144.955 45.8362 144.704 46.4688 144.623 47.0275C144.412 47.3561 144.477 46.8385 144.258 46.8878C144.988 46.058 144.988 45.409 145.061 44.4559C145.361 44.9078 146.074 42.9689 145.944 42.6074C145.847 42.6402 145.741 42.6731 145.62 42.6156C145.79 43.3632 145.312 43.4618 145.344 44.0205L145.069 43.9137C144.737 44.5792 144.339 45.1378 144.842 45.4747C144.461 46.2223 144.161 45.6637 143.853 46.3291C143.853 47.0111 143.626 47.6601 143.618 48.1531C143.715 48.1202 143.821 48.0873 143.942 48.1366C144.08 47.8162 143.894 47.8409 144.137 47.6683C143.959 48.342 143.561 49.2622 143.124 49.6073C142.978 50.0591 143.172 50.2399 143.245 50.3385C143.027 50.8807 142.881 50.4781 142.743 50.281C143.035 49.5005 143.262 49.254 143.424 48.6296C142.864 48.4242 142.475 49.4512 142.613 49.8209C142.516 49.9688 142.346 49.8291 142.2 49.8044C141.973 50.207 141.924 50.3878 141.624 50.9547L141.26 50.815C141.325 50.3631 141.576 50.3631 141.884 49.8209C141.989 49.5087 141.657 49.9195 141.519 49.6812C141.519 49.1883 141.957 49.1143 141.957 48.6131C142.046 48.8514 141.957 49.2047 142.03 49.4594C142.2 49.3854 142.346 49.2129 142.5 49.0897C142.467 48.8103 142.321 48.6049 142.427 48.2434C142.297 48.112 141.908 48.4488 141.973 48.0709C142.07 48.038 142.735 47.1179 142.605 46.8057C143.002 46.4442 142.962 46.896 142.962 47.2165C143.31 47.1425 143.278 46.7317 143.31 46.3867C143.091 46.3867 142.873 46.6085 142.808 46.3291C143.318 46.0991 143.205 45.6144 143.488 44.9489C143.845 44.9735 144.064 44.4559 144.38 44.3327C144.558 43.9301 144.226 43.8315 144.315 43.4865C144.85 44.0944 146.722 40.3234 145.539 41.3503C145.142 41.6379 145.863 40.767 145.644 40.841C145.79 40.8985 146.025 40.7588 146.26 40.3891C146.398 40.1015 146.276 39.9701 146.187 39.814C146.455 39.8058 146.609 39.3539 146.771 38.9431C146.56 38.7624 146.495 39.1156 146.349 39.1896C146.187 38.7541 146.86 38.8938 147.014 38.6227C146.933 38.5652 146.868 38.2119 146.803 38.2037C147.216 37.834 148.675 36.7823 148.043 35.7307C148.335 35.7225 148.456 35.0488 148.837 35.361C148.951 34.8105 148.886 34.4573 149.283 34.5723C149.299 34.3998 149.364 34.219 149.445 34.0547H146.187C146.179 34.3012 146.276 34.4819 146.519 34.5805C146.203 35.0735 146.22 34.6709 145.928 34.4819C145.701 34.9091 146.163 34.9338 145.847 35.4103C145.717 34.9995 145.563 35.1474 145.223 34.8845C145.288 34.6216 145.417 34.5969 145.515 34.449C145.15 34.0711 145.101 34.9584 144.85 35.0159C144.615 34.9749 145.134 34.4983 144.728 34.5559C144.947 34.5148 145.134 34.3587 145.28 34.0547H141.689L139.963 43.9712C140.166 43.5686 140.692 43.1003 140.968 43.1578C141.09 43.6508 140.23 43.544 140.336 44.1519C140.133 43.9876 139.987 44.0698 139.914 44.4066C139.898 44.3902 139.898 44.3573 139.898 44.3327L137.686 57.059C137.767 56.944 137.864 56.8701 137.945 56.9522C137.88 57.2726 137.742 57.3712 137.613 57.478L135.546 69.3335H146.998L148.408 61.2327C148.238 61.1998 148.197 61.5942 148.003 61.4791L147.978 61.4956ZM151.334 34.4655C151.098 34.7202 150.799 34.712 150.612 35.1392C150.491 34.7612 151.001 34.1615 151.334 34.4655ZM148.805 52.4746C148.513 52.2199 148.424 52.6635 148.157 52.4992C148.448 52.2692 148.756 52.1213 149.089 52.0391C148.975 52.1131 148.878 52.2692 148.805 52.4746ZM148.708 45.3515C148.74 45.6554 149.048 45.8033 148.87 46.2306C148.505 46.173 148.667 44.801 148.708 45.3515ZM149.137 46.3374C149.056 47.2247 148.797 47.5615 148.351 48.2188C147.419 48.4981 148.935 46.8303 149.137 46.3374ZM148.197 58.6036C147.759 59.039 147.816 59.3102 147.265 59.877L147.063 59.8031C147.022 59.836 146.99 59.8442 146.99 59.7785L147.063 59.8031C147.265 59.647 147.849 58.6118 148.197 58.6036ZM147.427 46.6331C147.5 47.1014 147.071 46.8796 147.225 47.3726C147.127 47.315 147.054 47.3315 146.99 47.4218C146.682 47.1918 147.233 46.8139 147.427 46.6331ZM147.298 35.1967C146.99 35.5993 147.135 35.7964 146.803 36.1004C146.706 35.9936 147.038 34.9502 147.298 35.1967ZM146.195 37.5136C146.422 37.8011 146.309 37.8668 146.074 38.2941C145.701 38.2776 146.147 37.7765 146.195 37.5136ZM143.796 43.1743C143.699 42.8538 143.31 43.1496 143.18 43.6261C142.929 43.5111 143.27 43.125 143.399 42.6074C143.391 43.2071 144.04 42.4348 143.796 43.1743ZM144.38 39.28C144.461 38.8692 144.72 39.1239 144.85 38.9102C145.036 39.1403 144.591 39.5429 144.38 39.28ZM144.866 42.632C144.793 42.7635 144.655 42.6649 144.542 42.6402C144.785 42.3362 145.061 42.1308 145.223 41.5311C145.458 41.5722 144.947 42.0487 145.344 41.9912C145.263 42.328 144.696 42.3855 144.866 42.6238V42.632ZM144.785 35.5828C145.158 35.8047 145.263 35.55 145.847 35.5828C145.741 35.7882 145.847 35.8786 145.733 36.0922C145.539 35.9608 145.442 36.2319 145.231 36.0347C145.32 36.5523 144.842 37.226 144.566 37.8422C144.364 37.6286 144.834 37.5793 144.68 37.3328C144.275 37.1356 144.145 37.9901 143.821 38.0969C143.723 37.7847 144.882 36.8727 144.291 36.4866C144.655 36.314 144.51 36.1169 144.785 35.5746V35.5828ZM144.283 36.7659C144.129 37.0945 143.91 37.1931 143.748 37.5218C143.618 37.3082 144.048 36.6345 144.283 36.7659ZM143.294 37.341C143.416 37.4478 143.213 37.7436 143.553 37.7189C143.424 37.9326 143.164 37.6697 143.083 38.0804C142.994 37.7847 143.108 37.6039 143.294 37.3328V37.341ZM143.132 39.206C143.237 38.9842 143.472 39.2389 143.553 38.9595C143.748 39.3375 143.164 39.3128 143.067 39.6004C143.018 39.8633 143.513 39.814 143.229 40.2166C143.075 40.2248 143.205 39.6743 143.002 39.9947C142.727 39.74 143.262 39.4196 143.124 39.2142L143.132 39.206ZM142.459 40.044L142.913 40.2248C142.775 40.5288 142.484 40.2576 142.354 40.5534C142.135 40.348 142.321 40.3316 142.459 40.044ZM140.628 42.6402C141.13 41.9748 141.276 41.3996 141.616 40.5452C141.803 40.8163 141.657 41.2928 141.357 41.4079C141.576 41.605 141.665 41.3339 141.859 41.4654C141.381 41.8926 140.822 42.3445 140.936 42.8949C140.79 43.166 140.749 42.6649 140.619 42.6402H140.628ZM139.631 52.9593C139.72 53.3948 139.201 54.1177 139.007 54.5039C138.885 53.9288 139.339 53.5509 139.631 52.9593ZM139.396 56.1471C139.266 55.9252 139.566 55.4487 139.315 55.3008C139.436 54.9558 139.858 55.6623 139.914 55.1119C140.101 55.5884 139.493 55.7116 139.388 56.1471H139.396ZM139.833 57.667C139.623 57.3301 140.109 56.8454 139.947 56.3442C140.076 56.4018 140.198 56.4593 140.271 56.3278C140.401 56.6071 139.939 57.2398 139.841 57.667H139.833ZM139.833 54.8079C139.582 54.7504 139.947 54.3231 139.615 54.3149C139.639 54.2081 139.696 54.2163 139.752 54.2246L139.85 53.9863C139.955 54.0767 139.906 54.2492 140.028 54.3231C140.182 53.9288 139.947 53.7727 140.23 53.3044C140.271 53.4276 140.384 53.5098 140.547 53.5591C140.498 53.6741 140.401 53.6084 140.32 53.6084C140.149 54.1917 140.287 54.4135 139.841 54.7914L139.833 54.8079ZM140.376 55.2844C140.344 54.8243 140.692 54.3642 140.855 54.1013C140.927 54.545 140.466 55.1201 140.376 55.2844ZM140.368 53.2304C140.247 52.9922 140.628 52.8525 140.571 52.4828C140.255 52.2445 140.214 52.9429 139.874 52.6307C139.955 52.1542 140.239 52.376 140.352 51.9898C140.522 52.4992 140.814 51.6941 141.049 51.5708C141.065 51.7598 140.936 52.0884 140.668 52.2445C140.644 52.5239 140.725 52.7457 141.073 52.8032C141.187 53.025 140.474 52.7786 140.376 53.2222L140.368 53.2304ZM140.806 46.2716L140.441 46.132C140.911 45.9676 141.43 45.1625 140.806 46.2716ZM141.479 42.1308C141.552 42.2952 141.527 42.517 141.552 42.7142C141.681 42.821 142.046 42.3938 141.843 42.2787C142.313 42.1391 141.762 43.2564 141.576 43.4125C141.13 43.5275 141.592 42.4595 141.171 43.1167C140.927 42.8703 141.398 42.3609 141.479 42.1308ZM142.281 52.1706C142.038 52.0556 142.621 51.2011 142.062 51.6776C141.949 51.5955 142.111 51.349 142.167 51.1683C142.597 51.2669 142.54 51.6612 142.289 52.1706H142.281ZM144.55 47.7012C144.356 47.6108 144.72 47.1836 144.753 46.9618C145.223 47.0193 144.502 47.2164 144.785 47.389C145.361 46.9946 144.939 45.9676 145.563 45.7705C145.215 46.2388 145.393 47.5533 144.542 47.7012H144.55ZM145.596 57.2151C145.677 56.7222 145.62 56.3032 145.895 55.7034C146.074 55.9663 145.709 56.2867 145.928 56.6647C145.855 56.9604 145.66 56.8536 145.604 57.2151H145.596ZM145.944 58.694C145.547 58.5707 146.139 57.9217 146.236 57.7163C146.406 57.8806 146.009 58.39 145.944 58.694ZM145.693 47.7258C145.263 47.7505 146.252 46.5674 146.366 46.6167C146.212 47.0686 145.612 47.4218 145.693 47.7258Z" fill="white"/>
<path d="M151.325 43.9137C151.325 43.9794 151.35 44.0205 151.374 44.0698L151.415 43.8562C151.415 43.8562 151.366 43.9055 151.325 43.9055V43.9137Z" fill="white"/>
<path d="M144.607 37.0205C144.874 36.8315 145.19 35.8621 144.777 36.125C144.988 36.47 144.477 36.7165 144.607 37.0205Z" fill="white"/>
<path d="M152.452 36.5523C152.719 37.0535 152.355 37.0206 152.087 37.645C152.265 37.6779 152.387 37.6861 152.476 37.719L152.711 36.3716C152.614 36.4209 152.517 36.4784 152.452 36.5523Z" fill="white"/>
<path d="M143.521 46.362C143.804 46.3867 144.048 45.4994 143.731 45.3433C143.553 45.598 143.059 46.2552 143.521 46.362Z" fill="white"/>
<path d="M146.503 42.0324C146.56 41.6216 146.973 40.9972 146.544 40.6768C146.487 41.1779 146.195 40.8082 146.114 41.1944C146.714 41.1944 146.033 41.9502 146.503 42.0324Z" fill="white"/>
<path d="M145.636 34.1203C145.636 34.1203 145.644 34.0875 145.652 34.071H145.434C145.434 34.071 145.417 34.1286 145.401 34.1614C145.482 34.1696 145.539 34.0793 145.636 34.1203Z" fill="white"/>
<path d="M148.619 36.8153C148.805 36.6181 149.154 36.3716 149.064 36.0266C148.748 35.739 148.351 36.7003 148.619 36.8153Z" fill="white"/>
<path d="M147.703 39.206C148.035 38.6966 148.489 38.0475 148.448 37.7107C148.051 37.9736 147.614 38.6802 147.703 39.206Z" fill="white"/>
<path d="M131.729 68.4872C131.469 68.4543 131.324 68.7665 131.137 68.9555C131.016 68.5282 130.943 68.7829 130.586 68.7665C130.975 68.5118 130.716 68.1503 130.311 68.1257C130.408 67.7313 130.675 67.8956 130.813 67.6245C130.481 67.5999 130.319 67.7313 130.627 67.2877C130.319 67.0823 130.238 67.6245 130.027 67.756C130.335 67.148 131.737 65.7102 132.418 64.8804L133.317 59.7291H121.282L121.922 56.0402H133.423L134.995 47.0767H123.495L124.086 43.6918H132.426C132.458 43.5932 132.491 43.4782 132.572 43.2728C132.361 43.1085 132.223 43.1988 132.15 43.5275C132.102 43.2317 132.401 42.558 132.588 42.7223C132.572 42.5826 132.499 42.4758 132.41 42.3773C132.547 42.1636 132.588 42.673 132.742 42.0897C132.863 42.1472 132.993 42.2047 133.066 42.0733C133.22 42.4758 132.58 42.4923 132.482 42.9606C132.677 43.1906 132.701 43.4371 132.661 43.6836H136.121L137.661 34.8433C137.661 34.8433 137.661 34.8269 137.661 34.8187L137.791 34.071H137.54C137.094 34.9337 136.94 36.0428 136.154 36.7494C136.065 36.7165 136.146 36.5769 136.162 36.4783C135.927 36.4783 135.894 37.1027 136.235 37.0616C136.032 37.2506 136.065 37.7024 135.7 37.8257C135.975 37.8175 135.724 38.4665 135.668 38.6473C135.578 38.8116 135.376 38.5898 135.295 38.7787C135.303 38.5076 135.489 38.22 135.659 37.6696C135.108 37.99 134.33 39.7646 134.792 39.97C134.938 40.7094 133.844 41.5146 134.363 41.7446C134.274 42.0322 134.047 41.7775 133.941 41.9993C133.885 41.8843 133.966 41.6871 133.771 41.6543C134.071 41.227 133.974 41.2188 134.265 40.7341C134.387 40.578 134.03 40.3069 134.322 40.3397C134.063 39.9947 133.763 41.1038 133.641 41.4653C132.928 41.4324 133.171 41.4242 132.831 40.8738C133.05 40.7669 133.309 41.1367 133.536 40.4547C133.714 40.4794 133.415 41.186 133.244 40.8984C133.261 41.0381 133.333 41.1449 133.414 41.2435C133.625 40.9559 134.128 40.1754 133.682 40.1015C134.217 39.6085 134.598 38.8609 134.857 38.0557C134.906 38.1461 134.954 38.2365 135.084 38.2776C134.995 37.9653 135.441 36.7823 135.716 37.2752C135.781 37.0616 135.676 36.9466 135.449 36.8973C135.87 36.3961 135.927 36.1989 135.862 35.6731C136.105 35.8703 136.146 35.3034 136.421 35.6156C136.527 35.4102 136.421 35.3198 136.535 35.1062C136.413 35.1637 136.308 35.2706 136.202 35.3938C136 35.1884 136.486 35.0734 136.51 34.679C136.575 34.7283 136.551 34.8351 136.64 34.868C136.64 34.753 136.624 34.6379 136.697 34.4736C136.859 34.4983 136.802 34.6462 136.916 34.6954C137.013 34.449 137.102 34.2107 137.005 34.0793H135.043C134.962 34.2025 134.881 34.3257 134.808 34.4243C134.752 34.3504 134.784 34.2189 134.841 34.0793H132.458C132.458 34.2107 132.507 34.3668 132.588 34.3997C132.377 34.9337 132.353 34.2436 132.126 34.4983C132.021 35.213 131.591 35.8539 131.315 36.4126C131.129 36.0182 131.745 35.1473 131.607 34.7119C131.826 34.5476 131.972 34.3257 132.102 34.0793H131.664C131.664 34.0793 131.648 34.1368 131.632 34.1696C131.583 34.1532 131.55 34.1121 131.518 34.0793H115.042L108.899 69.3498H122.417C122.474 69.0458 122.611 68.6679 122.441 68.8404C122.36 68.3886 122.692 68.6022 122.944 68.6022C122.846 68.9719 122.676 69.0869 122.547 69.3498H130.319C130.278 69.3334 130.229 69.3252 130.181 69.3088C130.335 69.1773 130.521 69.1609 130.635 68.9226C130.789 68.9062 130.683 69.4649 130.87 69.1362C130.991 69.2266 130.951 69.2759 130.87 69.3416H131.648L131.777 68.5775C131.777 68.5775 131.721 68.5365 131.737 68.4872H131.729ZM125.448 48.5145L125.172 48.4159C125.302 48.1858 125.31 48.0297 125.14 47.9887C125.44 47.6929 125.659 48.2023 125.448 48.5227V48.5145ZM134.509 34.5969C134.8 34.8433 134.217 35.6074 134.371 35.9278C134.047 35.5663 134.395 35.0323 134.509 34.5969ZM133.771 37.0863L133.406 36.9466C133.487 36.5522 133.65 36.3386 133.617 36.1989C133.747 35.8128 133.755 36.6015 133.941 36.1825C134.193 36.2975 133.901 36.7494 133.771 37.0863ZM133.512 35.4513C133.625 35.3527 133.771 35.4102 133.844 35.1637C134.193 35.5499 133.374 35.5581 133.868 35.8703C133.528 36.0182 133.269 36.5029 133.042 37.078C132.855 36.5933 133.917 35.8621 133.52 35.4513H133.512ZM130.845 40.5369C131.137 40.7341 130.643 41.3503 130.367 41.186C130.554 41.0791 130.659 40.6437 130.845 40.5369ZM126.826 42.0733C126.988 42.4101 126.477 42.8127 126.38 43.1578C126.088 42.9524 126.672 42.443 126.826 42.0733ZM123.195 48.3748C122.968 48.8513 122.7 49.1553 122.474 49.64C122.198 49.5825 122.911 48.3666 123.195 48.3748ZM119.613 51.8008C119.394 52.0966 119.888 50.363 120.188 50.6177C119.896 51.0942 119.913 51.1353 119.613 51.8008ZM131.186 64.2149C131.251 64.3217 131.178 64.5271 131.372 64.5518C131.048 65.0365 131.121 65.1433 130.821 65.7184C130.521 65.4884 131.072 64.7079 131.194 64.2149H131.186ZM131.275 65.8827C131.129 66.2114 130.918 66.3346 130.627 66.2032C130.781 65.9074 131.048 65.9567 131.275 65.8827ZM122.984 68.4789C122.7 68.4789 122.887 68.175 122.709 68.1092C123.106 67.8053 123.057 67.493 123.397 66.8358C123.94 67.0165 122.879 68.0517 122.984 68.4789ZM128.836 68.709C128.763 68.5118 128.819 68.2325 128.925 67.9203C128.973 68.0435 129.087 68.1257 129.249 68.1667C129.119 68.3804 128.9 68.2982 128.836 68.709ZM129.751 66.0306C129.524 65.4391 130.367 66.0881 130.4 65.4391C130.659 65.1351 130.278 65.9895 130.489 66.0142C130.108 66.2607 130.059 65.7431 129.751 66.0306Z" fill="white"/>
<path d="M131.964 67.4766C131.859 67.6327 131.753 67.7888 131.64 67.912C131.615 68.1256 131.745 68.2489 131.802 68.4132L131.964 67.4766Z" fill="white"/>
<path d="M132.231 65.5377C132.231 65.5377 132.28 65.513 132.296 65.5048L132.353 65.1926C132.288 65.2912 132.239 65.4062 132.231 65.5377Z" fill="white"/>
<path d="M53.5539 40.8902C51.3657 44.1355 52.4031 48.7117 55.8718 51.1107C59.8429 53.9123 65.4188 52.4334 66.8776 47.964L90.2425 0L53.562 40.8902H53.5539Z" fill="#FC2F00"/>
</g>
<defs>
<clipPath id="clip0_124_972">
<rect width="195" height="74" fill="white"/>
</clipPath>
</defs>
</svg>
