<?xml version="1.0" encoding="UTF-8"?>
<!DOCTYPE svg PUBLIC "-//W3C//DTD SVG 1.1//EN" "http://www.w3.org/Graphics/SVG/1.1/DTD/svg11.dtd">
<!-- Creator: CorelDRAW X8 -->
<svg xmlns="http://www.w3.org/2000/svg" xml:space="preserve" width="81.4323mm" height="54.431mm" version="1.1" style="shape-rendering:geometricPrecision; text-rendering:geometricPrecision; image-rendering:optimizeQuality; fill-rule:evenodd; clip-rule:evenodd"
viewBox="0 0 7202 4814"
 xmlns:xlink="http://www.w3.org/1999/xlink">
 <defs>
  <style type="text/css">
   <![CDATA[
    .fil0 {fill:#BA0057}
    .fil1 {fill:#FF0C6C}
    .fil2 {fill:black;fill-rule:nonzero}
    .fil3 {fill:#75F9E1;fill-rule:nonzero}
   ]]>
  </style>
 </defs>
 <g id="Layer_x0020_1">
  <metadata id="CorelCorpID_0Corel-Layer"/>
  <path class="fil0" d="M2114 3449l-206 -62c-40,-12 2079,-463 2808,-552 664,-81 1316,-32 1922,-333l432 -214 114 147 -70 519c-1763,-66 -3364,193 -5000,495z"/>
  <path class="fil0" d="M5967 176l-678 1875 100 114c753,-93 1539,-395 1769,-1164 179,-601 -201,-1018 -798,-889l-393 64zm577 953c-117,134 -300,242 -467,298l254 -841c451,-154 491,224 213,543z"/>
  <path class="fil0" d="M4718 351l-719 1914 109 109c359,-57 679,-128 1032,-176l125 -506 -127 -103 -249 138 425 -1452 -119 -93 -477 169z"/>
  <polygon class="fil0" points="3773,504 3016,2486 3115,2608 3744,2472 4368,429 4247,316 "/>
  <polygon class="fil0" points="375,959 5,3250 115,3374 660,3248 1356,2192 1201,2996 1306,3106 1912,2974 3495,532 3374,420 2648,649 2036,1722 2103,724 1977,610 1633,783 962,1890 1113,850 999,739 "/>
  <polygon class="fil1" points="260,844 0,3259 545,3133 1241,2077 1191,2991 1797,2859 3380,417 2533,534 1920,1607 1987,609 1518,668 847,1775 998,735 "/>
  <polygon class="fil1" points="3665,383 3007,2487 3636,2351 4260,307 "/>
  <path class="fil1" d="M4604 249l-610 2023c358,-57 679,-128 1031,-176l126 -506 -376 35 424 -1452 -595 76z"/>
  <path class="fil1" d="M5858 87l-578 1972c753,-92 1539,-392 1769,-1154 179,-596 -201,-1009 -798,-882l-393 64zm563 945c-117,133 -286,240 -453,296l254 -835c422,-147 476,223 199,539z"/>
  <path class="fil1" d="M1871 3393c1645,-614 3376,-991 5204,-1108l-72 521c-1810,-34 -3453,254 -5132,587z"/>
  <path class="fil2" d="M150 4742l0 -966 374 0 0 58 -309 0 0 413 254 0 0 58 -254 0 0 437 -65 0zm1034 -236l0 -493c0,-75 18,-134 54,-178 36,-45 90,-67 161,-67 73,0 127,22 164,67 36,44 54,103 54,178l0 493c0,74 -18,134 -54,178 -37,44 -91,66 -164,66 -71,0 -125,-22 -161,-66 -36,-44 -54,-104 -54,-178zm65 4c0,56 12,101 36,133 24,33 62,49 114,49 53,0 92,-16 116,-49 25,-33 37,-77 37,-133l0 -502c0,-56 -12,-100 -37,-133 -24,-33 -63,-49 -116,-49 -52,0 -90,16 -114,49 -24,32 -36,77 -36,133l0 502zm1041 232l0 -966 205 0c140,0 211,73 211,218l0 85c0,111 -48,178 -143,199 95,21 143,87 143,198l0 150c0,54 8,92 24,116l-68 0c-14,-24 -21,-62 -21,-116l0 -151c0,-61 -15,-104 -47,-128 -31,-25 -76,-37 -137,-37l-103 0 0 432 -64 0zm64 -490l105 0c62,0 108,-11 137,-35 30,-23 45,-65 45,-126l0 -91c0,-54 -12,-95 -35,-124 -23,-28 -61,-42 -113,-42l-139 0 0 418zm1014 -418l0 -58 463 0 0 58 -199 0 0 908 -64 0 0 -908 -200 0zm1111 672l0 -730 65 0 0 733c0,56 11,101 35,134 23,33 61,49 112,49 52,0 89,-16 113,-49 23,-33 35,-78 35,-134l0 -733 60 0 0 730c0,74 -17,133 -51,178 -34,44 -87,66 -158,66 -72,0 -125,-22 -159,-66 -35,-45 -52,-104 -52,-178zm1097 236l0 -966 86 0 294 816 0 -816 60 0 0 966 -73 0 -306 -861 0 861 -61 0zm1115 0l0 -966 387 0 0 58 -322 0 0 389 267 0 0 58 -267 0 0 403 322 0 0 58 -387 0z"/>
  <path class="fil3" d="M111 4742l0 -1005 452 0 0 136 -309 0 0 335 254 0 0 136 -254 0 0 437 -143 0 0 -39zm1034 -236l0 -493c0,-41 5,-78 15,-112 11,-34 27,-64 48,-91l0 0c22,-27 50,-48 83,-61 31,-13 67,-20 108,-20 41,0 78,7 110,20 34,13 61,34 84,61 21,26 37,56 48,91 10,34 15,71 15,112l0 493c0,41 -5,78 -15,112 -11,34 -27,64 -48,90l0 0c-23,28 -50,48 -84,62 -32,13 -69,19 -110,19 -40,0 -77,-6 -108,-20 -33,-13 -61,-34 -83,-61 -21,-26 -37,-56 -48,-90 -10,-34 -15,-71 -15,-112zm143 4c0,25 2,47 7,65 5,18 12,33 21,45 8,11 18,19 31,24 14,6 31,9 52,9 22,0 39,-3 54,-9 12,-5 23,-13 31,-24 10,-13 17,-28 22,-45 5,-19 7,-40 7,-65l0 -502c0,-25 -2,-46 -7,-65 -5,-17 -12,-32 -22,-44 -8,-11 -19,-20 -31,-25 -15,-6 -33,-9 -54,-9 -21,0 -38,3 -52,9 -13,5 -23,13 -31,24 -9,12 -16,27 -21,45 -5,18 -7,40 -7,65l0 502zm963 232l0 -1005 244 0c81,0 143,23 186,67 42,44 64,107 64,190l0 85c0,64 -15,116 -43,156 -12,17 -26,31 -43,43 17,12 31,26 43,43 28,39 43,91 43,155l0 150c0,24 1,45 5,61 3,14 7,25 12,33l41 61 -163 0 -11 -19c-10,-16 -16,-36 -21,-60 -4,-22 -6,-47 -6,-76l0 -151c0,-26 -3,-48 -9,-65 -5,-14 -13,-25 -22,-33l-1 0c-11,-9 -25,-15 -43,-20 -20,-5 -43,-8 -70,-8l-64 0 0 432 -142 0 0 -39zm142 -529l66 0c28,0 52,-2 71,-7 18,-5 32,-11 43,-19l0 0c9,-7 15,-17 20,-31 6,-17 9,-39 9,-65l0 -91c0,-24 -2,-44 -7,-61 -4,-15 -11,-28 -19,-38l0 0c-7,-9 -17,-15 -29,-20 -14,-5 -32,-8 -54,-8l-100 0 0 340zm936 -379l0 -97 541 0 0 136 -199 0 0 908 -142 0 0 -908 -200 0 0 -39zm1111 672l0 -769 143 0 0 772c0,25 2,47 7,66 5,17 12,33 21,45 7,11 17,19 29,24 14,6 31,9 51,9 21,0 38,-3 51,-9 12,-5 22,-13 30,-24 9,-12 16,-28 21,-45 4,-19 7,-41 7,-66l0 -772 138 0 0 769c0,41 -5,77 -14,110l0 0c-10,35 -25,65 -45,91l0 0c-21,28 -48,48 -81,62 -31,13 -67,20 -108,20 -41,0 -77,-6 -108,-20 -33,-13 -60,-34 -82,-62l0 0c-20,-26 -35,-56 -45,-90 -10,-34 -15,-70 -15,-111zm1097 236l0 -1005c106,0 16,0 152,0l228 632 0 -632 138 0 0 1044 -60 0 0 33 -12 -33 -67 0 -240 -674 0 674 -139 0 0 -39zm1115 0l0 -1005 465 0 0 136 -322 0 0 311 267 0 0 136 -267 0 0 325 322 0 0 136 -465 0 0 -39z"/>
 </g>
</svg>
