<svg width="386" height="118" viewBox="0 0 386 118" fill="none" xmlns="http://www.w3.org/2000/svg">
<path d="M52 104C80.7188 104 104 80.7188 104 52C104 23.2812 80.7188 0 52 0C23.2812 0 0 23.2812 0 52C0 80.7188 23.2812 104 52 104Z" fill="#0052B4"/>
<path d="M52.0001 20.3479L53.6838 25.5294H59.1316L54.724 28.7317L56.4077 33.9132L52.0001 30.7107L47.5923 33.9132L49.276 28.7317L44.8684 25.5294H50.3164L52.0001 20.3479Z" fill="#FFDA44"/>
<path d="M29.6185 29.6186L34.4732 32.0918L38.3254 28.2397L37.4729 33.6205L42.3274 36.094L36.9464 36.9463L36.0941 42.3275L33.6207 37.473L28.2399 38.3255L32.0921 34.4732L29.6185 29.6186Z" fill="#FFDA44"/>
<path d="M20.348 52L25.5295 50.3163V44.8683L28.7316 49.2761L33.9133 47.5924L30.7106 52L33.9133 56.4076L28.7316 54.7241L25.5295 59.1317V53.6837L20.348 52Z" fill="#FFDA44"/>
<path d="M29.6185 74.3816L32.0919 69.5269L28.2399 65.6746L33.6209 66.5273L36.0939 61.6729L36.9464 67.0538L42.3272 67.9062L37.4733 70.3796L38.3254 75.7604L34.4732 71.9081L29.6185 74.3816Z" fill="#FFDA44"/>
<path d="M52.0001 83.6522L50.3162 78.4706H44.8684L49.2762 75.2684L47.5923 70.0873L52.0001 73.2893L56.4077 70.0873L54.724 75.2684L59.1316 78.4706H53.6836L52.0001 83.6522Z" fill="#FFDA44"/>
<path d="M74.3817 74.3816L69.5272 71.9083L65.6748 75.7606L66.5273 70.3794L61.6732 67.9062L67.054 67.0538L67.9063 61.6729L70.3796 66.5273L75.7603 65.6746L71.9081 69.5273L74.3817 74.3816Z" fill="#FFDA44"/>
<path d="M83.6522 52L78.4706 53.6837V59.1317L75.2684 54.7239L70.0873 56.4076L73.2895 52L70.0873 47.5924L75.2686 49.2761L78.4706 44.8683V50.3165L83.6522 52Z" fill="#FFDA44"/>
<path d="M74.3817 29.6185L71.9083 34.4732L75.7605 38.3254L70.3794 37.4727L67.9063 42.3272L67.054 36.9462L61.6732 36.0937L66.5273 33.6204L65.6748 28.2399L69.5275 32.0919L74.3817 29.6185Z" fill="#FFDA44"/>
<path d="M144.779 76H131.999V44.405H120.568V35.53H156.21V44.405H144.779V76ZM179.343 76.923C172.29 76.923 166.989 75.2663 163.439 71.953C159.936 68.5923 158.185 63.22 158.185 55.836C158.185 48.594 160.125 43.3163 164.007 40.003C167.888 36.6897 173.024 35.033 179.414 35.033C192.856 35.033 199.578 41.7307 199.578 55.126C199.578 61.8947 197.921 67.2197 194.608 71.101C191.342 74.9823 186.253 76.923 179.343 76.923ZM179.059 68.545C180.384 68.545 181.496 68.332 182.396 67.906C183.295 67.4327 184.005 66.628 184.526 65.492C185.52 63.5513 186.017 60.38 186.017 55.978C186.017 51.6707 185.52 48.5467 184.526 46.606C183.532 44.618 181.709 43.5767 179.059 43.482C178.065 43.482 177.023 43.6003 175.935 43.837C174.893 44.0263 174.231 44.3103 173.947 44.689C173.379 45.3517 172.929 46.7717 172.598 48.949C172.314 51.079 172.172 53.422 172.172 55.978C172.172 59.954 172.55 62.865 173.308 64.711C173.828 66.0837 174.562 67.0777 175.509 67.693C176.455 68.261 177.639 68.545 179.059 68.545ZM221.558 35.317C225.392 35.317 228.634 35.672 231.285 36.382C233.935 37.092 236.042 38.4647 237.604 40.5C239.213 42.488 240.018 45.3517 240.018 49.091C240.018 50.7477 239.757 52.4517 239.237 54.203C238.763 55.907 238.148 57.398 237.391 58.676C236.681 59.954 236.042 60.7823 235.474 61.161C234.811 61.6343 233.344 62.013 231.072 62.297C228.8 62.5337 226.125 62.652 223.049 62.652C221.96 62.652 220.28 62.6047 218.008 62.51V76H205.228V35.53C210.198 35.388 215.641 35.317 221.558 35.317ZM226.883 53.564C227.356 52.9487 227.593 51.718 227.593 49.872C227.593 47.458 227.072 45.754 226.031 44.76C225.037 43.766 223.285 43.269 220.777 43.269C219.925 43.269 219.002 43.34 218.008 43.482V54.274C218.481 54.3213 219.404 54.345 220.777 54.345C224.421 54.345 226.457 54.0847 226.883 53.564ZM244.612 35.53H257.392V76H244.612V35.53ZM276.436 59.67V76H264.579V35.53H276.578L287.299 51.86C288.909 54.274 290.139 56.3093 290.991 57.966H291.204V51.15V35.53H302.99V76H290.92L279.915 58.96L276.72 54.132H276.507L276.436 59.67ZM309.639 35.53H339.104V44.05H322.419V51.434H336.477V59.102H322.419V67.338H339.033V76H309.639V35.53ZM382.367 35.53V58.179C382.367 62.865 381.846 66.5333 380.805 69.184C379.811 71.7873 377.917 73.7043 375.125 74.935C372.332 76.1657 368.261 76.781 362.913 76.781C358.984 76.781 355.671 76.3787 352.973 75.574C350.275 74.722 348.121 73.1363 346.512 70.817C344.95 68.4977 344.169 65.2317 344.169 61.019V35.53H356.949V58.321C356.949 60.8297 357.067 62.7467 357.304 64.072C357.588 65.35 358.203 66.344 359.15 67.054C360.096 67.7167 361.54 68.048 363.481 68.048C364.664 68.048 365.776 67.9297 366.818 67.693C367.859 67.4563 368.569 67.1013 368.948 66.628C369.374 66.06 369.587 64.001 369.587 60.451V35.53H382.367Z" fill="#0052B4"/>
</svg>
